<svg version="1.1" xmlns="http://www.w3.org/2000/svg" xmlns:xlink="http://www.w3.org/1999/xlink" width="714" height="679"><defs/><g><g transform="translate(5,5) scale(1,1)"><path fill="none" stroke="#000000" d="M 5 5 L 699 5 L 699 664 L 5 664 L 5 5" stroke-miterlimit="10"/></g><g transform="translate(5,5) scale(1,1)"><path fill="#ffffff" stroke="none" d="M 5 5 L 5 27 L 292.73046875 27 L 303.73046875 16 L 303.73046875 5 L 5 5"/></g><g transform="translate(5,5) scale(1,1)"><path fill="none" stroke="#000000" d="M 5 5 L 5 27 L 292.73046875 27 L 303.73046875 16 L 303.73046875 5 L 5 5 L 5 5" stroke-miterlimit="10"/></g><g transform="translate(5,5) scale(1,1)"><g><path fill="none" stroke="none"/><text fill="#000000" stroke="none" font-family="Arial" font-size="13px" font-style="normal" font-weight="normal" text-decoration="none" x="75.97900390625" y="22.5">Service Maintenance Sequence diag</text></g></g><g transform="translate(5,5) scale(1,1)"><g><path fill="none" stroke="none"/><text fill="#000000" stroke="none" font-family="Arial" font-size="13px" font-style="normal" font-weight="bold" text-decoration="none" x="10" y="22.5">interaction</text></g></g><g transform="translate(5,5) scale(1,1)"><path fill="none" stroke="#000000" d="M 32 104 L 655 104 L 655 160 L 32 160 L 32 104" stroke-miterlimit="10"/></g><g transform="translate(5,5) scale(1,1)"><path fill="#ffffff" stroke="none" d="M 32 104 L 32 126 L 230.85693359375 126 L 241.85693359375 115 L 241.85693359375 104 L 32 104"/></g><g transform="translate(5,5) scale(1,1)"><path fill="none" stroke="#000000" d="M 32 104 L 32 126 L 230.85693359375 126 L 241.85693359375 115 L 241.85693359375 104 L 32 104 L 32 104" stroke-miterlimit="10"/></g><g transform="translate(5,5) scale(1,1)"><g><path fill="none" stroke="none"/><text fill="#000000" stroke="none" font-family="Arial" font-size="13px" font-style="normal" font-weight="normal" text-decoration="none" x="43" y="121.5">Sequence diag: Authentification</text></g></g><g transform="translate(5,5) scale(1,1)"><g><path fill="none" stroke="none"/><text fill="#000000" stroke="none" font-family="Arial" font-size="13px" font-style="normal" font-weight="bold" text-decoration="none" x="37" y="121.5"></text></g></g><g transform="translate(5,5) scale(1,1)"><rect fill="#C0C0C0" stroke="none" x="23" y="47" width="243.47216796875" height="39" opacity="0.2"/></g><g transform="translate(5,5) scale(1,1)"><rect fill="#ffffff" stroke="none" x="16" y="40" width="243.47216796875" height="39"/></g><g transform="translate(5,5) scale(1,1)"><path fill="none" stroke="#000000" d="M 16 40 L 259.47216796875 40 L 259.47216796875 79 L 16 79 L 16 40 Z Z" stroke-miterlimit="10"/></g><g transform="translate(5,5) scale(1,1)"><g><path fill="none" stroke="none"/><text fill="#000000" stroke="none" font-family="Arial" font-size="13px" font-style="normal" font-weight="bold" text-decoration="none" x="33.8154296875" y="59.5">Visiteurs &amp; Secteurs Public &amp; Privés</text></g></g><g transform="translate(5,5) scale(1,1)"><path fill="none" stroke="#000000" d="M 138.5 80 L 138.5 640" stroke-miterlimit="10" stroke-dasharray="3"/></g><g transform="translate(5,5) scale(1,1)"><rect fill="#C0C0C0" stroke="none" x="343" y="47" width="71.736328125" height="39" opacity="0.2"/></g><g transform="translate(5,5) scale(1,1)"><rect fill="#ffffff" stroke="none" x="336" y="40" width="71.736328125" height="39"/></g><g transform="translate(5,5) scale(1,1)"><path fill="none" stroke="#000000" d="M 336 40 L 407.736328125 40 L 407.736328125 79 L 336 79 L 336 40 Z Z" stroke-miterlimit="10"/></g><g transform="translate(5,5) scale(1,1)"><g><path fill="none" stroke="none"/><text fill="#000000" stroke="none" font-family="Arial" font-size="13px" font-style="normal" font-weight="bold" text-decoration="none" x="353.444091796875" y="59.5">Admin</text></g></g><g transform="translate(5,5) scale(1,1)"><path fill="none" stroke="#000000" d="M 372.5 80 L 372.5 640" stroke-miterlimit="10" stroke-dasharray="3"/></g><g transform="translate(5,5) scale(1,1)"><rect fill="#C0C0C0" stroke="none" x="559" y="47" width="72.47900390625" height="39" opacity="0.2"/></g><g transform="translate(5,5) scale(1,1)"><rect fill="#ffffff" stroke="none" x="552" y="40" width="72.47900390625" height="39"/></g><g transform="translate(5,5) scale(1,1)"><path fill="none" stroke="#000000" d="M 552 40 L 624.47900390625 40 L 624.47900390625 79 L 552 79 L 552 40 Z Z" stroke-miterlimit="10"/></g><g transform="translate(5,5) scale(1,1)"><g><path fill="none" stroke="none"/><text fill="#000000" stroke="none" font-family="Arial" font-size="13px" font-style="normal" font-weight="bold" text-decoration="none" x="562.95361328125" y="59.5">Systeme</text></g></g><g transform="translate(5,5) scale(1,1)"><path fill="none" stroke="#000000" d="M 589.5 80 L 589.5 640" stroke-miterlimit="10" stroke-dasharray="3"/></g><g transform="translate(5,5) scale(1,1)"><path fill="none" stroke="#000000" d="M 138 192 L 582 192" stroke-miterlimit="10"/></g><g transform="translate(5,5) scale(1,1)"><path fill="#000000" stroke="none" d="M 571.8373251423759 196.209517756016 L 582 192 L 571.8373251423758 187.790482243984"/></g><g transform="translate(5,5) scale(1,1)"><path fill="none" stroke="#000000" d="M 571.8373251423759 196.209517756016 L 582 192 L 571.8373251423758 187.790482243984 L 571.8373251423759 196.209517756016" stroke-miterlimit="10"/></g><g transform="translate(5,5) scale(1,1)"><g><path fill="none" stroke="none"/><text fill="#000000" stroke="none" font-family="Arial" font-size="13px" font-style="normal" font-weight="normal" text-decoration="none" x="268.5" y="188.5">1 : demande_page_reclamation</text></g></g><g transform="translate(5,5) scale(1,1)"><rect fill="#ffffff" stroke="none" x="582" y="192" width="13" height="28"/></g><g transform="translate(5,5) scale(1,1)"><path fill="none" stroke="#000000" d="M 582 192 L 595 192 L 595 220 L 582 220 L 582 192 Z Z" stroke-miterlimit="10"/></g><g transform="translate(5,5) scale(1,1)"><path fill="none" stroke="#000000" d="M 589 232 L 138 232" stroke-miterlimit="10" stroke-dasharray="3"/></g><g transform="translate(5,5) scale(1,1)"><path fill="none" stroke="#000000" d="M 148.16267485762415 227.790482243984 L 138 232 L 148.16267485762415 236.209517756016" stroke-miterlimit="10"/></g><g transform="translate(5,5) scale(1,1)"><g><path fill="none" stroke="none"/><text fill="#000000" stroke="none" font-family="Arial" font-size="13px" font-style="normal" font-weight="normal" text-decoration="none" x="279.5" y="248.5">2 : renvoi_page_reclamation</text></g></g><g transform="translate(5,5) scale(1,1)"><path fill="none" stroke="#000000" d="M 138 304 L 582 304" stroke-miterlimit="10"/></g><g transform="translate(5,5) scale(1,1)"><path fill="#000000" stroke="none" d="M 571.8373251423759 308.209517756016 L 582 304 L 571.8373251423758 299.790482243984"/></g><g transform="translate(5,5) scale(1,1)"><path fill="none" stroke="#000000" d="M 571.8373251423759 308.209517756016 L 582 304 L 571.8373251423758 299.790482243984 L 571.8373251423759 308.209517756016" stroke-miterlimit="10"/></g><g transform="translate(5,5) scale(1,1)"><g><path fill="none" stroke="none"/><text fill="#000000" stroke="none" font-family="Arial" font-size="13px" font-style="normal" font-weight="normal" text-decoration="none" x="298.5" y="300.5">3 : envoi_reclamation</text></g></g><g transform="translate(5,5) scale(1,1)"><rect fill="#ffffff" stroke="none" x="582" y="304" width="13" height="28"/></g><g transform="translate(5,5) scale(1,1)"><path fill="none" stroke="#000000" d="M 582 304 L 595 304 L 595 332 L 582 332 L 582 304 Z Z" stroke-miterlimit="10"/></g><g transform="translate(5,5) scale(1,1)"><path fill="none" stroke="#000000" d="M 589 338 L 378 338" stroke-miterlimit="10"/></g><g transform="translate(5,5) scale(1,1)"><path fill="#000000" stroke="none" d="M 388.16267485762415 333.790482243984 L 378 338 L 388.16267485762415 342.209517756016"/></g><g transform="translate(5,5) scale(1,1)"><path fill="none" stroke="#000000" d="M 388.16267485762415 333.790482243984 L 378 338 L 388.16267485762415 342.209517756016 L 388.16267485762415 333.790482243984" stroke-miterlimit="10"/></g><g transform="translate(5,5) scale(1,1)"><g><path fill="none" stroke="none"/><text fill="#000000" stroke="none" font-family="Arial" font-size="13px" font-style="normal" font-weight="normal" text-decoration="none" x="453.5" y="355.5">4 : envoi_notification</text></g></g><g transform="translate(5,5) scale(1,1)"><rect fill="#ffffff" stroke="none" x="365" y="338" width="13" height="28"/></g><g transform="translate(5,5) scale(1,1)"><path fill="none" stroke="#000000" d="M 365 338 L 378 338 L 378 366 L 365 366 L 365 338 Z Z" stroke-miterlimit="10"/></g><g transform="translate(5,5) scale(1,1)"><path fill="none" stroke="#000000" d="M 378 352 L 408 352 L 408 372 L 378 372" stroke-miterlimit="10"/></g><g transform="translate(5,5) scale(1,1)"><path fill="#000000" stroke="none" d="M 388.16267485762415 367.790482243984 L 378 372 L 388.16267485762415 376.209517756016"/></g><g transform="translate(5,5) scale(1,1)"><path fill="none" stroke="#000000" d="M 388.16267485762415 367.790482243984 L 378 372 L 388.16267485762415 376.209517756016 L 388.16267485762415 367.790482243984" stroke-miterlimit="10"/></g><g transform="translate(5,5) scale(1,1)"><g><path fill="none" stroke="none"/><text fill="#000000" stroke="none" font-family="Arial" font-size="13px" font-style="normal" font-weight="normal" text-decoration="none" x="404.225830078125" y="388.5">5 : traite_reclamation</text></g></g><g transform="translate(5,5) scale(1,1)"><rect fill="#ffffff" stroke="none" x="365" y="372" width="13" height="124"/></g><g transform="translate(5,5) scale(1,1)"><path fill="none" stroke="#000000" d="M 365 372 L 378 372 L 378 496 L 365 496 L 365 372 Z Z" stroke-miterlimit="10"/></g><g transform="translate(5,5) scale(1,1)"><path fill="none" stroke="#000000" d="M 589 568 L 144 568" stroke-miterlimit="10"/></g><g transform="translate(5,5) scale(1,1)"><path fill="#000000" stroke="none" d="M 154.16267485762415 563.790482243984 L 144 568 L 154.16267485762415 572.209517756016"/></g><g transform="translate(5,5) scale(1,1)"><path fill="none" stroke="#000000" d="M 154.16267485762415 563.790482243984 L 144 568 L 154.16267485762415 572.209517756016 L 154.16267485762415 563.790482243984" stroke-miterlimit="10"/></g><g transform="translate(5,5) scale(1,1)"><g><path fill="none" stroke="none"/><text fill="#000000" stroke="none" font-family="Arial" font-size="13px" font-style="normal" font-weight="normal" text-decoration="none" x="248.5" y="587.5">6 : [anomalies corrigées] envoi_notification</text></g></g><g transform="translate(5,5) scale(1,1)"><rect fill="#ffffff" stroke="none" x="131" y="568" width="13" height="28"/></g><g transform="translate(5,5) scale(1,1)"><path fill="none" stroke="#000000" d="M 131 568 L 144 568 L 144 596 L 131 596 L 131 568 Z Z" stroke-miterlimit="10"/></g><g transform="translate(5,5) scale(1,1)"><path fill="none" stroke="#000000" d="M 48 520 L 655 520 L 655 607 L 48 607 L 48 520" stroke-miterlimit="10"/></g><g transform="translate(5,5) scale(1,1)"><path fill="#ffffff" stroke="none" d="M 48 520 L 48 542 L 194.0634765625 542 L 205.0634765625 531 L 205.0634765625 520 L 48 520"/></g><g transform="translate(5,5) scale(1,1)"><path fill="none" stroke="#000000" d="M 48 520 L 48 542 L 194.0634765625 542 L 205.0634765625 531 L 205.0634765625 520 L 48 520 L 48 520" stroke-miterlimit="10"/></g><g transform="translate(5,5) scale(1,1)"><g><path fill="none" stroke="none"/><text fill="#000000" stroke="none" font-family="Arial" font-size="13px" font-style="normal" font-weight="normal" text-decoration="none" x="72.72998046875" y="537.5">anomalies corrigées</text></g></g><g transform="translate(5,5) scale(1,1)"><g><path fill="none" stroke="none"/><text fill="#000000" stroke="none" font-family="Arial" font-size="13px" font-style="normal" font-weight="bold" text-decoration="none" x="53" y="537.5">alt</text></g></g></g></svg>