<svg version="1.1" xmlns="http://www.w3.org/2000/svg" xmlns:xlink="http://www.w3.org/1999/xlink" width="386.55712890625" height="409"><defs/><g><g transform="translate(-30,-50) scale(1,1)"><path fill="#C0C0C0" stroke="none" d="M 47 88.5 C 47 83.2532944 51.2532944 79 56.5 79 C 61.7467056 79 66 83.2532944 66 88.5 C 66 93.7467056 61.7467056 98 56.5 98 C 51.2532944 98 47 93.7467056 47 88.5 Z" opacity="0.2"/></g><g transform="translate(-30,-50) scale(1,1)"><path fill="#000000" stroke="none" d="M 40 81.5 C 40 76.2532944 44.2532944 72 49.5 72 C 54.7467056 72 59 76.2532944 59 81.5 C 59 86.7467056 54.7467056 91 49.5 91 C 44.2532944 91 40 86.7467056 40 81.5 Z"/></g><g transform="translate(-30,-50) scale(1,1)"><path fill="#C0C0C0" stroke="none" d="M 201 71 L 289.7216796875 71 Q 299.7216796875 71 299.7216796875 81 L 299.7216796875 100 Q 299.7216796875 110 289.7216796875 110 L 201 110 Q 191 110 191 100 L 191 81 Q 191 71 201 71 Z" opacity="0.2"/></g><g transform="translate(-30,-50) scale(1,1)"><path fill="#ffffff" stroke="none" d="M 194 64 L 282.7216796875 64 Q 292.7216796875 64 292.7216796875 74 L 292.7216796875 93 Q 292.7216796875 103 282.7216796875 103 L 194 103 Q 184 103 184 93 L 184 74 Q 184 64 194 64 Z"/></g><g transform="translate(-30,-50) scale(1,1)"><path fill="none" stroke="#000000" d="M 194 64 L 282.7216796875 64 Q 292.7216796875 64 292.7216796875 74 L 292.7216796875 93 Q 292.7216796875 103 282.7216796875 103 L 194 103 Q 184 103 184 93 L 184 74 Q 184 64 194 64 Z" stroke-miterlimit="10"/></g><g transform="translate(-30,-50) scale(1,1)"><g><path fill="none" stroke="none"/><text fill="#000000" stroke="none" font-family="Arial" font-size="13px" font-style="normal" font-weight="bold" text-decoration="none" x="191.029541015625" y="83.5">Evénement créé</text></g></g><g transform="translate(-30,-50) scale(1,1)"><path fill="none" stroke="#000000" d="M 60 81 L 183 82" stroke-miterlimit="10"/></g><g transform="translate(-30,-50) scale(1,1)"><path fill="none" stroke="#000000" d="M 172.80343840250967 86.1267579997603 L 183 82 L 172.87188358368192 77.7080007155746" stroke-miterlimit="10"/></g><g transform="translate(-30,-50) scale(1,1)"><g><path fill="none" stroke="none"/><text fill="#000000" stroke="none" font-family="Arial" font-size="13px" font-style="normal" font-weight="normal" text-decoration="none" x="73.5" y="72.5">creerEvénement</text></g></g><g transform="translate(-30,-50) scale(1,1)"><path fill="#C0C0C0" stroke="none" d="M 185 191 L 298.9853515625 191 Q 308.9853515625 191 308.9853515625 201 L 308.9853515625 220 Q 308.9853515625 230 298.9853515625 230 L 185 230 Q 175 230 175 220 L 175 201 Q 175 191 185 191 Z" opacity="0.2"/></g><g transform="translate(-30,-50) scale(1,1)"><path fill="#ffffff" stroke="none" d="M 178 184 L 291.9853515625 184 Q 301.9853515625 184 301.9853515625 194 L 301.9853515625 213 Q 301.9853515625 223 291.9853515625 223 L 178 223 Q 168 223 168 213 L 168 194 Q 168 184 178 184 Z"/></g><g transform="translate(-30,-50) scale(1,1)"><path fill="none" stroke="#000000" d="M 178 184 L 291.9853515625 184 Q 301.9853515625 184 301.9853515625 194 L 301.9853515625 213 Q 301.9853515625 223 291.9853515625 223 L 178 223 Q 168 223 168 213 L 168 194 Q 168 184 178 184 Z" stroke-miterlimit="10"/></g><g transform="translate(-30,-50) scale(1,1)"><g><path fill="none" stroke="none"/><text fill="#000000" stroke="none" font-family="Arial" font-size="13px" font-style="normal" font-weight="bold" text-decoration="none" x="176.81640625" y="203.5">événement consulté</text></g></g><g transform="translate(-30,-50) scale(1,1)"><path fill="none" stroke="#000000" d="M 237 104 L 235 183" stroke-miterlimit="10"/></g><g transform="translate(-30,-50) scale(1,1)"><path fill="none" stroke="#000000" d="M 231.04903108224912 172.73404438880792 L 235 183 L 239.46536991403508 172.94711625796705" stroke-miterlimit="10"/></g><g transform="translate(-30,-50) scale(1,1)"><g><path fill="none" stroke="none"/><text fill="#000000" stroke="none" font-family="Arial" font-size="13px" font-style="normal" font-weight="normal" text-decoration="none" x="245.5" y="149.5">accederEvenement</text></g></g><g transform="translate(-30,-50) scale(1,1)"><path fill="#C0C0C0" stroke="none" d="M 81 319 L 187.75537109375 319 Q 197.75537109375 319 197.75537109375 329 L 197.75537109375 348 Q 197.75537109375 358 187.75537109375 358 L 81 358 Q 71 358 71 348 L 71 329 Q 71 319 81 319 Z" opacity="0.2"/></g><g transform="translate(-30,-50) scale(1,1)"><path fill="#ffffff" stroke="none" d="M 74 312 L 180.75537109375 312 Q 190.75537109375 312 190.75537109375 322 L 190.75537109375 341 Q 190.75537109375 351 180.75537109375 351 L 74 351 Q 64 351 64 341 L 64 322 Q 64 312 74 312 Z"/></g><g transform="translate(-30,-50) scale(1,1)"><path fill="none" stroke="#000000" d="M 74 312 L 180.75537109375 312 Q 190.75537109375 312 190.75537109375 322 L 190.75537109375 341 Q 190.75537109375 351 180.75537109375 351 L 74 351 Q 64 351 64 341 L 64 322 Q 64 312 74 312 Z" stroke-miterlimit="10"/></g><g transform="translate(-30,-50) scale(1,1)"><g><path fill="none" stroke="none"/><text fill="#000000" stroke="none" font-family="Arial" font-size="13px" font-style="normal" font-weight="bold" text-decoration="none" x="72.457763671875" y="331.5">événement modifié</text></g></g><g transform="translate(-30,-50) scale(1,1)"><path fill="#C0C0C0" stroke="none" d="M 265 319 L 384.04443359375 319 Q 394.04443359375 319 394.04443359375 329 L 394.04443359375 348 Q 394.04443359375 358 384.04443359375 358 L 265 358 Q 255 358 255 348 L 255 329 Q 255 319 265 319 Z" opacity="0.2"/></g><g transform="translate(-30,-50) scale(1,1)"><path fill="#ffffff" stroke="none" d="M 258 312 L 377.04443359375 312 Q 387.04443359375 312 387.04443359375 322 L 387.04443359375 341 Q 387.04443359375 351 377.04443359375 351 L 258 351 Q 248 351 248 341 L 248 322 Q 248 312 258 312 Z"/></g><g transform="translate(-30,-50) scale(1,1)"><path fill="none" stroke="#000000" d="M 258 312 L 377.04443359375 312 Q 387.04443359375 312 387.04443359375 322 L 387.04443359375 341 Q 387.04443359375 351 377.04443359375 351 L 258 351 Q 248 351 248 341 L 248 322 Q 248 312 258 312 Z" stroke-miterlimit="10"/></g><g transform="translate(-30,-50) scale(1,1)"><g><path fill="none" stroke="none"/><text fill="#000000" stroke="none" font-family="Arial" font-size="13px" font-style="normal" font-weight="bold" text-decoration="none" x="256.82275390625" y="331.5">événement supprimé</text></g></g><g transform="translate(-30,-50) scale(1,1)"><path fill="none" stroke="#000000" d="M 216 224 L 144 311" stroke-miterlimit="10"/></g><g transform="translate(-30,-50) scale(1,1)"><path fill="none" stroke="#000000" d="M 147.23640480354027 300.48688038936007 L 144 311 L 153.7223819513568 305.8545856151393" stroke-miterlimit="10"/></g><g transform="translate(-30,-50) scale(1,1)"><g><path fill="none" stroke="none"/><text fill="#000000" stroke="none" font-family="Arial" font-size="13px" font-style="normal" font-weight="normal" text-decoration="none" x="66.5" y="271.5">modifierEvénement</text></g></g><g transform="translate(-30,-50) scale(1,1)"><path fill="none" stroke="#000000" d="M 248 224 L 304 311" stroke-miterlimit="10"/></g><g transform="translate(-30,-50) scale(1,1)"><path fill="none" stroke="#000000" d="M 294.95985977140447 304.73295407330306 L 304 311 L 302.03912621425775 300.1761848687079" stroke-miterlimit="10"/></g><g transform="translate(-30,-50) scale(1,1)"><g><path fill="none" stroke="none"/><text fill="#000000" stroke="none" font-family="Arial" font-size="13px" font-style="normal" font-weight="normal" text-decoration="none" x="283.5" y="270.5">supprimerEvénement</text></g></g><g transform="translate(-30,-50) scale(1,1)"><path fill="#C0C0C0" stroke="none" d="M 215 443.5 C 215 436.59644 220.59644 431 227.5 431 C 234.40356 431 240 436.59644 240 443.5 C 240 450.40356 234.40356 456 227.5 456 C 220.59644 456 215 450.40356 215 443.5 Z" opacity="0.2"/></g><g transform="translate(-30,-50) scale(1,1)"><path fill="none" stroke="#000000" d="M 208 436.5 C 208 429.59644 213.59644 424 220.5 424 C 227.40356 424 233 429.59644 233 436.5 C 233 443.40356 227.40356 449 220.5 449 C 213.59644 449 208 443.40356 208 436.5 Z" stroke-miterlimit="10"/></g><g transform="translate(-30,-50) scale(1,1)"><path fill="#000000" stroke="none" d="M 213 436.5 C 213 432.357864 216.357864 429 220.5 429 C 224.642136 429 228 432.357864 228 436.5 C 228 440.642136 224.642136 444 220.5 444 C 216.357864 444 213 440.642136 213 436.5 Z"/></g><g transform="translate(-30,-50) scale(1,1)"><path fill="none" stroke="#000000" d="M 146 352 L 208 423" stroke-miterlimit="10"/></g><g transform="translate(-30,-50) scale(1,1)"><path fill="none" stroke="#000000" d="M 198.14471819931018 418.113956546551 L 208 423 L 204.48621786733378 412.57630894912194" stroke-miterlimit="10"/></g><g transform="translate(-30,-50) scale(1,1)"><path fill="none" stroke="#000000" d="M 298 352 L 232 423" stroke-miterlimit="10"/></g><g transform="translate(-30,-50) scale(1,1)"><path fill="none" stroke="#000000" d="M 235.83606327726662 412.6905568272187 L 232 423 L 242.0023835341469 418.42262917868493" stroke-miterlimit="10"/></g></g></svg>