<svg version="1.1" xmlns="http://www.w3.org/2000/svg" xmlns:xlink="http://www.w3.org/1999/xlink" width="1216.3408203125" height="837"><defs/><g><g transform="translate(-6,2) scale(1,1)"><rect fill="#C0C0C0" stroke="none" x="23" y="423" width="193.12646484375" height="145" opacity="0.2"/></g><g transform="translate(-6,2) scale(1,1)"><rect fill="#ffffff" stroke="none" x="16" y="416" width="193.12646484375" height="145"/></g><g transform="translate(-6,2) scale(1,1)"><path fill="none" stroke="#000000" d="M 16 416 L 209.12646484375 416 L 209.12646484375 561 L 16 561 L 16 416 Z Z" stroke-miterlimit="10"/></g><g transform="translate(-6,2) scale(1,1)"><path fill="none" stroke="#000000" d="M 16 441 L 209.12646484375 441" stroke-miterlimit="10"/></g><g transform="translate(-6,2) scale(1,1)"><path fill="none" stroke="#000000" d="M 16 509 L 209.12646484375 509" stroke-miterlimit="10"/></g><g transform="translate(-6,2) scale(1,1)"><g><path fill="none" stroke="none"/><text fill="#000000" stroke="none" font-family="Arial" font-size="13px" font-style="normal" font-weight="bold" text-decoration="none" x="96.189453125" y="435.5">Trajet</text></g></g><g transform="translate(-6,2) scale(1,1)"><g><path fill="none" stroke="none"/><text fill="#000000" stroke="none" font-family="Arial" font-size="13px" font-style="normal" font-weight="normal" text-decoration="none" x="21" y="458.5">-id_Tr: String {id, unique}</text></g></g><g transform="translate(-6,2) scale(1,1)"><g><path fill="none" stroke="none"/><text fill="#000000" stroke="none" font-family="Arial" font-size="13px" font-style="normal" font-weight="normal" text-decoration="none" x="21" y="473.5">-départ: Adresse</text></g></g><g transform="translate(-6,2) scale(1,1)"><g><path fill="none" stroke="none"/><text fill="#000000" stroke="none" font-family="Arial" font-size="13px" font-style="normal" font-weight="normal" text-decoration="none" x="21" y="488.5">-déstination: Adresse</text></g></g><g transform="translate(-6,2) scale(1,1)"><g><path fill="none" stroke="none"/><text fill="#000000" stroke="none" font-family="Arial" font-size="13px" font-style="normal" font-weight="normal" text-decoration="none" x="21" y="503.5">-horaire: dateTime</text></g></g><g transform="translate(-6,2) scale(1,1)"><g><path fill="none" stroke="none"/><text fill="#000000" stroke="none" font-family="Arial" font-size="13px" font-style="normal" font-weight="normal" text-decoration="none" x="21" y="526.5">+afficherTrajet()</text></g></g><g transform="translate(-6,2) scale(1,1)"><g><path fill="none" stroke="none"/><text fill="#000000" stroke="none" font-family="Arial" font-size="13px" font-style="normal" font-weight="normal" text-decoration="none" x="21" y="541.5">+s'informer_surTrajet()</text></g></g><g transform="translate(-6,2) scale(1,1)"><g><path fill="none" stroke="none"/><text fill="#000000" stroke="none" font-family="Arial" font-size="13px" font-style="normal" font-weight="normal" text-decoration="none" x="21" y="556.5">+consulterLesTrajetsProposés()</text></g></g><g transform="translate(-6,2) scale(1,1)"><rect fill="#C0C0C0" stroke="none" x="263" y="63" width="201.4736328125" height="145" opacity="0.2"/></g><g transform="translate(-6,2) scale(1,1)"><rect fill="#ffffff" stroke="none" x="256" y="56" width="201.4736328125" height="145"/></g><g transform="translate(-6,2) scale(1,1)"><path fill="none" stroke="#000000" d="M 256 56 L 457.4736328125 56 L 457.4736328125 201 L 256 201 L 256 56 Z Z" stroke-miterlimit="10"/></g><g transform="translate(-6,2) scale(1,1)"><path fill="none" stroke="#000000" d="M 256 81 L 457.4736328125 81" stroke-miterlimit="10"/></g><g transform="translate(-6,2) scale(1,1)"><path fill="none" stroke="#000000" d="M 256 134 L 457.4736328125 134" stroke-miterlimit="10"/></g><g transform="translate(-6,2) scale(1,1)"><g><path fill="none" stroke="none"/><text fill="#000000" stroke="none" font-family="Arial" font-size="13px" font-style="normal" font-weight="bold" text-decoration="none" x="340.229736328125" y="75.5">Video</text></g></g><g transform="translate(-6,2) scale(1,1)"><g><path fill="none" stroke="none"/><text fill="#000000" stroke="none" font-family="Arial" font-size="13px" font-style="normal" font-weight="normal" text-decoration="none" x="261" y="98.5">-id_V: String {id, unique}</text></g></g><g transform="translate(-6,2) scale(1,1)"><g><path fill="none" stroke="none"/><text fill="#000000" stroke="none" font-family="Arial" font-size="13px" font-style="normal" font-weight="normal" text-decoration="none" x="261" y="113.5">-description_V: String</text></g></g><g transform="translate(-6,2) scale(1,1)"><g><path fill="none" stroke="none"/><text fill="#000000" stroke="none" font-family="Arial" font-size="13px" font-style="normal" font-weight="normal" text-decoration="none" x="261" y="128.5">-titre: String</text></g></g><g transform="translate(-6,2) scale(1,1)"><g><path fill="none" stroke="none"/><text fill="#000000" stroke="none" font-family="Arial" font-size="13px" font-style="normal" font-weight="normal" text-decoration="none" x="261" y="151.5">+modifier_Video()</text></g></g><g transform="translate(-6,2) scale(1,1)"><g><path fill="none" stroke="none"/><text fill="#000000" stroke="none" font-family="Arial" font-size="13px" font-style="normal" font-weight="normal" text-decoration="none" x="261" y="166.5">+telecharger_Video()</text></g></g><g transform="translate(-6,2) scale(1,1)"><g><path fill="none" stroke="none"/><text fill="#000000" stroke="none" font-family="Arial" font-size="13px" font-style="normal" font-weight="normal" text-decoration="none" x="261" y="181.5">+partager_Video()</text></g></g><g transform="translate(-6,2) scale(1,1)"><g><path fill="none" stroke="none"/><text fill="#000000" stroke="none" font-family="Arial" font-size="13px" font-style="normal" font-weight="normal" text-decoration="none" x="261" y="196.5">+get_Video()</text></g></g><g transform="translate(-6,2) scale(1,1)"><rect fill="#C0C0C0" stroke="none" x="1055" y="135" width="163.654296875" height="100" opacity="0.2"/></g><g transform="translate(-6,2) scale(1,1)"><rect fill="#ffffff" stroke="none" x="1048" y="128" width="163.654296875" height="100"/></g><g transform="translate(-6,2) scale(1,1)"><path fill="none" stroke="#000000" d="M 1048 128 L 1211.654296875 128 L 1211.654296875 228 L 1048 228 L 1048 128 Z Z" stroke-miterlimit="10"/></g><g transform="translate(-6,2) scale(1,1)"><path fill="none" stroke="#000000" d="M 1048 153 L 1211.654296875 153" stroke-miterlimit="10"/></g><g transform="translate(-6,2) scale(1,1)"><path fill="none" stroke="#000000" d="M 1048 206 L 1211.654296875 206" stroke-miterlimit="10"/></g><g transform="translate(-6,2) scale(1,1)"><g><path fill="none" stroke="none"/><text fill="#000000" stroke="none" font-family="Arial" font-size="13px" font-style="normal" font-weight="bold" text-decoration="none" x="1093.699462890625" y="147.5">Reclamation</text></g></g><g transform="translate(-6,2) scale(1,1)"><g><path fill="none" stroke="none"/><text fill="#000000" stroke="none" font-family="Arial" font-size="13px" font-style="normal" font-weight="normal" text-decoration="none" x="1053" y="170.5">-id_Rec: String {id, unique}</text></g></g><g transform="translate(-6,2) scale(1,1)"><g><path fill="none" stroke="none"/><text fill="#000000" stroke="none" font-family="Arial" font-size="13px" font-style="normal" font-weight="normal" text-decoration="none" x="1053" y="185.5">-date_Rec: Date</text></g></g><g transform="translate(-6,2) scale(1,1)"><g><path fill="none" stroke="none"/><text fill="#000000" stroke="none" font-family="Arial" font-size="13px" font-style="normal" font-weight="normal" text-decoration="none" x="1053" y="200.5">-description_Rec: String</text></g></g><g transform="translate(-6,2) scale(1,1)"><g><path fill="none" stroke="none"/><text fill="#000000" stroke="none" font-family="Arial" font-size="13px" font-style="normal" font-weight="normal" text-decoration="none" x="1053" y="223.5">+creerReclamation()</text></g></g><g transform="translate(-6,2) scale(1,1)"><rect fill="#C0C0C0" stroke="none" x="903" y="495" width="155.70703125" height="175" opacity="0.2"/></g><g transform="translate(-6,2) scale(1,1)"><rect fill="#ffffff" stroke="none" x="896" y="488" width="155.70703125" height="175"/></g><g transform="translate(-6,2) scale(1,1)"><path fill="none" stroke="#000000" d="M 896 488 L 1051.70703125 488 L 1051.70703125 663 L 896 663 L 896 488 Z Z" stroke-miterlimit="10"/></g><g transform="translate(-6,2) scale(1,1)"><path fill="none" stroke="#000000" d="M 896 513 L 1051.70703125 513" stroke-miterlimit="10"/></g><g transform="translate(-6,2) scale(1,1)"><path fill="none" stroke="#000000" d="M 896 611 L 1051.70703125 611" stroke-miterlimit="10"/></g><g transform="translate(-6,2) scale(1,1)"><g><path fill="none" stroke="none"/><text fill="#000000" stroke="none" font-family="Arial" font-size="13px" font-style="normal" font-weight="bold" text-decoration="none" x="940.97265625" y="507.5">Evenement</text></g></g><g transform="translate(-6,2) scale(1,1)"><g><path fill="none" stroke="none"/><text fill="#000000" stroke="none" font-family="Arial" font-size="13px" font-style="normal" font-weight="normal" text-decoration="none" x="901" y="530.5">-id_Ev: String {id, unique}</text></g></g><g transform="translate(-6,2) scale(1,1)"><g><path fill="none" stroke="none"/><text fill="#000000" stroke="none" font-family="Arial" font-size="13px" font-style="normal" font-weight="normal" text-decoration="none" x="901" y="545.5">-date_Ev: Date</text></g></g><g transform="translate(-6,2) scale(1,1)"><g><path fill="none" stroke="none"/><text fill="#000000" stroke="none" font-family="Arial" font-size="13px" font-style="normal" font-weight="normal" text-decoration="none" x="901" y="560.5">-description_Ev: String</text></g></g><g transform="translate(-6,2) scale(1,1)"><g><path fill="none" stroke="none"/><text fill="#000000" stroke="none" font-family="Arial" font-size="13px" font-style="normal" font-weight="normal" text-decoration="none" x="901" y="575.5">-localisation: Adresse</text></g></g><g transform="translate(-6,2) scale(1,1)"><g><path fill="none" stroke="none"/><text fill="#000000" stroke="none" font-family="Arial" font-size="13px" font-style="normal" font-weight="normal" text-decoration="none" x="901" y="590.5">-isPrivate: Boolean</text></g></g><g transform="translate(-6,2) scale(1,1)"><g><path fill="none" stroke="none"/><text fill="#000000" stroke="none" font-family="Arial" font-size="13px" font-style="normal" font-weight="normal" text-decoration="none" x="901" y="605.5">-nom: String</text></g></g><g transform="translate(-6,2) scale(1,1)"><g><path fill="none" stroke="none"/><text fill="#000000" stroke="none" font-family="Arial" font-size="13px" font-style="normal" font-weight="normal" text-decoration="none" x="901" y="628.5">+creerEvénement()</text></g></g><g transform="translate(-6,2) scale(1,1)"><g><path fill="none" stroke="none"/><text fill="#000000" stroke="none" font-family="Arial" font-size="13px" font-style="normal" font-weight="normal" text-decoration="none" x="901" y="643.5">+modifierEvénement()</text></g></g><g transform="translate(-6,2) scale(1,1)"><g><path fill="none" stroke="none"/><text fill="#000000" stroke="none" font-family="Arial" font-size="13px" font-style="normal" font-weight="normal" text-decoration="none" x="901" y="658.5">+supprimerEvénement()</text></g></g><g transform="translate(-6,2) scale(1,1)"><rect fill="#C0C0C0" stroke="none" x="463" y="687" width="280.53369140625" height="145" opacity="0.2"/></g><g transform="translate(-6,2) scale(1,1)"><rect fill="#ffffff" stroke="none" x="456" y="680" width="280.53369140625" height="145"/></g><g transform="translate(-6,2) scale(1,1)"><path fill="none" stroke="#000000" d="M 456 680 L 736.53369140625 680 L 736.53369140625 825 L 456 825 L 456 680 Z Z" stroke-miterlimit="10"/></g><g transform="translate(-6,2) scale(1,1)"><path fill="none" stroke="#000000" d="M 456 705 L 736.53369140625 705" stroke-miterlimit="10"/></g><g transform="translate(-6,2) scale(1,1)"><path fill="none" stroke="#000000" d="M 456 773 L 736.53369140625 773" stroke-miterlimit="10"/></g><g transform="translate(-6,2) scale(1,1)"><g><path fill="none" stroke="none"/><text fill="#000000" stroke="none" font-family="Arial" font-size="13px" font-style="normal" font-weight="bold" text-decoration="none" x="564.46826171875" y="699.5">Dashboard</text></g></g><g transform="translate(-6,2) scale(1,1)"><g><path fill="none" stroke="none"/><text fill="#000000" stroke="none" font-family="Arial" font-size="13px" font-style="normal" font-weight="normal" text-decoration="none" x="461" y="722.5">-id_Dh: String {id, unique}</text></g></g><g transform="translate(-6,2) scale(1,1)"><g><path fill="none" stroke="none"/><text fill="#000000" stroke="none" font-family="Arial" font-size="13px" font-style="normal" font-weight="normal" text-decoration="none" x="461" y="737.5">-nombreVisiteur: int</text></g></g><g transform="translate(-6,2) scale(1,1)"><g><path fill="none" stroke="none"/><text fill="#000000" stroke="none" font-family="Arial" font-size="13px" font-style="normal" font-weight="normal" text-decoration="none" x="461" y="752.5">-horaire: dateTime</text></g></g><g transform="translate(-6,2) scale(1,1)"><g><path fill="none" stroke="none"/><text fill="#000000" stroke="none" font-family="Arial" font-size="13px" font-style="normal" font-weight="normal" text-decoration="none" x="461" y="767.5">-localisation: Adresse</text></g></g><g transform="translate(-6,2) scale(1,1)"><g><path fill="none" stroke="none"/><text fill="#000000" stroke="none" font-family="Arial" font-size="13px" font-style="normal" font-weight="normal" text-decoration="none" x="461" y="790.5">+afficherDashboard()</text></g></g><g transform="translate(-6,2) scale(1,1)"><g><path fill="none" stroke="none"/><text fill="#000000" stroke="none" font-family="Arial" font-size="13px" font-style="normal" font-weight="normal" text-decoration="none" x="461" y="805.5">+filtrerDashboardParHoraire(DateTime horaire)</text></g></g><g transform="translate(-6,2) scale(1,1)"><g><path fill="none" stroke="none"/><text fill="#000000" stroke="none" font-family="Arial" font-size="13px" font-style="normal" font-weight="normal" text-decoration="none" x="461" y="820.5">+filtrerDashboardParPlace(String Place)</text></g></g><g transform="translate(-6,2) scale(1,1)"><rect fill="#C0C0C0" stroke="none" x="239" y="271" width="228.2861328125" height="70" opacity="0.2"/></g><g transform="translate(-6,2) scale(1,1)"><rect fill="#ffffff" stroke="none" x="232" y="264" width="228.2861328125" height="70"/></g><g transform="translate(-6,2) scale(1,1)"><path fill="none" stroke="#000000" d="M 232 264 L 460.2861328125 264 L 460.2861328125 334 L 232 334 L 232 264 Z Z" stroke-miterlimit="10"/></g><g transform="translate(-6,2) scale(1,1)"><path fill="none" stroke="#000000" d="M 232 289 L 460.2861328125 289" stroke-miterlimit="10"/></g><g transform="translate(-6,2) scale(1,1)"><path fill="none" stroke="#000000" d="M 232 312 L 460.2861328125 312" stroke-miterlimit="10"/></g><g transform="translate(-6,2) scale(1,1)"><g><path fill="none" stroke="none"/><text fill="#000000" stroke="none" font-family="Arial" font-size="13px" font-style="normal" font-weight="bold" text-decoration="none" x="325.554443359375" y="283.5">visiteur</text></g></g><g transform="translate(-6,2) scale(1,1)"><g><path fill="none" stroke="none"/><text fill="#000000" stroke="none" font-family="Arial" font-size="13px" font-style="normal" font-weight="normal" text-decoration="none" x="237" y="306.5">-sexe: String</text></g></g><g transform="translate(-6,2) scale(1,1)"><g><path fill="none" stroke="none"/><text fill="#000000" stroke="none" font-family="Arial" font-size="13px" font-style="normal" font-weight="normal" text-decoration="none" x="237" y="329.5">+exprimerMotivationPourEvenement()</text></g></g><g transform="translate(-6,2) scale(1,1)"><rect fill="#C0C0C0" stroke="none" x="927" y="295" width="156.04345703125" height="72" opacity="0.2"/></g><g transform="translate(-6,2) scale(1,1)"><rect fill="#ffffff" stroke="none" x="920" y="288" width="156.04345703125" height="72"/></g><g transform="translate(-6,2) scale(1,1)"><path fill="none" stroke="#000000" d="M 920 288 L 1076.04345703125 288 L 1076.04345703125 360 L 920 360 L 920 288 Z Z" stroke-miterlimit="10"/></g><g transform="translate(-6,2) scale(1,1)"><path fill="none" stroke="#000000" d="M 920 313 L 1076.04345703125 313" stroke-miterlimit="10"/></g><g transform="translate(-6,2) scale(1,1)"><path fill="none" stroke="#000000" d="M 920 351 L 1076.04345703125 351" stroke-miterlimit="10"/></g><g transform="translate(-6,2) scale(1,1)"><g><path fill="none" stroke="none"/><text fill="#000000" stroke="none" font-family="Arial" font-size="13px" font-style="normal" font-weight="bold" text-decoration="none" x="929.739990234375" y="307.5">Secteur Public &amp; Privee</text></g></g><g transform="translate(-6,2) scale(1,1)"><g><path fill="none" stroke="none"/><text fill="#000000" stroke="none" font-family="Arial" font-size="13px" font-style="normal" font-weight="normal" text-decoration="none" x="925" y="330.5">-domaineActivites: String</text></g></g><g transform="translate(-6,2) scale(1,1)"><g><path fill="none" stroke="none"/><text fill="#000000" stroke="none" font-family="Arial" font-size="13px" font-style="normal" font-weight="normal" text-decoration="none" x="925" y="345.5">-description_SPP: String</text></g></g><g transform="translate(-6,2) scale(1,1)"><rect fill="#C0C0C0" stroke="none" x="599" y="71" width="210.3857421875" height="203" opacity="0.2"/></g><g transform="translate(-6,2) scale(1,1)"><rect fill="#ffffff" stroke="none" x="592" y="64" width="210.3857421875" height="203"/></g><g transform="translate(-6,2) scale(1,1)"><path fill="none" stroke="#000000" d="M 592 64 L 802.3857421875 64 L 802.3857421875 267 L 592 267 L 592 64 Z Z" stroke-miterlimit="10"/></g><g transform="translate(-6,2) scale(1,1)"><path fill="none" stroke="#000000" d="M 592 102 L 802.3857421875 102" stroke-miterlimit="10"/></g><g transform="translate(-6,2) scale(1,1)"><path fill="none" stroke="#000000" d="M 592 185 L 802.3857421875 185" stroke-miterlimit="10"/></g><g transform="translate(-6,2) scale(1,1)"><g><path fill="none" stroke="none"/><text fill="#000000" stroke="none" font-family="Arial" font-size="13px" font-style="normal" font-weight="normal" text-decoration="none" x="665.032470703125" y="81.5">«interface»</text></g></g><g transform="translate(-6,2) scale(1,1)"><g><path fill="none" stroke="none"/><text fill="#000000" stroke="none" font-family="Arial" font-size="13px" font-style="normal" font-weight="bold" text-decoration="none" x="668.295166015625" y="96.5">Utilisateur</text></g></g><g transform="translate(-6,2) scale(1,1)"><g><path fill="none" stroke="none"/><text fill="#000000" stroke="none" font-family="Arial" font-size="13px" font-style="normal" font-weight="normal" text-decoration="none" x="597" y="119.5">-id_ut: String {id, unique}</text></g></g><g transform="translate(-6,2) scale(1,1)"><g><path fill="none" stroke="none"/><text fill="#000000" stroke="none" font-family="Arial" font-size="13px" font-style="normal" font-weight="normal" text-decoration="none" x="597" y="134.5">-name: String</text></g></g><g transform="translate(-6,2) scale(1,1)"><g><path fill="none" stroke="none"/><text fill="#000000" stroke="none" font-family="Arial" font-size="13px" font-style="normal" font-weight="normal" text-decoration="none" x="597" y="149.5">-email: String</text></g></g><g transform="translate(-6,2) scale(1,1)"><g><path fill="none" stroke="none"/><text fill="#000000" stroke="none" font-family="Arial" font-size="13px" font-style="normal" font-weight="normal" text-decoration="none" x="597" y="164.5">-résidence: Adresse</text></g></g><g transform="translate(-6,2) scale(1,1)"><g><path fill="none" stroke="none"/><text fill="#000000" stroke="none" font-family="Arial" font-size="13px" font-style="normal" font-weight="normal" text-decoration="none" x="597" y="179.5">-password: String</text></g></g><g transform="translate(-6,2) scale(1,1)"><g><path fill="none" stroke="none"/><text fill="#000000" stroke="none" font-family="Arial" font-size="13px" font-style="normal" font-weight="normal" text-decoration="none" x="597" y="202.5">+seConnecter()</text></g></g><g transform="translate(-6,2) scale(1,1)"><g><path fill="none" stroke="none"/><text fill="#000000" stroke="none" font-family="Arial" font-size="13px" font-style="normal" font-weight="normal" text-decoration="none" x="597" y="217.5">+seDéconnecter()</text></g></g><g transform="translate(-6,2) scale(1,1)"><g><path fill="none" stroke="none"/><text fill="#000000" stroke="none" font-family="Arial" font-size="13px" font-style="normal" font-weight="normal" text-decoration="none" x="597" y="232.5">+creerCompte()</text></g></g><g transform="translate(-6,2) scale(1,1)"><g><path fill="none" stroke="none"/><text fill="#000000" stroke="none" font-family="Arial" font-size="13px" font-style="normal" font-weight="normal" text-decoration="none" x="597" y="247.5">+supprimerCompte()</text></g></g><g transform="translate(-6,2) scale(1,1)"><g><path fill="none" stroke="none"/><text fill="#000000" stroke="none" font-family="Arial" font-size="13px" font-style="normal" font-weight="normal" text-decoration="none" x="597" y="262.5">+modifierCompte()</text></g></g><g transform="translate(-6,2) scale(1,1)"><rect fill="#C0C0C0" stroke="none" x="1079" y="15" width="101.4599609375" height="44" opacity="0.2"/></g><g transform="translate(-6,2) scale(1,1)"><rect fill="#ffffff" stroke="none" x="1072" y="8" width="101.4599609375" height="44"/></g><g transform="translate(-6,2) scale(1,1)"><path fill="none" stroke="#000000" d="M 1072 8 L 1173.4599609375 8 L 1173.4599609375 52 L 1072 52 L 1072 8 Z Z" stroke-miterlimit="10"/></g><g transform="translate(-6,2) scale(1,1)"><path fill="none" stroke="#000000" d="M 1072 33 L 1173.4599609375 33" stroke-miterlimit="10"/></g><g transform="translate(-6,2) scale(1,1)"><path fill="none" stroke="#000000" d="M 1072 43 L 1173.4599609375 43" stroke-miterlimit="10"/></g><g transform="translate(-6,2) scale(1,1)"><g><path fill="none" stroke="none"/><text fill="#000000" stroke="none" font-family="Arial" font-size="13px" font-style="normal" font-weight="bold" text-decoration="none" x="1080.825927734375" y="27.5">Administrateur</text></g></g><g transform="translate(-6,2) scale(1,1)"><path fill="none" stroke="#000000" d="M 803 168 L 1047 176" stroke-miterlimit="10"/></g><g transform="translate(-6,2) scale(1,1)"><path fill="none" stroke="#000000" d="M 1036.7048402250803 179.87423349952948 L 1047 176 L 1036.980725930338 171.45971948917276" stroke-miterlimit="10"/></g><g transform="translate(-6,2) scale(1,1)"><g><path fill="none" stroke="none"/><text fill="#000000" stroke="none" font-family="Arial" font-size="13px" font-style="normal" font-weight="normal" text-decoration="none" x="908.66455078125" y="163.5">+faire</text></g></g><g transform="translate(-6,2) scale(1,1)"><g><path fill="none" stroke="none"/><text fill="#000000" stroke="none" font-family="Arial" font-size="13px" font-style="normal" font-weight="normal" text-decoration="none" x="814.5" y="187.5">0..*</text></g></g><g transform="translate(-6,2) scale(1,1)"><g><path fill="none" stroke="none"/><text fill="#000000" stroke="none" font-family="Arial" font-size="13px" font-style="normal" font-weight="normal" text-decoration="none" x="1014.5" y="193.5">0..*</text></g></g><g transform="translate(-6,2) scale(1,1)"><path fill="none" stroke="#000000" d="M 1123 53 L 1127 127" stroke-miterlimit="10"/></g><g transform="translate(-6,2) scale(1,1)"><path fill="none" stroke="#000000" d="M 1122.248085572943 117.07934935208749 L 1127 127 L 1130.6548484319314 116.62492973808811" stroke-miterlimit="10"/></g><g transform="translate(-6,2) scale(1,1)"><g><path fill="none" stroke="none"/><text fill="#000000" stroke="none" font-family="Arial" font-size="13px" font-style="normal" font-weight="normal" text-decoration="none" x="1120.5" y="95.5">+gérer</text></g></g><g transform="translate(-6,2) scale(1,1)"><g><path fill="none" stroke="none"/><text fill="#000000" stroke="none" font-family="Arial" font-size="13px" font-style="normal" font-weight="normal" text-decoration="none" x="1130.5" y="71.5">1</text></g></g><g transform="translate(-6,2) scale(1,1)"><g><path fill="none" stroke="none"/><text fill="#000000" stroke="none" font-family="Arial" font-size="13px" font-style="normal" font-weight="normal" text-decoration="none" x="1103.5" y="112.5">0..*</text></g></g><g transform="translate(-6,2) scale(1,1)"><path fill="none" stroke="#000000" d="M 348 263 L 352 202" stroke-miterlimit="10"/></g><g transform="translate(-6,2) scale(1,1)"><path fill="none" stroke="#000000" d="M 355.53551977596703 212.41633812401201 L 352 202 L 347.13452668598455 211.8654533312263" stroke-miterlimit="10"/></g><g transform="translate(-6,2) scale(1,1)"><g><path fill="none" stroke="none"/><text fill="#000000" stroke="none" font-family="Arial" font-size="13px" font-style="normal" font-weight="normal" text-decoration="none" x="301.5" y="242.5">+construire</text></g></g><g transform="translate(-6,2) scale(1,1)"><g><path fill="none" stroke="none"/><text fill="#000000" stroke="none" font-family="Arial" font-size="13px" font-style="normal" font-weight="normal" text-decoration="none" x="357.641357421875" y="248.5">1</text></g></g><g transform="translate(-6,2) scale(1,1)"><g><path fill="none" stroke="none"/><text fill="#000000" stroke="none" font-family="Arial" font-size="13px" font-style="normal" font-weight="normal" text-decoration="none" x="353.5" y="230.5">0..*</text></g></g><g transform="translate(-6,2) scale(1,1)"><path fill="none" stroke="#000000" d="M 994 361 L 982 487" stroke-miterlimit="10"/></g><g transform="translate(-6,2) scale(1,1)"><path fill="none" stroke="#000000" d="M 978.7729581140069 476.48400263094146 L 982 487 L 987.1540698498425 477.2822037486401" stroke-miterlimit="10"/></g><g transform="translate(-6,2) scale(1,1)"><g><path fill="none" stroke="none"/><text fill="#000000" stroke="none" font-family="Arial" font-size="13px" font-style="normal" font-weight="normal" text-decoration="none" x="975.641357421875" y="387.5">1</text></g></g><g transform="translate(-6,2) scale(1,1)"><g><path fill="none" stroke="none"/><text fill="#000000" stroke="none" font-family="Arial" font-size="13px" font-style="normal" font-weight="normal" text-decoration="none" x="982.5" y="417.5">+organiser</text></g></g><g transform="translate(-6,2) scale(1,1)"><g><path fill="none" stroke="none"/><text fill="#000000" stroke="none" font-family="Arial" font-size="13px" font-style="normal" font-weight="normal" text-decoration="none" x="961.5" y="470.5">0..*</text></g></g><g transform="translate(-6,2) scale(1,1)"><path fill="none" stroke="#000000" d="M 428 335 L 895 541" stroke-miterlimit="10"/></g><g transform="translate(-6,2) scale(1,1)"><path fill="none" stroke="#000000" d="M 884.0028440427467 540.7498783259125 L 895 541 L 887.4006991807291 533.0469737169911" stroke-miterlimit="10"/></g><g transform="translate(-6,2) scale(1,1)"><g><path fill="none" stroke="none"/><text fill="#000000" stroke="none" font-family="Arial" font-size="13px" font-style="normal" font-weight="normal" text-decoration="none" x="547.5" y="408.5">+s'interesser</text></g></g><g transform="translate(-6,2) scale(1,1)"><g><path fill="none" stroke="none"/><text fill="#000000" stroke="none" font-family="Arial" font-size="13px" font-style="normal" font-weight="normal" text-decoration="none" x="432.5" y="361.5">0..*</text></g></g><g transform="translate(-6,2) scale(1,1)"><g><path fill="none" stroke="none"/><text fill="#000000" stroke="none" font-family="Arial" font-size="13px" font-style="normal" font-weight="normal" text-decoration="none" x="860.5" y="549.5">0..*</text></g></g><g transform="translate(-6,2) scale(1,1)"><path fill="none" stroke="#000000" d="M 231 294 L 112 288 L 112 415" stroke-miterlimit="10"/></g><g transform="translate(-6,2) scale(1,1)"><path fill="none" stroke="#000000" d="M 107.79048224398402 404.83732514237585 L 112 415 L 116.20951775601598 404.83732514237585" stroke-miterlimit="10"/></g><g transform="translate(-6,2) scale(1,1)"><g><path fill="none" stroke="none"/><text fill="#000000" stroke="none" font-family="Arial" font-size="13px" font-style="normal" font-weight="normal" text-decoration="none" x="67.5" y="308.5">+définir</text></g></g><g transform="translate(-6,2) scale(1,1)"><g><path fill="none" stroke="none"/><text fill="#000000" stroke="none" font-family="Arial" font-size="13px" font-style="normal" font-weight="normal" text-decoration="none" x="200.5" y="286.5">0..*</text></g></g><g transform="translate(-6,2) scale(1,1)"><g><path fill="none" stroke="none"/><text fill="#000000" stroke="none" font-family="Arial" font-size="13px" font-style="normal" font-weight="normal" text-decoration="none" x="95.5" y="399.5">1</text></g></g><g transform="translate(-6,2) scale(1,1)"><rect fill="#C0C0C0" stroke="none" x="527" y="511" width="156.43701171875" height="117" opacity="0.2"/></g><g transform="translate(-6,2) scale(1,1)"><rect fill="#ffffff" stroke="none" x="520" y="504" width="156.43701171875" height="117"/></g><g transform="translate(-6,2) scale(1,1)"><path fill="none" stroke="#000000" d="M 520 504 L 676.43701171875 504 L 676.43701171875 621 L 520 621 L 520 504 Z Z" stroke-miterlimit="10"/></g><g transform="translate(-6,2) scale(1,1)"><path fill="none" stroke="#000000" d="M 520 529 L 676.43701171875 529" stroke-miterlimit="10"/></g><g transform="translate(-6,2) scale(1,1)"><path fill="none" stroke="#000000" d="M 520 612 L 676.43701171875 612" stroke-miterlimit="10"/></g><g transform="translate(-6,2) scale(1,1)"><g><path fill="none" stroke="none"/><text fill="#000000" stroke="none" font-family="Arial" font-size="13px" font-style="normal" font-weight="bold" text-decoration="none" x="574.37353515625" y="523.5">Adresse</text></g></g><g transform="translate(-6,2) scale(1,1)"><g><path fill="none" stroke="none"/><text fill="#000000" stroke="none" font-family="Arial" font-size="13px" font-style="normal" font-weight="normal" text-decoration="none" x="525" y="546.5">-id_Ad: String {id, unique}</text></g></g><g transform="translate(-6,2) scale(1,1)"><g><path fill="none" stroke="none"/><text fill="#000000" stroke="none" font-family="Arial" font-size="13px" font-style="normal" font-weight="normal" text-decoration="none" x="525" y="561.5">-numLocal: String</text></g></g><g transform="translate(-6,2) scale(1,1)"><g><path fill="none" stroke="none"/><text fill="#000000" stroke="none" font-family="Arial" font-size="13px" font-style="normal" font-weight="normal" text-decoration="none" x="525" y="576.5">-rue: String</text></g></g><g transform="translate(-6,2) scale(1,1)"><g><path fill="none" stroke="none"/><text fill="#000000" stroke="none" font-family="Arial" font-size="13px" font-style="normal" font-weight="normal" text-decoration="none" x="525" y="591.5">-ville: String</text></g></g><g transform="translate(-6,2) scale(1,1)"><g><path fill="none" stroke="none"/><text fill="#000000" stroke="none" font-family="Arial" font-size="13px" font-style="normal" font-weight="normal" text-decoration="none" x="525" y="606.5">-pays: String</text></g></g><g transform="translate(-6,2) scale(1,1)"><rect fill="#C0C0C0" stroke="none" x="31" y="63" width="154.97705078125" height="85" opacity="0.2"/></g><g transform="translate(-6,2) scale(1,1)"><rect fill="#ffffff" stroke="none" x="24" y="56" width="154.97705078125" height="85"/></g><g transform="translate(-6,2) scale(1,1)"><path fill="none" stroke="#000000" d="M 24 56 L 178.97705078125 56 L 178.97705078125 141 L 24 141 L 24 56 Z Z" stroke-miterlimit="10"/></g><g transform="translate(-6,2) scale(1,1)"><path fill="none" stroke="#000000" d="M 24 81 L 178.97705078125 81" stroke-miterlimit="10"/></g><g transform="translate(-6,2) scale(1,1)"><path fill="none" stroke="#000000" d="M 24 119 L 178.97705078125 119" stroke-miterlimit="10"/></g><g transform="translate(-6,2) scale(1,1)"><g><path fill="none" stroke="none"/><text fill="#000000" stroke="none" font-family="Arial" font-size="13px" font-style="normal" font-weight="bold" text-decoration="none" x="83.423095703125" y="75.5">Image</text></g></g><g transform="translate(-6,2) scale(1,1)"><g><path fill="none" stroke="none"/><text fill="#000000" stroke="none" font-family="Arial" font-size="13px" font-style="normal" font-weight="normal" text-decoration="none" x="29" y="98.5">-id_Im: String {id, unique}</text></g></g><g transform="translate(-6,2) scale(1,1)"><g><path fill="none" stroke="none"/><text fill="#000000" stroke="none" font-family="Arial" font-size="13px" font-style="normal" font-weight="normal" text-decoration="none" x="29" y="113.5">-lienImage: String</text></g></g><g transform="translate(-6,2) scale(1,1)"><g><path fill="none" stroke="none"/><text fill="#000000" stroke="none" font-family="Arial" font-size="13px" font-style="normal" font-weight="normal" text-decoration="none" x="29" y="136.5">+prendreImage()</text></g></g><g transform="translate(-6,2) scale(1,1)"><path fill="none" stroke="#000000" d="M 180 107 L 255 116" stroke-miterlimit="10"/></g><g transform="translate(-6,2) scale(1,1)"><path fill="#000000" stroke="none" d="M 244.4081715950539 118.9686985431627 L 255 116 L 245.41125943852933 110.60963318086728 L 233.15670955328773 113.37880514639453"/></g><g transform="translate(-6,2) scale(1,1)"><path fill="none" stroke="#000000" d="M 244.4081715950539 118.9686985431627 L 255 116 L 245.41125943852933 110.60963318086728 L 233.15670955328773 113.37880514639453 L 244.4081715950539 118.9686985431627" stroke-miterlimit="10"/></g><g transform="translate(-6,2) scale(1,1)"><g><path fill="none" stroke="none"/><text fill="#000000" stroke="none" font-family="Arial" font-size="13px" font-style="normal" font-weight="normal" text-decoration="none" x="190.5" y="127.5">1..*</text></g></g><g transform="translate(-6,2) scale(1,1)"><path fill="none" stroke="#000000" d="M 346 335 L 344 752 L 455 752" stroke-miterlimit="10"/></g><g transform="translate(-6,2) scale(1,1)"><path fill="none" stroke="#000000" d="M 444.83732514237585 756.209517756016 L 455 752 L 444.83732514237585 747.790482243984" stroke-miterlimit="10"/></g><g transform="translate(-6,2) scale(1,1)"><g><path fill="none" stroke="none"/><text fill="#000000" stroke="none" font-family="Arial" font-size="13px" font-style="normal" font-weight="normal" text-decoration="none" x="305.5" y="750.5">+consulter</text></g></g><g transform="translate(-6,2) scale(1,1)"><g><path fill="none" stroke="none"/><text fill="#000000" stroke="none" font-family="Arial" font-size="13px" font-style="normal" font-weight="normal" text-decoration="none" x="323.5" y="362.5">0..*</text></g></g><g transform="translate(-6,2) scale(1,1)"><g><path fill="none" stroke="none"/><text fill="#000000" stroke="none" font-family="Arial" font-size="13px" font-style="normal" font-weight="normal" text-decoration="none" x="429.5" y="770.5">1</text></g></g><g transform="translate(-6,2) scale(1,1)"><path fill="none" stroke="#000000" d="M 1077 322 L 1176 320 L 1176 744 L 738 750" stroke-miterlimit="10"/></g><g transform="translate(-6,2) scale(1,1)"><path fill="none" stroke="#000000" d="M 748.104062249193 745.6516754876812 L 738 750 L 748.2193806833957 754.0699211844751" stroke-miterlimit="10"/></g><g transform="translate(-6,2) scale(1,1)"><g><path fill="none" stroke="none"/><text fill="#000000" stroke="none" font-family="Arial" font-size="13px" font-style="normal" font-weight="normal" text-decoration="none" x="1152.5" y="413.5">+consulter</text></g></g><g transform="translate(-6,2) scale(1,1)"><g><path fill="none" stroke="none"/><text fill="#000000" stroke="none" font-family="Arial" font-size="13px" font-style="normal" font-weight="normal" text-decoration="none" x="1088.5" y="340.5">0..*</text></g></g><g transform="translate(-6,2) scale(1,1)"><g><path fill="none" stroke="none"/><text fill="#000000" stroke="none" font-family="Arial" font-size="13px" font-style="normal" font-weight="normal" text-decoration="none" x="755.5" y="743.5">1</text></g></g><g transform="translate(-6,2) scale(1,1)"><path fill="none" stroke="#000000" d="M 677 565 L 895 572" stroke-miterlimit="10"/></g><g transform="translate(-6,2) scale(1,1)"><path fill="#FFFFFF" stroke="none" d="M 884.70746187586 575.8811929819483 L 895 572 L 884.9776586201702 567.4664943734289 L 873.0113328750233 571.2939418813081"/></g><g transform="translate(-6,2) scale(1,1)"><path fill="none" stroke="#000000" d="M 884.70746187586 575.8811929819483 L 895 572 L 884.9776586201702 567.4664943734289 L 873.0113328750233 571.2939418813081 L 884.70746187586 575.8811929819483" stroke-miterlimit="10"/></g><g transform="translate(-6,2) scale(1,1)"><path fill="none" stroke="#000000" d="M 613 503 L 671 268" stroke-miterlimit="10"/></g><g transform="translate(-6,2) scale(1,1)"><path fill="#FFFFFF" stroke="none" d="M 672.6517199335221 278.8752848818413 L 671 268 L 664.477954678329 276.8579300529 L 665.7283977869816 289.35907793205735"/></g><g transform="translate(-6,2) scale(1,1)"><path fill="none" stroke="#000000" d="M 672.6517199335221 278.8752848818413 L 671 268 L 664.477954678329 276.8579300529 L 665.7283977869816 289.35907793205735 L 672.6517199335221 278.8752848818413" stroke-miterlimit="10"/></g><g transform="translate(-6,2) scale(1,1)"><path fill="none" stroke="#000000" d="M 597 622 L 597 679" stroke-miterlimit="10"/></g><g transform="translate(-6,2) scale(1,1)"><path fill="#FFFFFF" stroke="none" d="M 592.790482243984 668.8373251423759 L 597 679 L 601.209517756016 668.8373251423759 L 597 657"/></g><g transform="translate(-6,2) scale(1,1)"><path fill="none" stroke="#000000" d="M 592.790482243984 668.8373251423759 L 597 679 L 601.209517756016 668.8373251423759 L 597 657 L 592.790482243984 668.8373251423759" stroke-miterlimit="10"/></g><g transform="translate(-6,2) scale(1,1)"><path fill="none" stroke="#000000" d="M 519 550 L 210 503" stroke-miterlimit="10"/></g><g transform="translate(-6,2) scale(1,1)"><path fill="#000000" stroke="none" d="M 220.68011900458535 500.3665501622596 L 210 503 L 219.41411481020245 508.6898543338408 L 231.749841951978 506.3082283875177"/></g><g transform="translate(-6,2) scale(1,1)"><path fill="none" stroke="#000000" d="M 220.68011900458535 500.3665501622596 L 210 503 L 219.41411481020245 508.6898543338408 L 231.749841951978 506.3082283875177 L 220.68011900458535 500.3665501622596" stroke-miterlimit="10"/></g><g transform="translate(-6,2) scale(1,1)"><path fill="none" stroke="#000000" d="M 440 263 L 591 205" stroke-miterlimit="10"/></g><g transform="translate(-6,2) scale(1,1)"><path fill="#FFFFFF" stroke="none" d="M 575.0449570854006 220.14716493583174 L 591 205 L 569.0074179190866 204.42874400284208"/></g><g transform="translate(-6,2) scale(1,1)"><path fill="none" stroke="#000000" d="M 575.0449570854006 220.14716493583174 L 591 205 L 569.0074179190866 204.42874400284208 L 575.0449570854006 220.14716493583174" stroke-miterlimit="10"/></g><g transform="translate(-6,2) scale(1,1)"><path fill="none" stroke="#000000" d="M 928 287 L 803 221" stroke-miterlimit="10"/></g><g transform="translate(-6,2) scale(1,1)"><path fill="#FFFFFF" stroke="none" d="M 824.9047316739587 223.04517243572994 L 803 221 L 817.0428290087275 237.93513960472842"/></g><g transform="translate(-6,2) scale(1,1)"><path fill="none" stroke="#000000" d="M 824.9047316739587 223.04517243572994 L 803 221 L 817.0428290087275 237.93513960472842 L 824.9047316739587 223.04517243572994" stroke-miterlimit="10"/></g><g transform="translate(-6,2) scale(1,1)"><path fill="none" stroke="#000000" d="M 1071 46 L 803 131" stroke-miterlimit="10"/></g><g transform="translate(-6,2) scale(1,1)"><path fill="#FFFFFF" stroke="none" d="M 819.8289725883953 116.83011356365058 L 803 131 L 824.9195034254428 132.8802578498709"/></g><g transform="translate(-6,2) scale(1,1)"><path fill="none" stroke="#000000" d="M 819.8289725883953 116.83011356365058 L 803 131 L 824.9195034254428 132.8802578498709 L 819.8289725883953 116.83011356365058" stroke-miterlimit="10"/></g></g></svg>