<svg version="1.1" xmlns="http://www.w3.org/2000/svg" xmlns:xlink="http://www.w3.org/1999/xlink" width="1167.3017578125" height="864"><defs/><g><g transform="translate(-14,-46) scale(1,1)"><rect fill="#C0C0C0" stroke="none" x="167" y="399" width="373.533203125" height="137" opacity="0.2"/></g><g transform="translate(-14,-46) scale(1,1)"><rect fill="#ffffff" stroke="none" x="160" y="392" width="373.533203125" height="137"/></g><g transform="translate(-14,-46) scale(1,1)"><path fill="none" stroke="#000000" d="M 160 392 L 533.533203125 392 L 533.533203125 529 L 160 529 L 160 392 Z Z" stroke-miterlimit="10"/></g><g transform="translate(-14,-46) scale(1,1)"><rect fill="#ffffff" stroke="none" x="160" y="392" width="373.533203125" height="137"/></g><g transform="translate(-14,-46) scale(1,1)"><path fill="none" stroke="#000000" d="M 160 392 L 533.533203125 392 L 533.533203125 529 L 160 529 L 160 392 Z Z" stroke-miterlimit="10"/></g><g transform="translate(-14,-46) scale(1,1)"><path fill="none" stroke="#000000" d="M 160 417 L 533.533203125 417" stroke-miterlimit="10"/></g><g transform="translate(-14,-46) scale(1,1)"><g><path fill="none" stroke="none"/><text fill="#000000" stroke="none" font-family="Arial" font-size="13px" font-style="normal" font-weight="bold" text-decoration="none" x="326.177978515625" y="411.5">visiteur</text><path fill="none" stroke="#000000" d="M 369.887939453125 411.5 L 323.645263671875 411.5" stroke-miterlimit="10"/></g></g><g transform="translate(-14,-46) scale(1,1)"><g><path fill="none" stroke="none"/><text fill="#000000" stroke="none" font-family="Arial" font-size="13px" font-style="normal" font-weight="normal" text-decoration="none" x="165" y="434.5">-id_ut: String = u1</text></g></g><g transform="translate(-14,-46) scale(1,1)"><g><path fill="none" stroke="none"/><text fill="#000000" stroke="none" font-family="Arial" font-size="13px" font-style="normal" font-weight="normal" text-decoration="none" x="165" y="449.5">-name: String = visiteur1</text></g></g><g transform="translate(-14,-46) scale(1,1)"><g><path fill="none" stroke="none"/><text fill="#000000" stroke="none" font-family="Arial" font-size="13px" font-style="normal" font-weight="normal" text-decoration="none" x="165" y="464.5">-email: String = visiteur1@gmail.com</text></g></g><g transform="translate(-14,-46) scale(1,1)"><g><path fill="none" stroke="none"/><text fill="#000000" stroke="none" font-family="Arial" font-size="13px" font-style="normal" font-weight="normal" text-decoration="none" x="165" y="479.5">-résidence = (ad1,10,sidi bouafiif,Al Houceima,Maroc)</text></g></g><g transform="translate(-14,-46) scale(1,1)"><g><path fill="none" stroke="none"/><text fill="#000000" stroke="none" font-family="Arial" font-size="13px" font-style="normal" font-weight="normal" text-decoration="none" x="165" y="494.5">-password: String = password1</text></g></g><g transform="translate(-14,-46) scale(1,1)"><g><path fill="none" stroke="none"/><text fill="#000000" stroke="none" font-family="Arial" font-size="13px" font-style="normal" font-weight="normal" text-decoration="none" x="165" y="509.5">-sexe: String = homme</text></g></g><g transform="translate(-14,-46) scale(1,1)"><rect fill="#C0C0C0" stroke="none" x="823" y="535" width="347.51416015625" height="167" opacity="0.2"/></g><g transform="translate(-14,-46) scale(1,1)"><rect fill="#ffffff" stroke="none" x="816" y="528" width="347.51416015625" height="167"/></g><g transform="translate(-14,-46) scale(1,1)"><path fill="none" stroke="#000000" d="M 816 528 L 1163.51416015625 528 L 1163.51416015625 695 L 816 695 L 816 528 Z Z" stroke-miterlimit="10"/></g><g transform="translate(-14,-46) scale(1,1)"><rect fill="#ffffff" stroke="none" x="816" y="528" width="347.51416015625" height="167"/></g><g transform="translate(-14,-46) scale(1,1)"><path fill="none" stroke="#000000" d="M 816 528 L 1163.51416015625 528 L 1163.51416015625 695 L 816 695 L 816 528 Z Z" stroke-miterlimit="10"/></g><g transform="translate(-14,-46) scale(1,1)"><path fill="none" stroke="#000000" d="M 816 553 L 1163.51416015625 553" stroke-miterlimit="10"/></g><g transform="translate(-14,-46) scale(1,1)"><g><path fill="none" stroke="none"/><text fill="#000000" stroke="none" font-family="Arial" font-size="13px" font-style="normal" font-weight="bold" text-decoration="none" x="926.172607421875" y="547.5">secteurPrivate&amp;Public</text><path fill="none" stroke="#000000" d="M 1058.75927734375 547.5 L 920.7548828125 547.5" stroke-miterlimit="10"/></g></g><g transform="translate(-14,-46) scale(1,1)"><g><path fill="none" stroke="none"/><text fill="#000000" stroke="none" font-family="Arial" font-size="13px" font-style="normal" font-weight="normal" text-decoration="none" x="821" y="570.5">-id_ut: String = u2</text></g></g><g transform="translate(-14,-46) scale(1,1)"><g><path fill="none" stroke="none"/><text fill="#000000" stroke="none" font-family="Arial" font-size="13px" font-style="normal" font-weight="normal" text-decoration="none" x="821" y="585.5">-name: String = mercure</text></g></g><g transform="translate(-14,-46) scale(1,1)"><g><path fill="none" stroke="none"/><text fill="#000000" stroke="none" font-family="Arial" font-size="13px" font-style="normal" font-weight="normal" text-decoration="none" x="821" y="600.5">-email: String = mercure@gmail.com</text></g></g><g transform="translate(-14,-46) scale(1,1)"><g><path fill="none" stroke="none"/><text fill="#000000" stroke="none" font-family="Arial" font-size="13px" font-style="normal" font-weight="normal" text-decoration="none" x="821" y="615.5">-résidence = (ad2,2,kemado,Al Houceima,Maroc)</text></g></g><g transform="translate(-14,-46) scale(1,1)"><g><path fill="none" stroke="none"/><text fill="#000000" stroke="none" font-family="Arial" font-size="13px" font-style="normal" font-weight="normal" text-decoration="none" x="821" y="630.5">-password: String = password2</text></g></g><g transform="translate(-14,-46) scale(1,1)"><g><path fill="none" stroke="none"/><text fill="#000000" stroke="none" font-family="Arial" font-size="13px" font-style="normal" font-weight="normal" text-decoration="none" x="821" y="645.5">-domaineActivites: Hotel</text></g></g><g transform="translate(-14,-46) scale(1,1)"><g><path fill="none" stroke="none"/><text fill="#000000" stroke="none" font-family="Arial" font-size="13px" font-style="normal" font-weight="normal" text-decoration="none" x="821" y="660.5">-description_SPP: mercure est un hotel de 4 étoiles..</text></g></g><g transform="translate(-14,-46) scale(1,1)"><rect fill="#C0C0C0" stroke="none" x="655" y="71" width="167.6025390625" height="62" opacity="0.2"/></g><g transform="translate(-14,-46) scale(1,1)"><rect fill="#ffffff" stroke="none" x="648" y="64" width="167.6025390625" height="62"/></g><g transform="translate(-14,-46) scale(1,1)"><path fill="none" stroke="#000000" d="M 648 64 L 815.6025390625 64 L 815.6025390625 126 L 648 126 L 648 64 Z Z" stroke-miterlimit="10"/></g><g transform="translate(-14,-46) scale(1,1)"><rect fill="#ffffff" stroke="none" x="648" y="64" width="167.6025390625" height="62"/></g><g transform="translate(-14,-46) scale(1,1)"><path fill="none" stroke="#000000" d="M 648 64 L 815.6025390625 64 L 815.6025390625 126 L 648 126 L 648 64 Z Z" stroke-miterlimit="10"/></g><g transform="translate(-14,-46) scale(1,1)"><path fill="none" stroke="#000000" d="M 648 89 L 815.6025390625 89" stroke-miterlimit="10"/></g><g transform="translate(-14,-46) scale(1,1)"><g><path fill="none" stroke="none"/><text fill="#000000" stroke="none" font-family="Arial" font-size="13px" font-style="normal" font-weight="bold" text-decoration="none" x="714.09765625" y="83.5">image</text><path fill="none" stroke="#000000" d="M 750.587158203125 83.5 L 713.015380859375 83.5" stroke-miterlimit="10"/></g></g><g transform="translate(-14,-46) scale(1,1)"><g><path fill="none" stroke="none"/><text fill="#000000" stroke="none" font-family="Arial" font-size="13px" font-style="normal" font-weight="normal" text-decoration="none" x="653" y="106.5">-id_Im: String = image1</text></g></g><g transform="translate(-14,-46) scale(1,1)"><g><path fill="none" stroke="none"/><text fill="#000000" stroke="none" font-family="Arial" font-size="13px" font-style="normal" font-weight="normal" text-decoration="none" x="653" y="121.5">-lienImage: String = lienIM1</text></g></g><g transform="translate(-14,-46) scale(1,1)"><rect fill="#C0C0C0" stroke="none" x="111" y="63" width="409.9248046875" height="77" opacity="0.2"/></g><g transform="translate(-14,-46) scale(1,1)"><rect fill="#ffffff" stroke="none" x="104" y="56" width="409.9248046875" height="77"/></g><g transform="translate(-14,-46) scale(1,1)"><path fill="none" stroke="#000000" d="M 104 56 L 513.9248046875 56 L 513.9248046875 133 L 104 133 L 104 56 Z Z" stroke-miterlimit="10"/></g><g transform="translate(-14,-46) scale(1,1)"><rect fill="#ffffff" stroke="none" x="104" y="56" width="409.9248046875" height="77"/></g><g transform="translate(-14,-46) scale(1,1)"><path fill="none" stroke="#000000" d="M 104 56 L 513.9248046875 56 L 513.9248046875 133 L 104 133 L 104 56 Z Z" stroke-miterlimit="10"/></g><g transform="translate(-14,-46) scale(1,1)"><path fill="none" stroke="#000000" d="M 104 81 L 513.9248046875 81" stroke-miterlimit="10"/></g><g transform="translate(-14,-46) scale(1,1)"><g><path fill="none" stroke="none"/><text fill="#000000" stroke="none" font-family="Arial" font-size="13px" font-style="normal" font-weight="bold" text-decoration="none" x="293.42333984375" y="75.5">video</text><path fill="none" stroke="#000000" d="M 325.939208984375 75.5 L 291.985595703125 75.5" stroke-miterlimit="10"/></g></g><g transform="translate(-14,-46) scale(1,1)"><g><path fill="none" stroke="none"/><text fill="#000000" stroke="none" font-family="Arial" font-size="13px" font-style="normal" font-weight="normal" text-decoration="none" x="109" y="98.5">-id_V: String = video1</text></g></g><g transform="translate(-14,-46) scale(1,1)"><g><path fill="none" stroke="none"/><text fill="#000000" stroke="none" font-family="Arial" font-size="13px" font-style="normal" font-weight="normal" text-decoration="none" x="109" y="113.5">-description_V: String = ma belle expérience a la plage kemado</text></g></g><g transform="translate(-14,-46) scale(1,1)"><g><path fill="none" stroke="none"/><text fill="#000000" stroke="none" font-family="Arial" font-size="13px" font-style="normal" font-weight="normal" text-decoration="none" x="109" y="128.5">-titre: String = kemadoExperience</text></g></g><g transform="translate(-14,-46) scale(1,1)"><rect fill="#C0C0C0" stroke="none" x="559" y="199" width="354.02685546875" height="92" opacity="0.2"/></g><g transform="translate(-14,-46) scale(1,1)"><rect fill="#ffffff" stroke="none" x="552" y="192" width="354.02685546875" height="92"/></g><g transform="translate(-14,-46) scale(1,1)"><path fill="none" stroke="#000000" d="M 552 192 L 906.02685546875 192 L 906.02685546875 284 L 552 284 L 552 192 Z Z" stroke-miterlimit="10"/></g><g transform="translate(-14,-46) scale(1,1)"><rect fill="#ffffff" stroke="none" x="552" y="192" width="354.02685546875" height="92"/></g><g transform="translate(-14,-46) scale(1,1)"><path fill="none" stroke="#000000" d="M 552 192 L 906.02685546875 192 L 906.02685546875 284 L 552 284 L 552 192 Z Z" stroke-miterlimit="10"/></g><g transform="translate(-14,-46) scale(1,1)"><path fill="none" stroke="#000000" d="M 552 217 L 906.02685546875 217" stroke-miterlimit="10"/></g><g transform="translate(-14,-46) scale(1,1)"><g><path fill="none" stroke="none"/><text fill="#000000" stroke="none" font-family="Arial" font-size="13px" font-style="normal" font-weight="bold" text-decoration="none" x="714.56298828125" y="211.5">trajet</text><path fill="none" stroke="#000000" d="M 744.907958984375 211.5 L 713.118896484375 211.5" stroke-miterlimit="10"/></g></g><g transform="translate(-14,-46) scale(1,1)"><g><path fill="none" stroke="none"/><text fill="#000000" stroke="none" font-family="Arial" font-size="13px" font-style="normal" font-weight="normal" text-decoration="none" x="557" y="234.5">-id_Tr: String = trajet1</text></g></g><g transform="translate(-14,-46) scale(1,1)"><g><path fill="none" stroke="none"/><text fill="#000000" stroke="none" font-family="Arial" font-size="13px" font-style="normal" font-weight="normal" text-decoration="none" x="557" y="249.5">-départ = (ad1,10,sidi bouafiif,Al Houceima,Maroc)</text></g></g><g transform="translate(-14,-46) scale(1,1)"><g><path fill="none" stroke="none"/><text fill="#000000" stroke="none" font-family="Arial" font-size="13px" font-style="normal" font-weight="normal" text-decoration="none" x="557" y="264.5">-déstination = (ad2,2,kemado,Al Houceima,Maroc)</text></g></g><g transform="translate(-14,-46) scale(1,1)"><g><path fill="none" stroke="none"/><text fill="#000000" stroke="none" font-family="Arial" font-size="13px" font-style="normal" font-weight="normal" text-decoration="none" x="557" y="279.5">-horaire: dateTime = 07-12-2020 22:51</text></g></g><g transform="translate(-14,-46) scale(1,1)"><rect fill="#C0C0C0" stroke="none" x="799" y="359" width="377.189453125" height="77" opacity="0.2"/></g><g transform="translate(-14,-46) scale(1,1)"><rect fill="#ffffff" stroke="none" x="792" y="352" width="377.189453125" height="77"/></g><g transform="translate(-14,-46) scale(1,1)"><path fill="none" stroke="#000000" d="M 792 352 L 1169.189453125 352 L 1169.189453125 429 L 792 429 L 792 352 Z Z" stroke-miterlimit="10"/></g><g transform="translate(-14,-46) scale(1,1)"><rect fill="#ffffff" stroke="none" x="792" y="352" width="377.189453125" height="77"/></g><g transform="translate(-14,-46) scale(1,1)"><path fill="none" stroke="#000000" d="M 792 352 L 1169.189453125 352 L 1169.189453125 429 L 792 429 L 792 352 Z Z" stroke-miterlimit="10"/></g><g transform="translate(-14,-46) scale(1,1)"><path fill="none" stroke="#000000" d="M 792 377 L 1169.189453125 377" stroke-miterlimit="10"/></g><g transform="translate(-14,-46) scale(1,1)"><g><path fill="none" stroke="none"/><text fill="#000000" stroke="none" font-family="Arial" font-size="13px" font-style="normal" font-weight="bold" text-decoration="none" x="946.99658203125" y="371.5">reclamation</text><path fill="none" stroke="#000000" d="M 1017.0810546875 371.5 L 944.1083984375 371.5" stroke-miterlimit="10"/></g></g><g transform="translate(-14,-46) scale(1,1)"><g><path fill="none" stroke="none"/><text fill="#000000" stroke="none" font-family="Arial" font-size="13px" font-style="normal" font-weight="normal" text-decoration="none" x="797" y="394.5">-id_Rec: String</text></g></g><g transform="translate(-14,-46) scale(1,1)"><g><path fill="none" stroke="none"/><text fill="#000000" stroke="none" font-family="Arial" font-size="13px" font-style="normal" font-weight="normal" text-decoration="none" x="797" y="409.5">-date_Rec: Date = 07-12-2020</text></g></g><g transform="translate(-14,-46) scale(1,1)"><g><path fill="none" stroke="none"/><text fill="#000000" stroke="none" font-family="Arial" font-size="13px" font-style="normal" font-weight="normal" text-decoration="none" x="797" y="424.5">-description_Rec: String = le service de guide ne fonctionne pas</text></g></g><g transform="translate(-14,-46) scale(1,1)"><rect fill="#C0C0C0" stroke="none" x="1079" y="271" width="99.3017578125" height="24" opacity="0.2"/></g><g transform="translate(-14,-46) scale(1,1)"><rect fill="#ffffff" stroke="none" x="1072" y="264" width="99.3017578125" height="24"/></g><g transform="translate(-14,-46) scale(1,1)"><path fill="none" stroke="#000000" d="M 1072 264 L 1171.3017578125 264 L 1171.3017578125 288 L 1072 288 L 1072 264 Z Z" stroke-miterlimit="10"/></g><g transform="translate(-14,-46) scale(1,1)"><rect fill="#ffffff" stroke="none" x="1072" y="264" width="99.3017578125" height="24"/></g><g transform="translate(-14,-46) scale(1,1)"><path fill="none" stroke="#000000" d="M 1072 264 L 1171.3017578125 264 L 1171.3017578125 288 L 1072 288 L 1072 264 Z Z" stroke-miterlimit="10"/></g><g transform="translate(-14,-46) scale(1,1)"><g><path fill="none" stroke="none"/><text fill="#000000" stroke="none" font-family="Arial" font-size="13px" font-style="normal" font-weight="bold" text-decoration="none" x="1080.46728515625" y="283.5">administrateur</text><path fill="none" stroke="#000000" d="M 1166.8017578125 283.5 L 1076.5 283.5" stroke-miterlimit="10"/></g></g><g transform="translate(-14,-46) scale(1,1)"><rect fill="#C0C0C0" stroke="none" x="399" y="815" width="477.228515625" height="92" opacity="0.2"/></g><g transform="translate(-14,-46) scale(1,1)"><rect fill="#ffffff" stroke="none" x="392" y="808" width="477.228515625" height="92"/></g><g transform="translate(-14,-46) scale(1,1)"><path fill="none" stroke="#000000" d="M 392 808 L 869.228515625 808 L 869.228515625 900 L 392 900 L 392 808 Z Z" stroke-miterlimit="10"/></g><g transform="translate(-14,-46) scale(1,1)"><rect fill="#ffffff" stroke="none" x="392" y="808" width="477.228515625" height="92"/></g><g transform="translate(-14,-46) scale(1,1)"><path fill="none" stroke="#000000" d="M 392 808 L 869.228515625 808 L 869.228515625 900 L 392 900 L 392 808 Z Z" stroke-miterlimit="10"/></g><g transform="translate(-14,-46) scale(1,1)"><path fill="none" stroke="#000000" d="M 392 833 L 869.228515625 833" stroke-miterlimit="10"/></g><g transform="translate(-14,-46) scale(1,1)"><g><path fill="none" stroke="none"/><text fill="#000000" stroke="none" font-family="Arial" font-size="13px" font-style="normal" font-weight="bold" text-decoration="none" x="599.894775390625" y="827.5">dashboard</text><path fill="none" stroke="#000000" d="M 663.841064453125 827.5 L 597.387451171875 827.5" stroke-miterlimit="10"/></g></g><g transform="translate(-14,-46) scale(1,1)"><g><path fill="none" stroke="none"/><text fill="#000000" stroke="none" font-family="Arial" font-size="13px" font-style="normal" font-weight="normal" text-decoration="none" x="397" y="850.5">-id_Dh: String = dash1</text></g></g><g transform="translate(-14,-46) scale(1,1)"><g><path fill="none" stroke="none"/><text fill="#000000" stroke="none" font-family="Arial" font-size="13px" font-style="normal" font-weight="normal" text-decoration="none" x="397" y="865.5">-nombreVisiteur: int = 23</text></g></g><g transform="translate(-14,-46) scale(1,1)"><g><path fill="none" stroke="none"/><text fill="#000000" stroke="none" font-family="Arial" font-size="13px" font-style="normal" font-weight="normal" text-decoration="none" x="397" y="880.5">-horaire: dateTime =  08-12-2020 22:51</text></g></g><g transform="translate(-14,-46) scale(1,1)"><g><path fill="none" stroke="none"/><text fill="#000000" stroke="none" font-family="Arial" font-size="13px" font-style="normal" font-weight="normal" text-decoration="none" x="397" y="895.5">-localisation = déstination: Adresse = (ad2,kemado,Al Houceima,Maroc)</text></g></g><g transform="translate(-14,-46) scale(1,1)"><rect fill="#C0C0C0" stroke="none" x="111" y="599" width="501.45751953125" height="122" opacity="0.2"/></g><g transform="translate(-14,-46) scale(1,1)"><rect fill="#ffffff" stroke="none" x="104" y="592" width="501.45751953125" height="122"/></g><g transform="translate(-14,-46) scale(1,1)"><path fill="none" stroke="#000000" d="M 104 592 L 605.45751953125 592 L 605.45751953125 714 L 104 714 L 104 592 Z Z" stroke-miterlimit="10"/></g><g transform="translate(-14,-46) scale(1,1)"><rect fill="#ffffff" stroke="none" x="104" y="592" width="501.45751953125" height="122"/></g><g transform="translate(-14,-46) scale(1,1)"><path fill="none" stroke="#000000" d="M 104 592 L 605.45751953125 592 L 605.45751953125 714 L 104 714 L 104 592 Z Z" stroke-miterlimit="10"/></g><g transform="translate(-14,-46) scale(1,1)"><path fill="none" stroke="#000000" d="M 104 617 L 605.45751953125 617" stroke-miterlimit="10"/></g><g transform="translate(-14,-46) scale(1,1)"><g><path fill="none" stroke="none"/><text fill="#000000" stroke="none" font-family="Arial" font-size="13px" font-style="normal" font-weight="bold" text-decoration="none" x="322.568359375" y="611.5">evenement</text><path fill="none" stroke="#000000" d="M 388.688720703125 611.5 L 320.768798828125 611.5" stroke-miterlimit="10"/></g></g><g transform="translate(-14,-46) scale(1,1)"><g><path fill="none" stroke="none"/><text fill="#000000" stroke="none" font-family="Arial" font-size="13px" font-style="normal" font-weight="normal" text-decoration="none" x="109" y="634.5">-id_Ev: String = Ev1</text></g></g><g transform="translate(-14,-46) scale(1,1)"><g><path fill="none" stroke="none"/><text fill="#000000" stroke="none" font-family="Arial" font-size="13px" font-style="normal" font-weight="normal" text-decoration="none" x="109" y="649.5">-date_Ev: dateTime = 08-12-2020 22:51</text></g></g><g transform="translate(-14,-46) scale(1,1)"><g><path fill="none" stroke="none"/><text fill="#000000" stroke="none" font-family="Arial" font-size="13px" font-style="normal" font-weight="normal" text-decoration="none" x="109" y="664.5">-nom: String = la culture rifienne</text></g></g><g transform="translate(-14,-46) scale(1,1)"><g><path fill="none" stroke="none"/><text fill="#000000" stroke="none" font-family="Arial" font-size="13px" font-style="normal" font-weight="normal" text-decoration="none" x="109" y="679.5">-description_Ev: String = cet evenement vise a présenter la culture de la région de Rif</text></g></g><g transform="translate(-14,-46) scale(1,1)"><g><path fill="none" stroke="none"/><text fill="#000000" stroke="none" font-family="Arial" font-size="13px" font-style="normal" font-weight="normal" text-decoration="none" x="109" y="694.5">-localisation = déstination: Adresse = (ad2,2,kemado,Al Houceima,Maroc)</text></g></g><g transform="translate(-14,-46) scale(1,1)"><g><path fill="none" stroke="none"/><text fill="#000000" stroke="none" font-family="Arial" font-size="13px" font-style="normal" font-weight="normal" text-decoration="none" x="109" y="709.5">-isPrivate: Boolean = false</text></g></g><g transform="translate(-14,-46) scale(1,1)"><path fill="none" stroke="#000000" d="M 815 623 L 606 636" stroke-miterlimit="10"/></g><g transform="translate(-14,-46) scale(1,1)"><path fill="none" stroke="#000000" d="M 615.8817412529565 631.1676931171937 L 606 636 L 616.4044032155032 639.5704892842897" stroke-miterlimit="10"/></g><g transform="translate(-14,-46) scale(1,1)"><g><path fill="none" stroke="none"/><text fill="#000000" stroke="none" font-family="Arial" font-size="13px" font-style="normal" font-weight="normal" text-decoration="none" x="680.5" y="649.5">+organiser</text></g></g><g transform="translate(-14,-46) scale(1,1)"><path fill="none" stroke="#000000" d="M 349 530 L 351 591" stroke-miterlimit="10"/></g><g transform="translate(-14,-46) scale(1,1)"><path fill="none" stroke="#000000" d="M 346.45971948917276 580.9807259303379 L 351 591 L 354.8742334995295 580.7048402250804" stroke-miterlimit="10"/></g><g transform="translate(-14,-46) scale(1,1)"><g><path fill="none" stroke="none"/><text fill="#000000" stroke="none" font-family="Arial" font-size="13px" font-style="normal" font-weight="normal" text-decoration="none" x="325.5" y="565.5">+s'interresser</text></g></g><g transform="translate(-14,-46) scale(1,1)"><path fill="none" stroke="#000000" d="M 535 439 L 791 411" stroke-miterlimit="10"/></g><g transform="translate(-14,-46) scale(1,1)"><path fill="none" stroke="#000000" d="M 781.3552591280999 416.2895154328066 L 791 411 L 780.4398860949639 407.9203905584208" stroke-miterlimit="10"/></g><g transform="translate(-14,-46) scale(1,1)"><g><path fill="none" stroke="none"/><text fill="#000000" stroke="none" font-family="Arial" font-size="13px" font-style="normal" font-weight="normal" text-decoration="none" x="644.5" y="416.5">+faire</text></g></g><g transform="translate(-14,-46) scale(1,1)"><path fill="none" stroke="#000000" d="M 986 527 L 982 430" stroke-miterlimit="10"/></g><g transform="translate(-14,-46) scale(1,1)"><path fill="none" stroke="#000000" d="M 986.6246666800723 439.98060409485464 L 982 430 L 978.2127803343966 440.3274860060165" stroke-miterlimit="10"/></g><g transform="translate(-14,-46) scale(1,1)"><g><path fill="none" stroke="none"/><text fill="#000000" stroke="none" font-family="Arial" font-size="13px" font-style="normal" font-weight="normal" text-decoration="none" x="952.5" y="484.5">+faire</text></g></g><g transform="translate(-14,-46) scale(1,1)"><path fill="none" stroke="#000000" d="M 1028 351 L 1105 289" stroke-miterlimit="10"/></g><g transform="translate(-14,-46) scale(1,1)"><path fill="none" stroke="#000000" d="M 1099.7244198141261 298.652370367035 L 1105 289 L 1094.4443449348207 292.0948580169298" stroke-miterlimit="10"/></g><g transform="translate(-14,-46) scale(1,1)"><g><path fill="none" stroke="none"/><text fill="#000000" stroke="none" font-family="Arial" font-size="13px" font-style="normal" font-weight="normal" text-decoration="none" x="1037.5" y="314.5">+gérer</text></g></g><g transform="translate(-14,-46) scale(1,1)"><path fill="none" stroke="#000000" d="M 339 391 L 312 134" stroke-miterlimit="10"/></g><g transform="translate(-14,-46) scale(1,1)"><path fill="none" stroke="#000000" d="M 317.2483077802744 143.6672263573122 L 312 134 L 308.8753527086654 144.5468753337069" stroke-miterlimit="10"/></g><g transform="translate(-14,-46) scale(1,1)"><g><path fill="none" stroke="none"/><text fill="#000000" stroke="none" font-family="Arial" font-size="13px" font-style="normal" font-weight="normal" text-decoration="none" x="286.5" y="269.5">+publier</text></g></g><g transform="translate(-14,-46) scale(1,1)"><path fill="none" stroke="#000000" d="M 515 94 L 647 95" stroke-miterlimit="10"/></g><g transform="translate(-14,-46) scale(1,1)"><path fill="none" stroke="#000000" d="M 465 391 L 648 285" stroke-miterlimit="10"/></g><g transform="translate(-14,-46) scale(1,1)"><path fill="none" stroke="#000000" d="M 641.3159565840302 293.7363358230686 L 648 285 L 637.0961452716077 286.45118987803727" stroke-miterlimit="10"/></g><g transform="translate(-14,-46) scale(1,1)"><g><path fill="none" stroke="none"/><text fill="#000000" stroke="none" font-family="Arial" font-size="13px" font-style="normal" font-weight="normal" text-decoration="none" x="526.5" y="331.5">+définir</text></g></g><g transform="translate(-14,-46) scale(1,1)"><path fill="none" stroke="#000000" d="M 159 462 L 24 464 L 24 856 L 391 855" stroke-miterlimit="10"/></g><g transform="translate(-14,-46) scale(1,1)"><path fill="none" stroke="#000000" d="M 380.8488329016627 859.2371932386468 L 391 855 L 380.82589283556297 850.8181889800528" stroke-miterlimit="10"/></g><g transform="translate(-14,-46) scale(1,1)"><g><path fill="none" stroke="none"/><text fill="#000000" stroke="none" font-family="Arial" font-size="13px" font-style="normal" font-weight="normal" text-decoration="none" x="54.5" y="492.5">+consulter</text></g></g><g transform="translate(-14,-46) scale(1,1)"><path fill="none" stroke="#000000" d="M 863 696 L 699 807" stroke-miterlimit="10"/></g><g transform="translate(-14,-46) scale(1,1)"><path fill="none" stroke="#000000" d="M 705.0566837963847 797.8175939214925 L 699 807 L 709.7756637896475 804.7897805782052" stroke-miterlimit="10"/></g><g transform="translate(-14,-46) scale(1,1)"><g><path fill="none" stroke="none"/><text fill="#000000" stroke="none" font-family="Arial" font-size="13px" font-style="normal" font-weight="normal" text-decoration="none" x="758.5" y="769.5">+consulter</text></g></g></g></svg>