<svg version="1.1" xmlns="http://www.w3.org/2000/svg" xmlns:xlink="http://www.w3.org/1999/xlink" width="571" height="363"><defs/><g><g transform="translate(-30,-22) scale(1,1)"><rect fill="#C0C0C0" stroke="none" x="183" y="39" width="415" height="343" opacity="0.2"/></g><g transform="translate(-30,-22) scale(1,1)"><rect fill="#ffffff" stroke="none" x="176" y="32" width="415" height="343"/></g><g transform="translate(-30,-22) scale(1,1)"><path fill="none" stroke="#000000" d="M 176 32 L 591 32 L 591 375 L 176 375 L 176 32 Z Z" stroke-miterlimit="10"/></g><g transform="translate(-30,-22) scale(1,1)"><g><path fill="none" stroke="none"/><text fill="#000000" stroke="none" font-family="Arial" font-size="13px" font-style="normal" font-weight="bold" text-decoration="none" x="342.675048828125" y="51.5">Service Guide</text></g></g><g transform="translate(-30,-22) scale(1,1)"><path fill="#ffffff" stroke="none" d="M 59.54509250710227 193.68 C 59.54509250710227 188.886167936 63.430934832047726 185 68.224365234375 185 C 73.01779563670227 185 76.90363796164773 188.886167936 76.90363796164773 193.68 C 76.90363796164773 198.47383206400002 73.01779563670227 202.36 68.224365234375 202.36 C 63.430934832047726 202.36 59.54509250710227 198.47383206400002 59.54509250710227 193.68 Z"/></g><g transform="translate(-30,-22) scale(1,1)"><path fill="none" stroke="#000000" d="M 59.54509250710227 193.68 C 59.54509250710227 188.886167936 63.430934832047726 185 68.224365234375 185 C 73.01779563670227 185 76.90363796164773 188.886167936 76.90363796164773 193.68 C 76.90363796164773 198.47383206400002 73.01779563670227 202.36 68.224365234375 202.36 C 63.430934832047726 202.36 59.54509250710227 198.47383206400002 59.54509250710227 193.68 Z" stroke-miterlimit="10"/></g><g transform="translate(-30,-22) scale(1,1)"><path fill="none" stroke="#000000" d="M 68.224365234375 202.36 L 68.224365234375 219.64" stroke-miterlimit="10"/></g><g transform="translate(-30,-22) scale(1,1)"><path fill="none" stroke="#000000" d="M 59.03454705255682 208.84 L 77.41418341619318 208.84" stroke-miterlimit="10"/></g><g transform="translate(-30,-22) scale(1,1)"><path fill="none" stroke="#000000" d="M 68.224365234375 219.64 L 55.460728870738635 237" stroke-miterlimit="10"/></g><g transform="translate(-30,-22) scale(1,1)"><path fill="none" stroke="#000000" d="M 68.224365234375 219.64 L 80.98800159801137 237" stroke-miterlimit="10"/></g><g transform="translate(-30,-22) scale(1,1)"><g><path fill="none" stroke="none"/><text fill="#000000" stroke="none" font-family="Arial" font-size="13px" font-style="normal" font-weight="bold" text-decoration="none" x="46.667724609375" y="257.5">Visiteur</text></g></g><g transform="translate(-30,-22) scale(1,1)"><path fill="#C0C0C0" stroke="none" d="M 303 120 C 303 110.6111584 338.5933584 103 382.5 103 C 426.4066416 103 462 110.6111584 462 120 C 462 129.3888416 426.4066416 137 382.5 137 C 338.5933584 137 303 129.3888416 303 120 Z" opacity="0.2"/></g><g transform="translate(-30,-22) scale(1,1)"><path fill="#ffffff" stroke="none" d="M 296 113 C 296 103.6111584 331.5933584 96 375.5 96 C 419.4066416 96 455 103.6111584 455 113 C 455 122.3888416 419.4066416 130 375.5 130 C 331.5933584 130 296 122.3888416 296 113 Z"/></g><g transform="translate(-30,-22) scale(1,1)"><path fill="none" stroke="#000000" d="M 296 113 C 296 103.6111584 331.5933584 96 375.5 96 C 419.4066416 96 455 103.6111584 455 113 C 455 122.3888416 419.4066416 130 375.5 130 C 331.5933584 130 296 122.3888416 296 113 Z" stroke-miterlimit="10"/></g><g transform="translate(-30,-22) scale(1,1)"><g><path fill="none" stroke="none"/><text fill="#000000" stroke="none" font-family="Arial" font-size="13px" font-style="normal" font-weight="bold" text-decoration="none" x="330.460205078125" y="120">Afficher le trajet</text></g></g><g transform="translate(-30,-22) scale(1,1)"><path fill="none" stroke="#000000" d="M 97 212 L 325 131" stroke-miterlimit="10"/></g><g transform="translate(-30,-22) scale(1,1)"><path fill="none" stroke="#000000" d="M 316.8328943602145 138.36874381890044 L 325 131 L 314.0144954962698 130.4354729426117" stroke-miterlimit="10"/></g><g transform="translate(-30,-22) scale(1,1)"><path fill="#C0C0C0" stroke="none" d="M 247 320 C 247 310.6111584 309.0085552 303 385.5 303 C 461.9914448 303 524 310.6111584 524 320 C 524 329.3888416 461.9914448 337 385.5 337 C 309.0085552 337 247 329.3888416 247 320 Z" opacity="0.2"/></g><g transform="translate(-30,-22) scale(1,1)"><path fill="#ffffff" stroke="none" d="M 240 313 C 240 303.6111584 302.0085552 296 378.5 296 C 454.9914448 296 517 303.6111584 517 313 C 517 322.3888416 454.9914448 330 378.5 330 C 302.0085552 330 240 322.3888416 240 313 Z"/></g><g transform="translate(-30,-22) scale(1,1)"><path fill="none" stroke="#000000" d="M 240 313 C 240 303.6111584 302.0085552 296 378.5 296 C 454.9914448 296 517 303.6111584 517 313 C 517 322.3888416 454.9914448 330 378.5 330 C 302.0085552 330 240 322.3888416 240 313 Z" stroke-miterlimit="10"/></g><g transform="translate(-30,-22) scale(1,1)"><g><path fill="none" stroke="none"/><text fill="#000000" stroke="none" font-family="Arial" font-size="13px" font-style="normal" font-weight="bold" text-decoration="none" x="292.5146484375" y="320">Consulter les trajets proposés</text></g></g><g transform="translate(-30,-22) scale(1,1)"><path fill="none" stroke="#000000" d="M 97 232 L 316 295" stroke-miterlimit="10"/></g><g transform="translate(-30,-22) scale(1,1)"><path fill="none" stroke="#000000" d="M 305.06964854169263 296.2358871299101 L 316 295 L 307.3971701927379 288.1449785334192" stroke-miterlimit="10"/></g><g transform="translate(-30,-22) scale(1,1)"><path fill="#C0C0C0" stroke="none" d="M 239 216 C 239 206.6111584 317.35016 199 414 199 C 510.64984 199 589 206.6111584 589 216 C 589 225.3888416 510.64984 233 414 233 C 317.35016 233 239 225.3888416 239 216 Z" opacity="0.2"/></g><g transform="translate(-30,-22) scale(1,1)"><path fill="#ffffff" stroke="none" d="M 232 209 C 232 199.6111584 310.35016 192 407 192 C 503.64984 192 582 199.6111584 582 209 C 582 218.3888416 503.64984 226 407 226 C 310.35016 226 232 218.3888416 232 209 Z"/></g><g transform="translate(-30,-22) scale(1,1)"><path fill="none" stroke="#000000" d="M 232 209 C 232 199.6111584 310.35016 192 407 192 C 503.64984 192 582 199.6111584 582 209 C 582 218.3888416 503.64984 226 407 226 C 310.35016 226 232 218.3888416 232 209 Z" stroke-miterlimit="10"/></g><g transform="translate(-30,-22) scale(1,1)"><g><path fill="none" stroke="none"/><text fill="#000000" stroke="none" font-family="Arial" font-size="13px" font-style="normal" font-weight="bold" text-decoration="none" x="297.899658203125" y="216">Consulter les informations sur le trajet</text></g></g><g transform="translate(-30,-22) scale(1,1)"><path fill="none" stroke="#000000" d="M 97 222 L 231 216" stroke-miterlimit="10"/></g><g transform="translate(-30,-22) scale(1,1)"><path fill="none" stroke="#000000" d="M 221.03579463251054 220.65989392524062 L 231 216 L 220.65920022136518 212.24928540966047" stroke-miterlimit="10"/></g></g></svg>