<svg version="1.1" xmlns="http://www.w3.org/2000/svg" xmlns:xlink="http://www.w3.org/1999/xlink" width="828" height="372"><defs/><g><g transform="translate(-62,-22) scale(1,1)"><rect fill="#ffffff" stroke="none" x="144" y="32" width="296" height="21"/></g><g transform="translate(-62,-22) scale(1,1)"><path fill="none" stroke="#000000" d="M 144 32 L 440 32 L 440 53 L 144 53 L 144 32 Z Z" stroke-miterlimit="10" stroke-width="2"/></g><g transform="translate(-62,-22) scale(1,1)"><path fill="none" stroke="#000000" d="M 144 384 L 144 32 L 440 32 L 440 384" stroke-miterlimit="10" stroke-width="2"/></g><g transform="translate(-62,-22) scale(1,1)"><g><path fill="none" stroke="none"/><text fill="#000000" stroke="none" font-family="Arial" font-size="13px" font-style="normal" font-weight="normal" text-decoration="none" x="191.6943359375" y="49">Visiteurs &amp; Acteurs Public &amp; Privés</text></g></g><g transform="translate(-62,-22) scale(1,1)"><rect fill="#ffffff" stroke="none" x="440" y="32" width="440" height="21"/></g><g transform="translate(-62,-22) scale(1,1)"><path fill="none" stroke="#000000" d="M 440 32 L 880 32 L 880 53 L 440 53 L 440 32 Z Z" stroke-miterlimit="10" stroke-width="2"/></g><g transform="translate(-62,-22) scale(1,1)"><path fill="none" stroke="#000000" d="M 440 384 L 440 32 L 880 32 L 880 384" stroke-miterlimit="10" stroke-width="2"/></g><g transform="translate(-62,-22) scale(1,1)"><g><path fill="none" stroke="none"/><text fill="#000000" stroke="none" font-family="Arial" font-size="13px" font-style="normal" font-weight="normal" text-decoration="none" x="634.714111328125" y="49">Systeme</text></g></g><g transform="translate(-62,-22) scale(1,1)"><path fill="#C0C0C0" stroke="none" d="M 79 112.5 C 79 107.2532944 83.2532944 103 88.5 103 C 93.7467056 103 98 107.2532944 98 112.5 C 98 117.7467056 93.7467056 122 88.5 122 C 83.2532944 122 79 117.7467056 79 112.5 Z" opacity="0.2"/></g><g transform="translate(-62,-22) scale(1,1)"><path fill="#000000" stroke="none" d="M 72 105.5 C 72 100.2532944 76.2532944 96 81.5 96 C 86.7467056 96 91 100.2532944 91 105.5 C 91 110.7467056 86.7467056 115 81.5 115 C 76.2532944 115 72 110.7467056 72 105.5 Z"/></g><g transform="translate(-62,-22) scale(1,1)"><path fill="#C0C0C0" stroke="none" d="M 489 127 L 867.65087890625 127 Q 877.65087890625 127 877.65087890625 137 L 877.65087890625 157 Q 877.65087890625 167 867.65087890625 167 L 489 167 Q 479 167 479 157 L 479 137 Q 479 127 489 127 Z" opacity="0.2"/></g><g transform="translate(-62,-22) scale(1,1)"><path fill="#ffffff" stroke="none" d="M 482 120 L 860.65087890625 120 Q 870.65087890625 120 870.65087890625 130 L 870.65087890625 150 Q 870.65087890625 160 860.65087890625 160 L 482 160 Q 472 160 472 150 L 472 130 Q 472 120 482 120 Z"/></g><g transform="translate(-62,-22) scale(1,1)"><path fill="none" stroke="#000000" d="M 482 120 L 860.65087890625 120 Q 870.65087890625 120 870.65087890625 130 L 870.65087890625 150 Q 870.65087890625 160 860.65087890625 160 L 482 160 Q 472 160 472 150 L 472 130 Q 472 120 482 120 Z" stroke-miterlimit="10"/></g><g transform="translate(-62,-22) scale(1,1)"><g><path fill="none" stroke="none"/><text fill="#000000" stroke="none" font-family="Arial" font-size="13px" font-style="normal" font-weight="bold" text-decoration="none" x="492.69287109375" y="139.5">Ajuster les données et enregistrer l'emplacement des visiteurs</text></g></g><g transform="translate(-62,-22) scale(1,1)"><path fill="none" stroke="#000000" d="M 664 120 L 664 100 L 456 100 L 456 140 L 472 140" stroke-miterlimit="10"/></g><g transform="translate(-62,-22) scale(1,1)"><path fill="none" stroke="#000000" d="M 461.83732514237585 144.209517756016 L 472 140 L 461.83732514237585 135.790482243984" stroke-miterlimit="10"/></g><g transform="translate(-62,-22) scale(1,1)"><g><path fill="none" stroke="none"/><text fill="#000000" stroke="none" font-family="Arial" font-size="13px" font-style="normal" font-weight="normal" text-decoration="none" x="470.5" y="92.5">Toujours réalisé en background</text></g></g><g transform="translate(-62,-22) scale(1,1)"><path fill="#C0C0C0" stroke="none" d="M 201 183 L 395.14990234375 183 Q 405.14990234375 183 405.14990234375 193 L 405.14990234375 213 Q 405.14990234375 223 395.14990234375 223 L 201 223 Q 191 223 191 213 L 191 193 Q 191 183 201 183 Z" opacity="0.2"/></g><g transform="translate(-62,-22) scale(1,1)"><path fill="#ffffff" stroke="none" d="M 194 176 L 388.14990234375 176 Q 398.14990234375 176 398.14990234375 186 L 398.14990234375 206 Q 398.14990234375 216 388.14990234375 216 L 194 216 Q 184 216 184 206 L 184 186 Q 184 176 194 176 Z"/></g><g transform="translate(-62,-22) scale(1,1)"><path fill="none" stroke="#000000" d="M 194 176 L 388.14990234375 176 Q 398.14990234375 176 398.14990234375 186 L 398.14990234375 206 Q 398.14990234375 216 388.14990234375 216 L 194 216 Q 184 216 184 206 L 184 186 Q 184 176 194 176 Z" stroke-miterlimit="10"/></g><g transform="translate(-62,-22) scale(1,1)"><g><path fill="none" stroke="none"/><text fill="#000000" stroke="none" font-family="Arial" font-size="13px" font-style="normal" font-weight="bold" text-decoration="none" x="195.330078125" y="195.5">Consulter Dashboard &amp; Live map</text></g></g><g transform="translate(-62,-22) scale(1,1)"><path fill="#C0C0C0" stroke="none" d="M 553 239 L 775.33349609375 239 Q 785.33349609375 239 785.33349609375 249 L 785.33349609375 269 Q 785.33349609375 279 775.33349609375 279 L 553 279 Q 543 279 543 269 L 543 249 Q 543 239 553 239 Z" opacity="0.2"/></g><g transform="translate(-62,-22) scale(1,1)"><path fill="#ffffff" stroke="none" d="M 546 232 L 768.33349609375 232 Q 778.33349609375 232 778.33349609375 242 L 778.33349609375 262 Q 778.33349609375 272 768.33349609375 272 L 546 272 Q 536 272 536 262 L 536 242 Q 536 232 546 232 Z"/></g><g transform="translate(-62,-22) scale(1,1)"><path fill="none" stroke="#000000" d="M 546 232 L 768.33349609375 232 Q 778.33349609375 232 778.33349609375 242 L 778.33349609375 262 Q 778.33349609375 272 768.33349609375 272 L 546 272 Q 536 272 536 262 L 536 242 Q 536 232 546 232 Z" stroke-miterlimit="10"/></g><g transform="translate(-62,-22) scale(1,1)"><g><path fill="none" stroke="none"/><text fill="#000000" stroke="none" font-family="Arial" font-size="13px" font-style="normal" font-weight="bold" text-decoration="none" x="549.859619140625" y="251.5">Ajuster les statistiques du Dashboard</text></g></g><g transform="translate(-62,-22) scale(1,1)"><path fill="none" stroke="#000000" d="M 399 213 L 535 233" stroke-miterlimit="10"/></g><g transform="translate(-62,-22) scale(1,1)"><path fill="none" stroke="#000000" d="M 524.3330052534852 235.68611672825776 L 535 233 L 525.5579243262484 227.3566670334678" stroke-miterlimit="10"/></g><g transform="translate(-62,-22) scale(1,1)"><path fill="none" stroke="#000000" d="M 92 110 L 243 175" stroke-miterlimit="10"/></g><g transform="translate(-62,-22) scale(1,1)"><path fill="none" stroke="#000000" d="M 232.0010459083216 174.84831318728655 L 243 175 L 235.32982374970092 167.11530620192843" stroke-miterlimit="10"/></g><g transform="translate(-62,-22) scale(1,1)"><path fill="#C0C0C0" stroke="none" d="M 641 319 L 823.59716796875 319 Q 833.59716796875 319 833.59716796875 329 L 833.59716796875 349 Q 833.59716796875 359 823.59716796875 359 L 641 359 Q 631 359 631 349 L 631 329 Q 631 319 641 319 Z" opacity="0.2"/></g><g transform="translate(-62,-22) scale(1,1)"><path fill="#ffffff" stroke="none" d="M 634 312 L 816.59716796875 312 Q 826.59716796875 312 826.59716796875 322 L 826.59716796875 342 Q 826.59716796875 352 816.59716796875 352 L 634 352 Q 624 352 624 342 L 624 322 Q 624 312 634 312 Z"/></g><g transform="translate(-62,-22) scale(1,1)"><path fill="none" stroke="#000000" d="M 634 312 L 816.59716796875 312 Q 826.59716796875 312 826.59716796875 322 L 826.59716796875 342 Q 826.59716796875 352 816.59716796875 352 L 634 352 Q 624 352 624 342 L 624 322 Q 624 312 634 312 Z" stroke-miterlimit="10"/></g><g transform="translate(-62,-22) scale(1,1)"><g><path fill="none" stroke="none"/><text fill="#000000" stroke="none" font-family="Arial" font-size="13px" font-style="normal" font-weight="bold" text-decoration="none" x="635.453857421875" y="331.5">Afficher Dashboard &amp; Live map</text></g></g><g transform="translate(-62,-22) scale(1,1)"><path fill="none" stroke="#000000" d="M 675 273 L 707 311" stroke-miterlimit="10"/></g><g transform="translate(-62,-22) scale(1,1)"><path fill="none" stroke="#000000" d="M 697.2339505811872 305.9379570577379 L 707 311 L 703.6737651216855 300.51495533942347" stroke-miterlimit="10"/></g><g transform="translate(-62,-22) scale(1,1)"><path fill="none" stroke="#000000" d="M 668 161 L 660 231" stroke-miterlimit="10"/></g><g transform="translate(-62,-22) scale(1,1)"><path fill="none" stroke="#000000" d="M 656.971643660429 220.42507409574046 L 660 231 L 665.3362305138872 221.38102687899283" stroke-miterlimit="10"/></g></g></svg>