<svg version="1.1" xmlns="http://www.w3.org/2000/svg" xmlns:xlink="http://www.w3.org/1999/xlink" width="1020.7216796875" height="540"><defs/><g><g transform="translate(-54,-38) scale(1,1)"><rect fill="#C0C0C0" stroke="none" x="175" y="55" width="696" height="520" opacity="0.2"/></g><g transform="translate(-54,-38) scale(1,1)"><rect fill="#ffffff" stroke="none" x="168" y="48" width="696" height="520"/></g><g transform="translate(-54,-38) scale(1,1)"><path fill="none" stroke="#000000" d="M 168 48 L 864 48 L 864 568 L 168 568 L 168 48 Z Z" stroke-miterlimit="10"/></g><g transform="translate(-54,-38) scale(1,1)"><g><path fill="none" stroke="none"/><text fill="#000000" stroke="none" font-family="Arial" font-size="13px" font-style="normal" font-weight="bold" text-decoration="none" x="450.62548828125" y="67.5">Service Smart Tourism</text></g></g><g transform="translate(-54,-38) scale(1,1)"><path fill="#ffffff" stroke="none" d="M 82.94206516335227 217.68 C 82.94206516335227 212.886167936 86.82790748829773 209 91.621337890625 209 C 96.41476829295227 209 100.30061061789773 212.886167936 100.30061061789773 217.68 C 100.30061061789773 222.47383206400002 96.41476829295227 226.36 91.621337890625 226.36 C 86.82790748829773 226.36 82.94206516335227 222.47383206400002 82.94206516335227 217.68 Z"/></g><g transform="translate(-54,-38) scale(1,1)"><path fill="none" stroke="#000000" d="M 82.94206516335227 217.68 C 82.94206516335227 212.886167936 86.82790748829773 209 91.621337890625 209 C 96.41476829295227 209 100.30061061789773 212.886167936 100.30061061789773 217.68 C 100.30061061789773 222.47383206400002 96.41476829295227 226.36 91.621337890625 226.36 C 86.82790748829773 226.36 82.94206516335227 222.47383206400002 82.94206516335227 217.68 Z" stroke-miterlimit="10"/></g><g transform="translate(-54,-38) scale(1,1)"><path fill="none" stroke="#000000" d="M 91.621337890625 226.36 L 91.621337890625 243.64" stroke-miterlimit="10"/></g><g transform="translate(-54,-38) scale(1,1)"><path fill="none" stroke="#000000" d="M 82.43151970880682 232.84 L 100.81115607244318 232.84" stroke-miterlimit="10"/></g><g transform="translate(-54,-38) scale(1,1)"><path fill="none" stroke="#000000" d="M 91.621337890625 243.64 L 78.85770152698863 261" stroke-miterlimit="10"/></g><g transform="translate(-54,-38) scale(1,1)"><path fill="none" stroke="#000000" d="M 91.621337890625 243.64 L 104.38497425426137 261" stroke-miterlimit="10"/></g><g transform="translate(-54,-38) scale(1,1)"><g><path fill="none" stroke="none"/><text fill="#000000" stroke="none" font-family="Arial" font-size="13px" font-style="normal" font-weight="bold" text-decoration="none" x="71.03271484375" y="281.5">visiteur</text></g></g><g transform="translate(-54,-38) scale(1,1)"><path fill="#ffffff" stroke="none" d="M 975.6815671164773 345.68 C 975.6815671164773 340.886167936 979.5674094414227 337 984.36083984375 337 C 989.1542702460773 337 993.0401125710227 340.886167936 993.0401125710227 345.68 C 993.0401125710227 350.473832064 989.1542702460773 354.36 984.36083984375 354.36 C 979.5674094414227 354.36 975.6815671164773 350.473832064 975.6815671164773 345.68 Z"/></g><g transform="translate(-54,-38) scale(1,1)"><path fill="none" stroke="#000000" d="M 975.6815671164773 345.68 C 975.6815671164773 340.886167936 979.5674094414227 337 984.36083984375 337 C 989.1542702460773 337 993.0401125710227 340.886167936 993.0401125710227 345.68 C 993.0401125710227 350.473832064 989.1542702460773 354.36 984.36083984375 354.36 C 979.5674094414227 354.36 975.6815671164773 350.473832064 975.6815671164773 345.68 Z" stroke-miterlimit="10"/></g><g transform="translate(-54,-38) scale(1,1)"><path fill="none" stroke="#000000" d="M 984.36083984375 354.36 L 984.36083984375 371.64" stroke-miterlimit="10"/></g><g transform="translate(-54,-38) scale(1,1)"><path fill="none" stroke="#000000" d="M 975.1710216619318 360.84 L 993.5506580255682 360.84" stroke-miterlimit="10"/></g><g transform="translate(-54,-38) scale(1,1)"><path fill="none" stroke="#000000" d="M 984.36083984375 371.64 L 971.5972034801136 389" stroke-miterlimit="10"/></g><g transform="translate(-54,-38) scale(1,1)"><path fill="none" stroke="#000000" d="M 984.36083984375 371.64 L 997.1244762073864 389" stroke-miterlimit="10"/></g><g transform="translate(-54,-38) scale(1,1)"><g><path fill="none" stroke="none"/><text fill="#000000" stroke="none" font-family="Arial" font-size="13px" font-style="normal" font-weight="bold" text-decoration="none" x="914.635009765625" y="409.5">Secteurs public &amp; privés</text></g></g><g transform="translate(-54,-38) scale(1,1)"><path fill="#ffffff" stroke="none" d="M 80.40935031960227 489.68 C 80.40935031960227 484.886167936 84.29519264454773 481 89.088623046875 481 C 93.88205344920227 481 97.76789577414773 484.886167936 97.76789577414773 489.68 C 97.76789577414773 494.473832064 93.88205344920227 498.36 89.088623046875 498.36 C 84.29519264454773 498.36 80.40935031960227 494.473832064 80.40935031960227 489.68 Z"/></g><g transform="translate(-54,-38) scale(1,1)"><path fill="none" stroke="#000000" d="M 80.40935031960227 489.68 C 80.40935031960227 484.886167936 84.29519264454773 481 89.088623046875 481 C 93.88205344920227 481 97.76789577414773 484.886167936 97.76789577414773 489.68 C 97.76789577414773 494.473832064 93.88205344920227 498.36 89.088623046875 498.36 C 84.29519264454773 498.36 80.40935031960227 494.473832064 80.40935031960227 489.68 Z" stroke-miterlimit="10"/></g><g transform="translate(-54,-38) scale(1,1)"><path fill="none" stroke="#000000" d="M 89.088623046875 498.36 L 89.088623046875 515.64" stroke-miterlimit="10"/></g><g transform="translate(-54,-38) scale(1,1)"><path fill="none" stroke="#000000" d="M 79.89880486505682 504.84 L 98.27844122869318 504.84" stroke-miterlimit="10"/></g><g transform="translate(-54,-38) scale(1,1)"><path fill="none" stroke="#000000" d="M 89.088623046875 515.64 L 76.32498668323863 533" stroke-miterlimit="10"/></g><g transform="translate(-54,-38) scale(1,1)"><path fill="none" stroke="#000000" d="M 89.088623046875 515.64 L 101.85225941051137 533" stroke-miterlimit="10"/></g><g transform="translate(-54,-38) scale(1,1)"><g><path fill="none" stroke="none"/><text fill="#000000" stroke="none" font-family="Arial" font-size="13px" font-style="normal" font-weight="bold" text-decoration="none" x="70.66455078125" y="553.5">Admin</text></g></g><g transform="translate(-54,-38) scale(1,1)"><path fill="#C0C0C0" stroke="none" d="M 311 544 C 311 534.6111584 370.9938368 527 445 527 C 519.0061632 527 579 534.6111584 579 544 C 579 553.3888416 519.0061632 561 445 561 C 370.9938368 561 311 553.3888416 311 544 Z" opacity="0.2"/></g><g transform="translate(-54,-38) scale(1,1)"><path fill="#ffffff" stroke="none" d="M 304 537 C 304 527.6111584 363.9938368 520 438 520 C 512.0061632 520 572 527.6111584 572 537 C 572 546.3888416 512.0061632 554 438 554 C 363.9938368 554 304 546.3888416 304 537 Z"/></g><g transform="translate(-54,-38) scale(1,1)"><path fill="none" stroke="#000000" d="M 304 537 C 304 527.6111584 363.9938368 520 438 520 C 512.0061632 520 572 527.6111584 572 537 C 572 546.3888416 512.0061632 554 438 554 C 363.9938368 554 304 546.3888416 304 537 Z" stroke-miterlimit="10"/></g><g transform="translate(-54,-38) scale(1,1)"><g><path fill="none" stroke="none"/><text fill="#000000" stroke="none" font-family="Arial" font-size="13px" font-style="normal" font-weight="bold" text-decoration="none" x="377.300537109375" y="544">Service Maintenance</text></g></g><g transform="translate(-54,-38) scale(1,1)"><path fill="none" stroke="#000000" d="M 120 271 L 416 519" stroke-miterlimit="10"/></g><g transform="translate(-54,-38) scale(1,1)"><path fill="none" stroke="#000000" d="M 405.50666566313174 515.7000099250602 L 416 519 L 410.91353749298105 509.2466467733046" stroke-miterlimit="10"/></g><g transform="translate(-54,-38) scale(1,1)"><path fill="none" stroke="#000000" d="M 903 399 L 499 519" stroke-miterlimit="10"/></g><g transform="translate(-54,-38) scale(1,1)"><path fill="none" stroke="#000000" d="M 507.5434098798092 512.0710644666314 L 499 519 L 509.94060036251864 520.1416057584198" stroke-miterlimit="10"/></g><g transform="translate(-54,-38) scale(1,1)"><path fill="none" stroke="#000000" d="M 115 520 L 303 530" stroke-miterlimit="10"/></g><g transform="translate(-54,-38) scale(1,1)"><path fill="none" stroke="#000000" d="M 292.6280770794015 533.6637705890467 L 303 530 L 293.07526594067383 525.2566199971275" stroke-miterlimit="10"/></g><g transform="translate(-54,-38) scale(1,1)"><path fill="#C0C0C0" stroke="none" d="M 271 127 C 271 113.7451648 331.8892672 103 407 103 C 482.1107328 103 543 113.7451648 543 127 C 543 140.2548352 482.1107328 151 407 151 C 331.8892672 151 271 140.2548352 271 127 Z" opacity="0.2"/></g><g transform="translate(-54,-38) scale(1,1)"><path fill="#ffffff" stroke="none" d="M 264 120 C 264 106.7451648 324.8892672 96 400 96 C 475.1107328 96 536 106.7451648 536 120 C 536 133.2548352 475.1107328 144 400 144 C 324.8892672 144 264 133.2548352 264 120 Z"/></g><g transform="translate(-54,-38) scale(1,1)"><path fill="none" stroke="#000000" d="M 264 120 C 264 106.7451648 324.8892672 96 400 96 C 475.1107328 96 536 106.7451648 536 120 C 536 133.2548352 475.1107328 144 400 144 C 324.8892672 144 264 133.2548352 264 120 Z" stroke-miterlimit="10"/></g><g transform="translate(-54,-38) scale(1,1)"><g><path fill="none" stroke="none"/><text fill="#000000" stroke="none" font-family="Arial" font-size="13px" font-style="normal" font-weight="bold" text-decoration="none" x="330.635986328125" y="127">Service Album Souvenir</text></g></g><g transform="translate(-54,-38) scale(1,1)"><path fill="none" stroke="#000000" d="M 120 235 L 339 145" stroke-miterlimit="10"/></g><g transform="translate(-54,-38) scale(1,1)"><path fill="none" stroke="#000000" d="M 331.20022272019787 152.7565117408203 L 339 145 L 328.0000425434201 144.96940664399426" stroke-miterlimit="10"/></g><g transform="translate(-54,-38) scale(1,1)"><path fill="#C0C0C0" stroke="none" d="M 279 224 C 279 210.19288 323.77152 199 379 199 C 434.22848 199 479 210.19288 479 224 C 479 237.80712 434.22848 249 379 249 C 323.77152 249 279 237.80712 279 224 Z" opacity="0.2"/></g><g transform="translate(-54,-38) scale(1,1)"><path fill="#ffffff" stroke="none" d="M 272 217 C 272 203.19288 316.77152 192 372 192 C 427.22848 192 472 203.19288 472 217 C 472 230.80712 427.22848 242 372 242 C 316.77152 242 272 230.80712 272 217 Z"/></g><g transform="translate(-54,-38) scale(1,1)"><path fill="none" stroke="#000000" d="M 272 217 C 272 203.19288 316.77152 192 372 192 C 427.22848 192 472 203.19288 472 217 C 472 230.80712 427.22848 242 372 242 C 316.77152 242 272 230.80712 272 217 Z" stroke-miterlimit="10"/></g><g transform="translate(-54,-38) scale(1,1)"><g><path fill="none" stroke="none"/><text fill="#000000" stroke="none" font-family="Arial" font-size="13px" font-style="normal" font-weight="bold" text-decoration="none" x="331.175048828125" y="224">Service Guide</text></g></g><g transform="translate(-54,-38) scale(1,1)"><path fill="none" stroke="#000000" d="M 120 244 L 271 228" stroke-miterlimit="10"/></g><g transform="translate(-54,-38) scale(1,1)"><path fill="none" stroke="#000000" d="M 261.33745881813644 233.25692856226814 L 271 228 L 260.450341772217 224.88476144140304" stroke-miterlimit="10"/></g><g transform="translate(-54,-38) scale(1,1)"><path fill="#C0C0C0" stroke="none" d="M 271 400 C 271 390.6111584 337.9334224 383 420.5 383 C 503.0665776 383 570 390.6111584 570 400 C 570 409.3888416 503.0665776 417 420.5 417 C 337.9334224 417 271 409.3888416 271 400 Z" opacity="0.2"/></g><g transform="translate(-54,-38) scale(1,1)"><path fill="#ffffff" stroke="none" d="M 264 393 C 264 383.6111584 330.9334224 376 413.5 376 C 496.0665776 376 563 383.6111584 563 393 C 563 402.3888416 496.0665776 410 413.5 410 C 330.9334224 410 264 402.3888416 264 393 Z"/></g><g transform="translate(-54,-38) scale(1,1)"><path fill="none" stroke="#000000" d="M 264 393 C 264 383.6111584 330.9334224 376 413.5 376 C 496.0665776 376 563 383.6111584 563 393 C 563 402.3888416 496.0665776 410 413.5 410 C 330.9334224 410 264 402.3888416 264 393 Z" stroke-miterlimit="10"/></g><g transform="translate(-54,-38) scale(1,1)"><g><path fill="none" stroke="none"/><text fill="#000000" stroke="none" font-family="Arial" font-size="13px" font-style="normal" font-weight="bold" text-decoration="none" x="320.291015625" y="400">Service Evénements &amp; festivaux</text></g></g><g transform="translate(-54,-38) scale(1,1)"><path fill="none" stroke="#000000" d="M 903 378 L 564 388" stroke-miterlimit="10"/></g><g transform="translate(-54,-38) scale(1,1)"><path fill="none" stroke="#000000" d="M 574.0341355751827 383.4926589591144 L 564 388 L 574.2823767236875 391.9080338934263" stroke-miterlimit="10"/></g><g transform="translate(-54,-38) scale(1,1)"><path fill="none" stroke="#000000" d="M 120 260 L 373 375" stroke-miterlimit="10"/></g><g transform="translate(-54,-38) scale(1,1)"><path fill="none" stroke="#000000" d="M 362.0063306467394 374.62685907330007 L 373 375 L 365.49015232979445 366.96245137057895" stroke-miterlimit="10"/></g><g transform="translate(-54,-38) scale(1,1)"><path fill="#C0C0C0" stroke="none" d="M 295 312 C 295 302.6111584 335.0705104 295 384.5 295 C 433.9294896 295 474 302.6111584 474 312 C 474 321.3888416 433.9294896 329 384.5 329 C 335.0705104 329 295 321.3888416 295 312 Z" opacity="0.2"/></g><g transform="translate(-54,-38) scale(1,1)"><path fill="#ffffff" stroke="none" d="M 288 305 C 288 295.6111584 328.0705104 288 377.5 288 C 426.9294896 288 467 295.6111584 467 305 C 467 314.3888416 426.9294896 322 377.5 322 C 328.0705104 322 288 314.3888416 288 305 Z"/></g><g transform="translate(-54,-38) scale(1,1)"><path fill="none" stroke="#000000" d="M 288 305 C 288 295.6111584 328.0705104 288 377.5 288 C 426.9294896 288 467 295.6111584 467 305 C 467 314.3888416 426.9294896 322 377.5 322 C 328.0705104 322 288 314.3888416 288 305 Z" stroke-miterlimit="10"/></g><g transform="translate(-54,-38) scale(1,1)"><g><path fill="none" stroke="none"/><text fill="#000000" stroke="none" font-family="Arial" font-size="13px" font-style="normal" font-weight="bold" text-decoration="none" x="322.221435546875" y="312">Service Dashboard</text></g></g><g transform="translate(-54,-38) scale(1,1)"><path fill="none" stroke="#000000" d="M 120 253 L 288 287" stroke-miterlimit="10"/></g><g transform="translate(-54,-38) scale(1,1)"><path fill="none" stroke="#000000" d="M 277.2042664201966 289.1100086430877 L 288 287 L 278.8742621579481 280.85826499772725" stroke-miterlimit="10"/></g><g transform="translate(-54,-38) scale(1,1)"><path fill="none" stroke="#000000" d="M 903 366 L 468 315" stroke-miterlimit="10"/></g><g transform="translate(-54,-38) scale(1,1)"><path fill="none" stroke="#000000" d="M 478.5837133499697 312.0024990866268 L 468 315 L 477.6033687023572 320.3642622574391" stroke-miterlimit="10"/></g><g transform="translate(-54,-38) scale(1,1)"><path fill="none" stroke="#000000" d="M 373 243 L 376 287" stroke-miterlimit="10" stroke-dasharray="3"/></g><g transform="translate(-54,-38) scale(1,1)"><path fill="none" stroke="#000000" d="M 371.1089281230779 277.1472127854712 L 376 287 L 379.508462561539 276.57451725557615" stroke-miterlimit="10"/></g><g transform="translate(-54,-38) scale(1,1)"><g><path fill="none" stroke="none"/><text fill="#000000" stroke="none" font-family="Arial" font-size="13px" font-style="normal" font-weight="normal" text-decoration="none" x="375.5" y="268.5">«include»</text></g></g><g transform="translate(-54,-38) scale(1,1)"><path fill="none" stroke="#000000" d="M 406 375 L 384 323" stroke-miterlimit="10" stroke-dasharray="3"/></g><g transform="translate(-54,-38) scale(1,1)"><path fill="none" stroke="#000000" d="M 391.8366125344833 330.7192942672487 L 384 323 L 384.0829565423187 333.99968718701064" stroke-miterlimit="10"/></g><g transform="translate(-54,-38) scale(1,1)"><g><path fill="none" stroke="none"/><text fill="#000000" stroke="none" font-family="Arial" font-size="13px" font-style="normal" font-weight="normal" text-decoration="none" x="395.5" y="354.5">«include»</text></g></g><g transform="translate(-54,-38) scale(1,1)"><path fill="#C0C0C0" stroke="none" d="M 687 168 C 687 158.6111584 721.2502128 151 763.5 151 C 805.7497872 151 840 158.6111584 840 168 C 840 177.3888416 805.7497872 185 763.5 185 C 721.2502128 185 687 177.3888416 687 168 Z" opacity="0.2"/></g><g transform="translate(-54,-38) scale(1,1)"><path fill="#ffffff" stroke="none" d="M 680 161 C 680 151.6111584 714.2502128 144 756.5 144 C 798.7497872 144 833 151.6111584 833 161 C 833 170.3888416 798.7497872 178 756.5 178 C 714.2502128 178 680 170.3888416 680 161 Z"/></g><g transform="translate(-54,-38) scale(1,1)"><path fill="none" stroke="#000000" d="M 680 161 C 680 151.6111584 714.2502128 144 756.5 144 C 798.7497872 144 833 151.6111584 833 161 C 833 170.3888416 798.7497872 178 756.5 178 C 714.2502128 178 680 170.3888416 680 161 Z" stroke-miterlimit="10"/></g><g transform="translate(-54,-38) scale(1,1)"><g><path fill="none" stroke="none"/><text fill="#000000" stroke="none" font-family="Arial" font-size="13px" font-style="normal" font-weight="bold" text-decoration="none" x="712.0537109375" y="168">Authentification</text></g></g><g transform="translate(-54,-38) scale(1,1)"><path fill="none" stroke="#000000" d="M 537 136 L 679 152" stroke-miterlimit="10" stroke-dasharray="3"/></g><g transform="translate(-54,-38) scale(1,1)"><path fill="none" stroke="#000000" d="M 668.4299000874786 155.04515809758945 L 679 152 L 669.3725587334461 146.6790626146274" stroke-miterlimit="10"/></g><g transform="translate(-54,-38) scale(1,1)"><g><path fill="none" stroke="none"/><text fill="#000000" stroke="none" font-family="Arial" font-size="13px" font-style="normal" font-weight="normal" text-decoration="none" x="583.5" y="140.5">«include»</text></g></g><g transform="translate(-54,-38) scale(1,1)"><path fill="none" stroke="#000000" d="M 473 202 L 679 172" stroke-miterlimit="10" stroke-dasharray="3"/></g><g transform="translate(-54,-38) scale(1,1)"><path fill="none" stroke="#000000" d="M 669.5500451980619 177.6301291496134 L 679 172 L 668.3367703769954 169.29897537829086" stroke-miterlimit="10"/></g><g transform="translate(-54,-38) scale(1,1)"><g><path fill="none" stroke="none"/><text fill="#000000" stroke="none" font-family="Arial" font-size="13px" font-style="normal" font-weight="normal" text-decoration="none" x="543.5" y="179.5">«include»</text></g></g><g transform="translate(-54,-38) scale(1,1)"><path fill="none" stroke="#000000" d="M 424 287 L 709 179" stroke-miterlimit="10" stroke-dasharray="3"/></g><g transform="translate(-54,-38) scale(1,1)"><path fill="none" stroke="#000000" d="M 700.9884549159643 186.53758219633218 L 709 179 L 698.0051066585191 178.6648576280741" stroke-miterlimit="10"/></g><g transform="translate(-54,-38) scale(1,1)"><g><path fill="none" stroke="none"/><text fill="#000000" stroke="none" font-family="Arial" font-size="13px" font-style="normal" font-weight="normal" text-decoration="none" x="527.5" y="227.5">«include»</text></g></g><g transform="translate(-54,-38) scale(1,1)"><path fill="none" stroke="#000000" d="M 440 375 L 729 179" stroke-miterlimit="10" stroke-dasharray="3"/></g><g transform="translate(-54,-38) scale(1,1)"><path fill="none" stroke="#000000" d="M 722.951949954697 188.1880950500912 L 729 179 L 718.2264184839046 181.2203471161167" stroke-miterlimit="10"/></g><g transform="translate(-54,-38) scale(1,1)"><g><path fill="none" stroke="none"/><text fill="#000000" stroke="none" font-family="Arial" font-size="13px" font-style="normal" font-weight="normal" text-decoration="none" x="538.5" y="272.5">«include»</text></g></g><g transform="translate(-54,-38) scale(1,1)"><path fill="none" stroke="#000000" d="M 453 519 L 741 179" stroke-miterlimit="10" stroke-dasharray="3"/></g><g transform="translate(-54,-38) scale(1,1)"><path fill="none" stroke="#000000" d="M 737.6434646014599 189.4753840081568 L 741 179 L 731.2193559906988 184.03378612610035" stroke-miterlimit="10"/></g><g transform="translate(-54,-38) scale(1,1)"><g><path fill="none" stroke="none"/><text fill="#000000" stroke="none" font-family="Arial" font-size="13px" font-style="normal" font-weight="normal" text-decoration="none" x="591.5" y="292.5">«include»</text></g></g></g></svg>