<svg version="1.1" xmlns="http://www.w3.org/2000/svg" xmlns:xlink="http://www.w3.org/1999/xlink" width="1004" height="573"><defs/><g><g transform="translate(-38,-22) scale(1,1)"><rect fill="#ffffff" stroke="none" x="120" y="32" width="343" height="21"/></g><g transform="translate(-38,-22) scale(1,1)"><path fill="none" stroke="#000000" d="M 120 32 L 463 32 L 463 53 L 120 53 L 120 32 Z Z" stroke-miterlimit="10" stroke-width="2"/></g><g transform="translate(-38,-22) scale(1,1)"><path fill="none" stroke="#000000" d="M 120 536 L 120 32 L 463 32 L 463 536" stroke-miterlimit="10" stroke-width="2"/></g><g transform="translate(-38,-22) scale(1,1)"><g><path fill="none" stroke="none"/><text fill="#000000" stroke="none" font-family="Arial" font-size="13px" font-style="normal" font-weight="normal" text-decoration="none" x="266.693359375" y="49">Visiteurs</text></g></g><g transform="translate(-38,-22) scale(1,1)"><rect fill="#ffffff" stroke="none" x="464" y="32" width="568" height="21"/></g><g transform="translate(-38,-22) scale(1,1)"><path fill="none" stroke="#000000" d="M 464 32 L 1032 32 L 1032 53 L 464 53 L 464 32 Z Z" stroke-miterlimit="10" stroke-width="2"/></g><g transform="translate(-38,-22) scale(1,1)"><path fill="none" stroke="#000000" d="M 464 536 L 464 32 L 1032 32 L 1032 536" stroke-miterlimit="10" stroke-width="2"/></g><g transform="translate(-38,-22) scale(1,1)"><g><path fill="none" stroke="none"/><text fill="#000000" stroke="none" font-family="Arial" font-size="13px" font-style="normal" font-weight="normal" text-decoration="none" x="726.3291015625" y="49">System</text></g></g><g transform="translate(-38,-22) scale(1,1)"><path fill="#C0C0C0" stroke="none" d="M 249 95 L 357.17724609375 95 Q 367.17724609375 95 367.17724609375 105 L 367.17724609375 125 Q 367.17724609375 135 357.17724609375 135 L 249 135 Q 239 135 239 125 L 239 105 Q 239 95 249 95 Z" opacity="0.2"/></g><g transform="translate(-38,-22) scale(1,1)"><path fill="#ffffff" stroke="none" d="M 242 88 L 350.17724609375 88 Q 360.17724609375 88 360.17724609375 98 L 360.17724609375 118 Q 360.17724609375 128 350.17724609375 128 L 242 128 Q 232 128 232 118 L 232 98 Q 232 88 242 88 Z"/></g><g transform="translate(-38,-22) scale(1,1)"><path fill="none" stroke="#000000" d="M 242 88 L 350.17724609375 88 Q 360.17724609375 88 360.17724609375 98 L 360.17724609375 118 Q 360.17724609375 128 350.17724609375 128 L 242 128 Q 232 128 232 118 L 232 98 Q 232 88 242 88 Z" stroke-miterlimit="10"/></g><g transform="translate(-38,-22) scale(1,1)"><g><path fill="none" stroke="none"/><text fill="#000000" stroke="none" font-family="Arial" font-size="13px" font-style="normal" font-weight="bold" text-decoration="none" x="241.536865234375" y="107.5">Choisir Destination</text></g></g><g transform="translate(-38,-22) scale(1,1)"><path fill="#C0C0C0" stroke="none" d="M 55 88.5 C 55 83.2532944 59.2532944 79 64.5 79 C 69.7467056 79 74 83.2532944 74 88.5 C 74 93.7467056 69.7467056 98 64.5 98 C 59.2532944 98 55 93.7467056 55 88.5 Z" opacity="0.2"/></g><g transform="translate(-38,-22) scale(1,1)"><path fill="#000000" stroke="none" d="M 48 81.5 C 48 76.2532944 52.2532944 72 57.5 72 C 62.7467056 72 67 76.2532944 67 81.5 C 67 86.7467056 62.7467056 91 57.5 91 C 52.2532944 91 48 86.7467056 48 81.5 Z"/></g><g transform="translate(-38,-22) scale(1,1)"><path fill="none" stroke="#000000" d="M 68 82 L 231 101" stroke-miterlimit="10"/></g><g transform="translate(-38,-22) scale(1,1)"><path fill="none" stroke="#000000" d="M 220.41829084693012 104.00456842156021 L 231 101 L 221.39305099589632 95.64215240674471" stroke-miterlimit="10"/></g><g transform="translate(-38,-22) scale(1,1)"><path fill="#C0C0C0" stroke="none" d="M 529 463 L 1014.3232421875 463 Q 1024.3232421875 463 1024.3232421875 473 L 1024.3232421875 493 Q 1024.3232421875 503 1014.3232421875 503 L 529 503 Q 519 503 519 493 L 519 473 Q 519 463 529 463 Z" opacity="0.2"/></g><g transform="translate(-38,-22) scale(1,1)"><path fill="#ffffff" stroke="none" d="M 522 456 L 1007.3232421875 456 Q 1017.3232421875 456 1017.3232421875 466 L 1017.3232421875 486 Q 1017.3232421875 496 1007.3232421875 496 L 522 496 Q 512 496 512 486 L 512 466 Q 512 456 522 456 Z"/></g><g transform="translate(-38,-22) scale(1,1)"><path fill="none" stroke="#000000" d="M 522 456 L 1007.3232421875 456 Q 1017.3232421875 456 1017.3232421875 466 L 1017.3232421875 486 Q 1017.3232421875 496 1007.3232421875 496 L 522 496 Q 512 496 512 486 L 512 466 Q 512 456 522 456 Z" stroke-miterlimit="10"/></g><g transform="translate(-38,-22) scale(1,1)"><g><path fill="none" stroke="none"/><text fill="#000000" stroke="none" font-family="Arial" font-size="13px" font-style="normal" font-weight="bold" text-decoration="none" x="536.685546875" y="475.5">Pousser des notifications avec des informations des lieux visités durant le trajet</text></g></g><g transform="translate(-38,-22) scale(1,1)"><path fill="#C0C0C0" stroke="none" d="M 857 343 L 939.9453125 343 Q 949.9453125 343 949.9453125 353 L 949.9453125 373 Q 949.9453125 383 939.9453125 383 L 857 383 Q 847 383 847 373 L 847 353 Q 847 343 857 343 Z" opacity="0.2"/></g><g transform="translate(-38,-22) scale(1,1)"><path fill="#ffffff" stroke="none" d="M 850 336 L 932.9453125 336 Q 942.9453125 336 942.9453125 346 L 942.9453125 366 Q 942.9453125 376 932.9453125 376 L 850 376 Q 840 376 840 366 L 840 346 Q 840 336 850 336 Z"/></g><g transform="translate(-38,-22) scale(1,1)"><path fill="none" stroke="#000000" d="M 850 336 L 932.9453125 336 Q 942.9453125 336 942.9453125 346 L 942.9453125 366 Q 942.9453125 376 932.9453125 376 L 850 376 Q 840 376 840 366 L 840 346 Q 840 336 850 336 Z" stroke-miterlimit="10"/></g><g transform="translate(-38,-22) scale(1,1)"><g><path fill="none" stroke="none"/><text fill="#000000" stroke="none" font-family="Arial" font-size="13px" font-style="normal" font-weight="bold" text-decoration="none" x="849.81298828125" y="355.5">Tracer le trajet</text></g></g><g transform="translate(-38,-22) scale(1,1)"><path fill="#C0C0C0" stroke="none" d="M 561 143 L 910.470703125 143 Q 920.470703125 143 920.470703125 153 L 920.470703125 173 Q 920.470703125 183 910.470703125 183 L 561 183 Q 551 183 551 173 L 551 153 Q 551 143 561 143 Z" opacity="0.2"/></g><g transform="translate(-38,-22) scale(1,1)"><path fill="#ffffff" stroke="none" d="M 554 136 L 903.470703125 136 Q 913.470703125 136 913.470703125 146 L 913.470703125 166 Q 913.470703125 176 903.470703125 176 L 554 176 Q 544 176 544 166 L 544 146 Q 544 136 554 136 Z"/></g><g transform="translate(-38,-22) scale(1,1)"><path fill="none" stroke="#000000" d="M 554 136 L 903.470703125 136 Q 913.470703125 136 913.470703125 146 L 913.470703125 166 Q 913.470703125 176 903.470703125 176 L 554 176 Q 544 176 544 166 L 544 146 Q 544 136 554 136 Z" stroke-miterlimit="10"/></g><g transform="translate(-38,-22) scale(1,1)"><g><path fill="none" stroke="none"/><text fill="#000000" stroke="none" font-family="Arial" font-size="13px" font-style="normal" font-weight="bold" text-decoration="none" x="561.78564453125" y="155.5">analyser les données du dashboard pour cette destination</text></g></g><g transform="translate(-38,-22) scale(1,1)"><path fill="#C0C0C0" stroke="none" d="M 513 255 L 694.1435546875 255 Q 704.1435546875 255 704.1435546875 265 L 704.1435546875 285 Q 704.1435546875 295 694.1435546875 295 L 513 295 Q 503 295 503 285 L 503 265 Q 503 255 513 255 Z" opacity="0.2"/></g><g transform="translate(-38,-22) scale(1,1)"><path fill="#ffffff" stroke="none" d="M 506 248 L 687.1435546875 248 Q 697.1435546875 248 697.1435546875 258 L 697.1435546875 278 Q 697.1435546875 288 687.1435546875 288 L 506 288 Q 496 288 496 278 L 496 258 Q 496 248 506 248 Z"/></g><g transform="translate(-38,-22) scale(1,1)"><path fill="none" stroke="#000000" d="M 506 248 L 687.1435546875 248 Q 697.1435546875 248 697.1435546875 258 L 697.1435546875 278 Q 697.1435546875 288 687.1435546875 288 L 506 288 Q 496 288 496 278 L 496 258 Q 496 248 506 248 Z" stroke-miterlimit="10"/></g><g transform="translate(-38,-22) scale(1,1)"><g><path fill="none" stroke="none"/><text fill="#000000" stroke="none" font-family="Arial" font-size="13px" font-style="normal" font-weight="bold" text-decoration="none" x="507.67919921875" y="267.5">Proposer une autre destination</text></g></g><g transform="translate(-38,-22) scale(1,1)"><path fill="#C0C0C0" stroke="none" d="M 727 224.5 L 738.5 215 L 749 224.5 L 738.5 233 L 727 224.5" opacity="0.2"/></g><g transform="translate(-38,-22) scale(1,1)"><path fill="#ffffff" stroke="none" d="M 720 217 L 731 208 L 742 217 L 731 226 L 720 217"/></g><g transform="translate(-38,-22) scale(1,1)"><path fill="none" stroke="#000000" d="M 720 217 L 731 208 L 742 217 L 731 226 L 720 217 L 720 217" stroke-miterlimit="10"/></g><g transform="translate(-38,-22) scale(1,1)"><path fill="none" stroke="#000000" d="M 361 115 L 543 135" stroke-miterlimit="10"/></g><g transform="translate(-38,-22) scale(1,1)"><path fill="none" stroke="#000000" d="M 532.4383199659164 138.07423402779287 L 543 135 L 533.3579526991701 129.70557615518368" stroke-miterlimit="10"/></g><g transform="translate(-38,-22) scale(1,1)"><path fill="none" stroke="#000000" d="M 729 177 L 731 207" stroke-miterlimit="10"/></g><g transform="translate(-38,-22) scale(1,1)"><path fill="none" stroke="#000000" d="M 726.1237945855094 197.13984681885253 L 731 207 L 734.5241832628826 196.57982090702765" stroke-miterlimit="10"/></g><g transform="translate(-38,-22) scale(1,1)"><path fill="none" stroke="#000000" d="M 719 222 L 652 247" stroke-miterlimit="10"/></g><g transform="translate(-38,-22) scale(1,1)"><path fill="none" stroke="#000000" d="M 660.0498289244346 239.50331711439406 L 652 247 L 662.9930439246764 247.39113331504217" stroke-miterlimit="10"/></g><g transform="translate(-38,-22) scale(1,1)"><g><path fill="none" stroke="none"/><text fill="#000000" stroke="none" font-family="Arial" font-size="13px" font-style="normal" font-weight="normal" text-decoration="none" x="512.0849609375" y="235.5">[destination pleine ou fermée]</text></g></g><g transform="translate(-38,-22) scale(1,1)"><path fill="none" stroke="#000000" d="M 743 227 L 867 335" stroke-miterlimit="10"/></g><g transform="translate(-38,-22) scale(1,1)"><path fill="none" stroke="#000000" d="M 856.5717837178264 331.49967070517494 L 867 335 L 862.1012441319518 325.1510309704384" stroke-miterlimit="10"/></g><g transform="translate(-38,-22) scale(1,1)"><g><path fill="none" stroke="none"/><text fill="#000000" stroke="none" font-family="Arial" font-size="13px" font-style="normal" font-weight="normal" text-decoration="none" x="803.5" y="280.5">[else]</text></g></g><g transform="translate(-38,-22) scale(1,1)"><path fill="#C0C0C0" stroke="none" d="M 161 327 L 299.51904296875 327 Q 309.51904296875 327 309.51904296875 337 L 309.51904296875 357 Q 309.51904296875 367 299.51904296875 367 L 161 367 Q 151 367 151 357 L 151 337 Q 151 327 161 327 Z" opacity="0.2"/></g><g transform="translate(-38,-22) scale(1,1)"><path fill="#ffffff" stroke="none" d="M 154 320 L 292.51904296875 320 Q 302.51904296875 320 302.51904296875 330 L 302.51904296875 350 Q 302.51904296875 360 292.51904296875 360 L 154 360 Q 144 360 144 350 L 144 330 Q 144 320 154 320 Z"/></g><g transform="translate(-38,-22) scale(1,1)"><path fill="none" stroke="#000000" d="M 154 320 L 292.51904296875 320 Q 302.51904296875 320 302.51904296875 330 L 302.51904296875 350 Q 302.51904296875 360 292.51904296875 360 L 154 360 Q 144 360 144 350 L 144 330 Q 144 320 154 320 Z" stroke-miterlimit="10"/></g><g transform="translate(-38,-22) scale(1,1)"><g><path fill="none" stroke="none"/><text fill="#000000" stroke="none" font-family="Arial" font-size="13px" font-style="normal" font-weight="bold" text-decoration="none" x="154.615966796875" y="339.5">Confirmer la destination</text></g></g><g transform="translate(-38,-22) scale(1,1)"><path fill="none" stroke="#000000" d="M 495 266 L 439 265" stroke-miterlimit="10"/></g><g transform="translate(-38,-22) scale(1,1)"><path fill="none" stroke="#000000" d="M 449.23621289838786 260.9726006531661 L 439 265 L 449.08589694281176 269.3902941654267" stroke-miterlimit="10"/></g><g transform="translate(-38,-22) scale(1,1)"><path fill="none" stroke="#000000" d="M 419 255 L 314 129" stroke-miterlimit="10"/></g><g transform="translate(-38,-22) scale(1,1)"><path fill="none" stroke="#000000" d="M 323.7398270197279 134.11231548574403 L 314 129 L 317.27214478569897 139.50205068076818" stroke-miterlimit="10"/></g><g transform="translate(-38,-22) scale(1,1)"><g><path fill="none" stroke="none"/><text fill="#000000" stroke="none" font-family="Arial" font-size="13px" font-style="normal" font-weight="normal" text-decoration="none" x="338.5" y="207.5">[else]</text></g></g><g transform="translate(-38,-22) scale(1,1)"><path fill="none" stroke="#000000" d="M 415 269 L 280 319" stroke-miterlimit="10"/></g><g transform="translate(-38,-22) scale(1,1)"><path fill="none" stroke="#000000" d="M 288.0680098056163 311.5228870694312 L 280 319 L 290.99206170113365 319.41782718732804" stroke-miterlimit="10"/></g><g transform="translate(-38,-22) scale(1,1)"><g><path fill="none" stroke="none"/><text fill="#000000" stroke="none" font-family="Arial" font-size="13px" font-style="normal" font-weight="normal" text-decoration="none" x="318.5" y="315.5">[destination acceptée]</text></g></g><g transform="translate(-38,-22) scale(1,1)"><path fill="#C0C0C0" stroke="none" d="M 423 272.5 L 434.5 263 L 445 272.5 L 434.5 281 L 423 272.5" opacity="0.2"/></g><g transform="translate(-38,-22) scale(1,1)"><path fill="#ffffff" stroke="none" d="M 416 265 L 427 256 L 438 265 L 427 274 L 416 265"/></g><g transform="translate(-38,-22) scale(1,1)"><path fill="none" stroke="#000000" d="M 416 265 L 427 256 L 438 265 L 427 274 L 416 265 L 416 265" stroke-miterlimit="10"/></g><g transform="translate(-38,-22) scale(1,1)"><path fill="none" stroke="#000000" d="M 304 342 L 839 355" stroke-miterlimit="10"/></g><g transform="translate(-38,-22) scale(1,1)"><path fill="none" stroke="#000000" d="M 828.7380668993612 358.9614049323459 L 839 355 L 828.942581225768 350.5448538071432" stroke-miterlimit="10"/></g><g transform="translate(-38,-22) scale(1,1)"><path fill="none" stroke="#000000" d="M 869 377 L 786 455" stroke-miterlimit="10"/></g><g transform="translate(-38,-22) scale(1,1)"><path fill="none" stroke="#000000" d="M 790.5229481805201 444.97288976043797 L 786 455 L 796.2884449755005 451.10796968330175" stroke-miterlimit="10"/></g><g transform="translate(-38,-22) scale(1,1)"><path fill="#C0C0C0" stroke="none" d="M 575 579.5 C 575 572.59644 580.59644 567 587.5 567 C 594.40356 567 600 572.59644 600 579.5 C 600 586.40356 594.40356 592 587.5 592 C 580.59644 592 575 586.40356 575 579.5 Z" opacity="0.2"/></g><g transform="translate(-38,-22) scale(1,1)"><path fill="none" stroke="#000000" d="M 568 572.5 C 568 565.59644 573.59644 560 580.5 560 C 587.40356 560 593 565.59644 593 572.5 C 593 579.40356 587.40356 585 580.5 585 C 573.59644 585 568 579.40356 568 572.5 Z" stroke-miterlimit="10"/></g><g transform="translate(-38,-22) scale(1,1)"><path fill="#000000" stroke="none" d="M 573 572.5 C 573 568.357864 576.357864 565 580.5 565 C 584.642136 565 588 568.357864 588 572.5 C 588 576.642136 584.642136 580 580.5 580 C 576.357864 580 573 576.642136 573 572.5 Z"/></g><g transform="translate(-38,-22) scale(1,1)"><path fill="none" stroke="#000000" d="M 724 497 L 594 565" stroke-miterlimit="10"/></g><g transform="translate(-38,-22) scale(1,1)"><path fill="none" stroke="#000000" d="M 601.0540269601847 556.5595791784422 L 594 565 L 604.956229097211 564.0196714992277" stroke-miterlimit="10"/></g><g transform="translate(-38,-22) scale(1,1)"><path fill="none" stroke="#000000" d="M 764 456 L 764 436 L 480 436 L 480 476 L 512 476" stroke-miterlimit="10"/></g><g transform="translate(-38,-22) scale(1,1)"><path fill="none" stroke="#000000" d="M 501.83732514237585 480.209517756016 L 512 476 L 501.83732514237585 471.790482243984" stroke-miterlimit="10"/></g></g></svg>