<svg version="1.1" xmlns="http://www.w3.org/2000/svg" xmlns:xlink="http://www.w3.org/1999/xlink" width="675" height="411"><defs/><g><g transform="translate(-22,-6) scale(1,1)"><rect fill="#C0C0C0" stroke="none" x="183" y="23" width="511" height="391" opacity="0.2"/></g><g transform="translate(-22,-6) scale(1,1)"><rect fill="#ffffff" stroke="none" x="176" y="16" width="511" height="391"/></g><g transform="translate(-22,-6) scale(1,1)"><path fill="none" stroke="#000000" d="M 176 16 L 687 16 L 687 407 L 176 407 L 176 16 Z Z" stroke-miterlimit="10"/></g><g transform="translate(-22,-6) scale(1,1)"><g><path fill="none" stroke="none"/><text fill="#000000" stroke="none" font-family="Arial" font-size="13px" font-style="normal" font-weight="bold" text-decoration="none" x="362.135986328125" y="35.5">Service Album Souvenir</text></g></g><g transform="translate(-22,-6) scale(1,1)"><path fill="#ffffff" stroke="none" d="M 51.54509250710227 177.68 C 51.54509250710227 172.886167936 55.430934832047726 169 60.224365234375 169 C 65.01779563670227 169 68.90363796164773 172.886167936 68.90363796164773 177.68 C 68.90363796164773 182.47383206400002 65.01779563670227 186.36 60.224365234375 186.36 C 55.430934832047726 186.36 51.54509250710227 182.47383206400002 51.54509250710227 177.68 Z"/></g><g transform="translate(-22,-6) scale(1,1)"><path fill="none" stroke="#000000" d="M 51.54509250710227 177.68 C 51.54509250710227 172.886167936 55.430934832047726 169 60.224365234375 169 C 65.01779563670227 169 68.90363796164773 172.886167936 68.90363796164773 177.68 C 68.90363796164773 182.47383206400002 65.01779563670227 186.36 60.224365234375 186.36 C 55.430934832047726 186.36 51.54509250710227 182.47383206400002 51.54509250710227 177.68 Z" stroke-miterlimit="10"/></g><g transform="translate(-22,-6) scale(1,1)"><path fill="none" stroke="#000000" d="M 60.224365234375 186.36 L 60.224365234375 203.64" stroke-miterlimit="10"/></g><g transform="translate(-22,-6) scale(1,1)"><path fill="none" stroke="#000000" d="M 51.03454705255682 192.84 L 69.41418341619318 192.84" stroke-miterlimit="10"/></g><g transform="translate(-22,-6) scale(1,1)"><path fill="none" stroke="#000000" d="M 60.224365234375 203.64 L 47.460728870738635 221" stroke-miterlimit="10"/></g><g transform="translate(-22,-6) scale(1,1)"><path fill="none" stroke="#000000" d="M 60.224365234375 203.64 L 72.98800159801137 221" stroke-miterlimit="10"/></g><g transform="translate(-22,-6) scale(1,1)"><g><path fill="none" stroke="none"/><text fill="#000000" stroke="none" font-family="Arial" font-size="13px" font-style="normal" font-weight="bold" text-decoration="none" x="38.667724609375" y="241.5">Visiteur</text></g></g><g transform="translate(-22,-6) scale(1,1)"><path fill="#C0C0C0" stroke="none" d="M 311 120 C 311 110.6111584 363.1588208 103 427.5 103 C 491.8411792 103 544 110.6111584 544 120 C 544 129.3888416 491.8411792 137 427.5 137 C 363.1588208 137 311 129.3888416 311 120 Z" opacity="0.2"/></g><g transform="translate(-22,-6) scale(1,1)"><path fill="#ffffff" stroke="none" d="M 304 113 C 304 103.6111584 356.1588208 96 420.5 96 C 484.8411792 96 537 103.6111584 537 113 C 537 122.3888416 484.8411792 130 420.5 130 C 356.1588208 130 304 122.3888416 304 113 Z"/></g><g transform="translate(-22,-6) scale(1,1)"><path fill="none" stroke="#000000" d="M 304 113 C 304 103.6111584 356.1588208 96 420.5 96 C 484.8411792 96 537 103.6111584 537 113 C 537 122.3888416 484.8411792 130 420.5 130 C 356.1588208 130 304 122.3888416 304 113 Z" stroke-miterlimit="10"/></g><g transform="translate(-22,-6) scale(1,1)"><g><path fill="none" stroke="none"/><text fill="#000000" stroke="none" font-family="Arial" font-size="13px" font-style="normal" font-weight="bold" text-decoration="none" x="347.993896484375" y="120">Telecharger Album Video</text></g></g><g transform="translate(-22,-6) scale(1,1)"><path fill="#C0C0C0" stroke="none" d="M 319 208 C 319 198.6111584 363.9953776 191 419.5 191 C 475.0046224 191 520 198.6111584 520 208 C 520 217.3888416 475.0046224 225 419.5 225 C 363.9953776 225 319 217.3888416 319 208 Z" opacity="0.2"/></g><g transform="translate(-22,-6) scale(1,1)"><path fill="#ffffff" stroke="none" d="M 312 201 C 312 191.6111584 356.9953776 184 412.5 184 C 468.0046224 184 513 191.6111584 513 201 C 513 210.3888416 468.0046224 218 412.5 218 C 356.9953776 218 312 210.3888416 312 201 Z"/></g><g transform="translate(-22,-6) scale(1,1)"><path fill="none" stroke="#000000" d="M 312 201 C 312 191.6111584 356.9953776 184 412.5 184 C 468.0046224 184 513 191.6111584 513 201 C 513 210.3888416 468.0046224 218 412.5 218 C 356.9953776 218 312 210.3888416 312 201 Z" stroke-miterlimit="10"/></g><g transform="translate(-22,-6) scale(1,1)"><g><path fill="none" stroke="none"/><text fill="#000000" stroke="none" font-family="Arial" font-size="13px" font-style="normal" font-weight="bold" text-decoration="none" x="350.8388671875" y="208">Modifier Album Video</text></g></g><g transform="translate(-22,-6) scale(1,1)"><path fill="#C0C0C0" stroke="none" d="M 311 304 C 311 294.6111584 356.6669504 287 413 287 C 469.3330496 287 515 294.6111584 515 304 C 515 313.3888416 469.3330496 321 413 321 C 356.6669504 321 311 313.3888416 311 304 Z" opacity="0.2"/></g><g transform="translate(-22,-6) scale(1,1)"><path fill="#ffffff" stroke="none" d="M 304 297 C 304 287.6111584 349.6669504 280 406 280 C 462.3330496 280 508 287.6111584 508 297 C 508 306.3888416 462.3330496 314 406 314 C 349.6669504 314 304 306.3888416 304 297 Z"/></g><g transform="translate(-22,-6) scale(1,1)"><path fill="none" stroke="#000000" d="M 304 297 C 304 287.6111584 349.6669504 280 406 280 C 462.3330496 280 508 287.6111584 508 297 C 508 306.3888416 462.3330496 314 406 314 C 349.6669504 314 304 306.3888416 304 297 Z" stroke-miterlimit="10"/></g><g transform="translate(-22,-6) scale(1,1)"><g><path fill="none" stroke="none"/><text fill="#000000" stroke="none" font-family="Arial" font-size="13px" font-style="normal" font-weight="bold" text-decoration="none" x="342.526611328125" y="304">Partager Album Video</text></g></g><g transform="translate(-22,-6) scale(1,1)"><path fill="none" stroke="#000000" d="M 89 199 L 351 131" stroke-miterlimit="10"/></g><g transform="translate(-22,-6) scale(1,1)"><path fill="none" stroke="#000000" d="M 342.220747264576 137.6275728142021 L 351 131 L 340.10572917730127 129.47853253676107" stroke-miterlimit="10"/></g><g transform="translate(-22,-6) scale(1,1)"><path fill="none" stroke="#000000" d="M 89 206 L 311 203" stroke-miterlimit="10"/></g><g transform="translate(-22,-6) scale(1,1)"><path fill="none" stroke="#000000" d="M 300.8951331257105 207.34645435417048 L 311 203 L 300.78137276225084 198.92818745815435" stroke-miterlimit="10"/></g><g transform="translate(-22,-6) scale(1,1)"><path fill="none" stroke="#000000" d="M 89 215 L 337 279" stroke-miterlimit="10"/></g><g transform="translate(-22,-6) scale(1,1)"><path fill="none" stroke="#000000" d="M 326.10784642922107 280.5365515255167 L 337 279 L 328.2115783450415 272.38459035171235" stroke-miterlimit="10"/></g></g></svg>