<svg version="1.1" xmlns="http://www.w3.org/2000/svg" xmlns:xlink="http://www.w3.org/1999/xlink" width="924.7216796875" height="356"><defs/><g><g transform="translate(-54,-6) scale(1,1)"><rect fill="#C0C0C0" stroke="none" x="191" y="23" width="584" height="336" opacity="0.2"/></g><g transform="translate(-54,-6) scale(1,1)"><rect fill="#ffffff" stroke="none" x="184" y="16" width="584" height="336"/></g><g transform="translate(-54,-6) scale(1,1)"><path fill="none" stroke="#000000" d="M 184 16 L 768 16 L 768 352 L 184 352 L 184 16 Z Z" stroke-miterlimit="10"/></g><g transform="translate(-54,-6) scale(1,1)"><g><path fill="none" stroke="none"/><text fill="#000000" stroke="none" font-family="Arial" font-size="13px" font-style="normal" font-weight="bold" text-decoration="none" x="408.07373046875" y="35.5">Service Authentification</text></g></g><g transform="translate(-54,-6) scale(1,1)"><path fill="#ffffff" stroke="none" d="M 83.54509250710227 73.68 C 83.54509250710227 68.886167936 87.43093483204773 65 92.224365234375 65 C 97.01779563670227 65 100.90363796164773 68.886167936 100.90363796164773 73.68 C 100.90363796164773 78.473832064 97.01779563670227 82.36 92.224365234375 82.36 C 87.43093483204773 82.36 83.54509250710227 78.473832064 83.54509250710227 73.68 Z"/></g><g transform="translate(-54,-6) scale(1,1)"><path fill="none" stroke="#000000" d="M 83.54509250710227 73.68 C 83.54509250710227 68.886167936 87.43093483204773 65 92.224365234375 65 C 97.01779563670227 65 100.90363796164773 68.886167936 100.90363796164773 73.68 C 100.90363796164773 78.473832064 97.01779563670227 82.36 92.224365234375 82.36 C 87.43093483204773 82.36 83.54509250710227 78.473832064 83.54509250710227 73.68 Z" stroke-miterlimit="10"/></g><g transform="translate(-54,-6) scale(1,1)"><path fill="none" stroke="#000000" d="M 92.224365234375 82.36 L 92.224365234375 99.64" stroke-miterlimit="10"/></g><g transform="translate(-54,-6) scale(1,1)"><path fill="none" stroke="#000000" d="M 83.03454705255682 88.84 L 101.41418341619318 88.84" stroke-miterlimit="10"/></g><g transform="translate(-54,-6) scale(1,1)"><path fill="none" stroke="#000000" d="M 92.224365234375 99.64 L 79.46072887073863 117" stroke-miterlimit="10"/></g><g transform="translate(-54,-6) scale(1,1)"><path fill="none" stroke="#000000" d="M 92.224365234375 99.64 L 104.98800159801137 117" stroke-miterlimit="10"/></g><g transform="translate(-54,-6) scale(1,1)"><g><path fill="none" stroke="none"/><text fill="#000000" stroke="none" font-family="Arial" font-size="13px" font-style="normal" font-weight="bold" text-decoration="none" x="70.667724609375" y="137.5">Visiteur</text></g></g><g transform="translate(-54,-6) scale(1,1)"><path fill="#ffffff" stroke="none" d="M 88.40935031960227 257.68 C 88.40935031960227 252.886167936 92.29519264454773 249 97.088623046875 249 C 101.88205344920227 249 105.76789577414773 252.886167936 105.76789577414773 257.68 C 105.76789577414773 262.473832064 101.88205344920227 266.36 97.088623046875 266.36 C 92.29519264454773 266.36 88.40935031960227 262.473832064 88.40935031960227 257.68 Z"/></g><g transform="translate(-54,-6) scale(1,1)"><path fill="none" stroke="#000000" d="M 88.40935031960227 257.68 C 88.40935031960227 252.886167936 92.29519264454773 249 97.088623046875 249 C 101.88205344920227 249 105.76789577414773 252.886167936 105.76789577414773 257.68 C 105.76789577414773 262.473832064 101.88205344920227 266.36 97.088623046875 266.36 C 92.29519264454773 266.36 88.40935031960227 262.473832064 88.40935031960227 257.68 Z" stroke-miterlimit="10"/></g><g transform="translate(-54,-6) scale(1,1)"><path fill="none" stroke="#000000" d="M 97.088623046875 266.36 L 97.088623046875 283.64" stroke-miterlimit="10"/></g><g transform="translate(-54,-6) scale(1,1)"><path fill="none" stroke="#000000" d="M 87.89880486505682 272.84 L 106.27844122869318 272.84" stroke-miterlimit="10"/></g><g transform="translate(-54,-6) scale(1,1)"><path fill="none" stroke="#000000" d="M 97.088623046875 283.64 L 84.32498668323863 301" stroke-miterlimit="10"/></g><g transform="translate(-54,-6) scale(1,1)"><path fill="none" stroke="#000000" d="M 97.088623046875 283.64 L 109.85225941051137 301" stroke-miterlimit="10"/></g><g transform="translate(-54,-6) scale(1,1)"><g><path fill="none" stroke="none"/><text fill="#000000" stroke="none" font-family="Arial" font-size="13px" font-style="normal" font-weight="bold" text-decoration="none" x="78.66455078125" y="321.5">Admin</text></g></g><g transform="translate(-54,-6) scale(1,1)"><path fill="#ffffff" stroke="none" d="M 879.6815671164773 137.68 C 879.6815671164773 132.886167936 883.5674094414227 129 888.36083984375 129 C 893.1542702460773 129 897.0401125710227 132.886167936 897.0401125710227 137.68 C 897.0401125710227 142.47383206400002 893.1542702460773 146.36 888.36083984375 146.36 C 883.5674094414227 146.36 879.6815671164773 142.47383206400002 879.6815671164773 137.68 Z"/></g><g transform="translate(-54,-6) scale(1,1)"><path fill="none" stroke="#000000" d="M 879.6815671164773 137.68 C 879.6815671164773 132.886167936 883.5674094414227 129 888.36083984375 129 C 893.1542702460773 129 897.0401125710227 132.886167936 897.0401125710227 137.68 C 897.0401125710227 142.47383206400002 893.1542702460773 146.36 888.36083984375 146.36 C 883.5674094414227 146.36 879.6815671164773 142.47383206400002 879.6815671164773 137.68 Z" stroke-miterlimit="10"/></g><g transform="translate(-54,-6) scale(1,1)"><path fill="none" stroke="#000000" d="M 888.36083984375 146.36 L 888.36083984375 163.64" stroke-miterlimit="10"/></g><g transform="translate(-54,-6) scale(1,1)"><path fill="none" stroke="#000000" d="M 879.1710216619318 152.84 L 897.5506580255682 152.84" stroke-miterlimit="10"/></g><g transform="translate(-54,-6) scale(1,1)"><path fill="none" stroke="#000000" d="M 888.36083984375 163.64 L 875.5972034801136 181" stroke-miterlimit="10"/></g><g transform="translate(-54,-6) scale(1,1)"><path fill="none" stroke="#000000" d="M 888.36083984375 163.64 L 901.1244762073864 181" stroke-miterlimit="10"/></g><g transform="translate(-54,-6) scale(1,1)"><g><path fill="none" stroke="none"/><text fill="#000000" stroke="none" font-family="Arial" font-size="13px" font-style="normal" font-weight="bold" text-decoration="none" x="818.635009765625" y="201.5">Secteurs public &amp; privés</text></g></g><g transform="translate(-54,-6) scale(1,1)"><path fill="#C0C0C0" stroke="none" d="M 351 90.5 C 351 79.7304464 408.083688 71 478.5 71 C 548.9163120000001 71 606 79.7304464 606 90.5 C 606 101.2695536 548.9163120000001 110 478.5 110 C 408.083688 110 351 101.2695536 351 90.5 Z" opacity="0.2"/></g><g transform="translate(-54,-6) scale(1,1)"><path fill="#ffffff" stroke="none" d="M 344 83.5 C 344 72.7304464 401.083688 64 471.5 64 C 541.9163120000001 64 599 72.7304464 599 83.5 C 599 94.2695536 541.9163120000001 103 471.5 103 C 401.083688 103 344 94.2695536 344 83.5 Z"/></g><g transform="translate(-54,-6) scale(1,1)"><path fill="none" stroke="#000000" d="M 344 83.5 C 344 72.7304464 401.083688 64 471.5 64 C 541.9163120000001 64 599 72.7304464 599 83.5 C 599 94.2695536 541.9163120000001 103 471.5 103 C 401.083688 103 344 94.2695536 344 83.5 Z" stroke-miterlimit="10"/></g><g transform="translate(-54,-6) scale(1,1)"><g><path fill="none" stroke="none"/><text fill="#000000" stroke="none" font-family="Arial" font-size="13px" font-style="normal" font-weight="bold" text-decoration="none" x="432.12548828125" y="90.5">Creer compte</text></g></g><g transform="translate(-54,-6) scale(1,1)"><path fill="none" stroke="#000000" d="M 121 101 L 343 90" stroke-miterlimit="10"/></g><g transform="translate(-54,-6) scale(1,1)"><path fill="none" stroke="#000000" d="M 333.05810183393277 94.70729867923723 L 343 90 L 332.6414535717486 86.29857920606686" stroke-miterlimit="10"/></g><g transform="translate(-54,-6) scale(1,1)"><path fill="none" stroke="#000000" d="M 807 151 L 575 104" stroke-miterlimit="10"/></g><g transform="translate(-54,-6) scale(1,1)"><path fill="none" stroke="#000000" d="M 585.7961494016206 101.89211999917298 L 575 104 L 584.1245266951013 110.14353421007674" stroke-miterlimit="10"/></g><g transform="translate(-54,-6) scale(1,1)"><path fill="#C0C0C0" stroke="none" d="M 399 296 C 399 286.6111584 427.8776304 279 463.5 279 C 499.1223696 279 528 286.6111584 528 296 C 528 305.3888416 499.1223696 313 463.5 313 C 427.8776304 313 399 305.3888416 399 296 Z" opacity="0.2"/></g><g transform="translate(-54,-6) scale(1,1)"><path fill="#ffffff" stroke="none" d="M 392 289 C 392 279.6111584 420.8776304 272 456.5 272 C 492.1223696 272 521 279.6111584 521 289 C 521 298.3888416 492.1223696 306 456.5 306 C 420.8776304 306 392 298.3888416 392 289 Z"/></g><g transform="translate(-54,-6) scale(1,1)"><path fill="none" stroke="#000000" d="M 392 289 C 392 279.6111584 420.8776304 272 456.5 272 C 492.1223696 272 521 279.6111584 521 289 C 521 298.3888416 492.1223696 306 456.5 306 C 420.8776304 306 392 298.3888416 392 289 Z" stroke-miterlimit="10"/></g><g transform="translate(-54,-6) scale(1,1)"><g><path fill="none" stroke="none"/><text fill="#000000" stroke="none" font-family="Arial" font-size="13px" font-style="normal" font-weight="bold" text-decoration="none" x="418.76318359375" y="296">S'authentifier</text></g></g><g transform="translate(-54,-6) scale(1,1)"><path fill="none" stroke="#000000" d="M 123 287 L 391 289" stroke-miterlimit="10"/></g><g transform="translate(-54,-6) scale(1,1)"><path fill="none" stroke="#000000" d="M 380.80619468193873 293.13356179794926 L 391 289 L 380.86902155571977 284.714760711287" stroke-miterlimit="10"/></g><g transform="translate(-54,-6) scale(1,1)"><path fill="none" stroke="#000000" d="M 121 118 L 421 271" stroke-miterlimit="10"/></g><g transform="translate(-54,-6) scale(1,1)"><path fill="none" stroke="#000000" d="M 410.03423519177466 270.1328194128747 L 421 271 L 413.8592226168767 262.63284406953744" stroke-miterlimit="10"/></g><g transform="translate(-54,-6) scale(1,1)"><path fill="none" stroke="#000000" d="M 807 190 L 520 271" stroke-miterlimit="10"/></g><g transform="translate(-54,-6) scale(1,1)"><path fill="none" stroke="#000000" d="M 528.6372194758154 264.18835998260374 L 520 271 L 530.9239933092482 272.2908796146431" stroke-miterlimit="10"/></g><g transform="translate(-54,-6) scale(1,1)"><path fill="#C0C0C0" stroke="none" d="M 391 152 C 391 142.6111584 426.36950079999997 135 470 135 C 513.6304992 135 549 142.6111584 549 152 C 549 161.3888416 513.6304992 169 470 169 C 426.36950079999997 169 391 161.3888416 391 152 Z" opacity="0.2"/></g><g transform="translate(-54,-6) scale(1,1)"><path fill="#ffffff" stroke="none" d="M 384 145 C 384 135.6111584 419.36950079999997 128 463 128 C 506.63049920000003 128 542 135.6111584 542 145 C 542 154.3888416 506.63049920000003 162 463 162 C 419.36950079999997 162 384 154.3888416 384 145 Z"/></g><g transform="translate(-54,-6) scale(1,1)"><path fill="none" stroke="#000000" d="M 384 145 C 384 135.6111584 419.36950079999997 128 463 128 C 506.63049920000003 128 542 135.6111584 542 145 C 542 154.3888416 506.63049920000003 162 463 162 C 419.36950079999997 162 384 154.3888416 384 145 Z" stroke-miterlimit="10"/></g><g transform="translate(-54,-6) scale(1,1)"><g><path fill="none" stroke="none"/><text fill="#000000" stroke="none" font-family="Arial" font-size="13px" font-style="normal" font-weight="bold" text-decoration="none" x="415.31640625" y="152">Modifier Compte</text></g></g><g transform="translate(-54,-6) scale(1,1)"><path fill="#C0C0C0" stroke="none" d="M 375 216 C 375 206.6111584 414.8466528 199 464 199 C 513.1533472 199 553 206.6111584 553 216 C 553 225.3888416 513.1533472 233 464 233 C 414.8466528 233 375 225.3888416 375 216 Z" opacity="0.2"/></g><g transform="translate(-54,-6) scale(1,1)"><path fill="#ffffff" stroke="none" d="M 368 209 C 368 199.6111584 407.8466528 192 457 192 C 506.1533472 192 546 199.6111584 546 209 C 546 218.3888416 506.1533472 226 457 226 C 407.8466528 226 368 218.3888416 368 209 Z"/></g><g transform="translate(-54,-6) scale(1,1)"><path fill="none" stroke="#000000" d="M 368 209 C 368 199.6111584 407.8466528 192 457 192 C 506.1533472 192 546 199.6111584 546 209 C 546 218.3888416 506.1533472 226 457 226 C 407.8466528 226 368 218.3888416 368 209 Z" stroke-miterlimit="10"/></g><g transform="translate(-54,-6) scale(1,1)"><g><path fill="none" stroke="none"/><text fill="#000000" stroke="none" font-family="Arial" font-size="13px" font-style="normal" font-weight="bold" text-decoration="none" x="402.451416015625" y="216">Supprimer Compte</text></g></g><g transform="translate(-54,-6) scale(1,1)"><path fill="none" stroke="#000000" d="M 121 106 L 383 136" stroke-miterlimit="10"/></g><g transform="translate(-54,-6) scale(1,1)"><path fill="none" stroke="#000000" d="M 372.4244223803569 139.02607964384674 L 383 136 L 373.38217591361104 130.66169878676027" stroke-miterlimit="10"/></g><g transform="translate(-54,-6) scale(1,1)"><path fill="none" stroke="#000000" d="M 121 112 L 395 191" stroke-miterlimit="10"/></g><g transform="translate(-54,-6) scale(1,1)"><path fill="none" stroke="#000000" d="M 384.06890878405056 192.22932698196743 L 395 191 L 386.40128583018867 184.1398167206782" stroke-miterlimit="10"/></g><g transform="translate(-54,-6) scale(1,1)"><path fill="none" stroke="#000000" d="M 807 163 L 543 149" stroke-miterlimit="10"/></g><g transform="translate(-54,-6) scale(1,1)"><path fill="none" stroke="#000000" d="M 553.371333898 145.33456234861418 L 543 149 L 552.9254963485371 153.7417847099143" stroke-miterlimit="10"/></g><g transform="translate(-54,-6) scale(1,1)"><path fill="none" stroke="#000000" d="M 807 175 L 547 200" stroke-miterlimit="10"/></g><g transform="translate(-54,-6) scale(1,1)"><path fill="none" stroke="#000000" d="M 556.7131152378495 194.83711394893743 L 547 200 L 557.5189213883295 203.21749791392998" stroke-miterlimit="10"/></g></g></svg>