<svg version="1.1" xmlns="http://www.w3.org/2000/svg" xmlns:xlink="http://www.w3.org/1999/xlink" width="1150.48876953125" height="700"><defs/><g><g transform="translate(-14,-38) scale(1,1)"><rect fill="#C0C0C0" stroke="none" x="201" y="295" width="230" height="80" opacity="0.2"/></g><g transform="translate(-14,-38) scale(1,1)"><rect fill="#ffffff" stroke="none" x="194" y="288" width="230" height="80"/></g><g transform="translate(-14,-38) scale(1,1)"><path fill="none" stroke="#000000" d="M 194 288 L 424 288 L 424 368 L 194 368 L 194 288 Z Z" stroke-miterlimit="10"/></g><g transform="translate(-14,-38) scale(1,1)"><rect fill="#ffffff" stroke="none" x="184" y="295" width="20" height="10"/></g><g transform="translate(-14,-38) scale(1,1)"><path fill="none" stroke="#000000" d="M 184 295 L 204 295 L 204 305 L 184 305 L 184 295 Z Z" stroke-miterlimit="10"/></g><g transform="translate(-14,-38) scale(1,1)"><rect fill="#ffffff" stroke="none" x="184" y="315" width="20" height="10"/></g><g transform="translate(-14,-38) scale(1,1)"><path fill="none" stroke="#000000" d="M 184 315 L 204 315 L 204 325 L 184 325 L 184 315 Z Z" stroke-miterlimit="10"/></g><g transform="translate(-14,-38) scale(1,1)"><g><path fill="none" stroke="none"/><text fill="#000000" stroke="none" font-family="Arial" font-size="13px" font-style="normal" font-weight="bold" text-decoration="none" x="269.5537109375" y="307.5">Authentification</text></g></g><g transform="translate(-14,-38) scale(1,1)"><rect fill="#C0C0C0" stroke="none" x="737" y="439" width="166" height="44" opacity="0.2"/></g><g transform="translate(-14,-38) scale(1,1)"><rect fill="#ffffff" stroke="none" x="730" y="432" width="166" height="44"/></g><g transform="translate(-14,-38) scale(1,1)"><path fill="none" stroke="#000000" d="M 730 432 L 896 432 L 896 476 L 730 476 L 730 432 Z Z" stroke-miterlimit="10"/></g><g transform="translate(-14,-38) scale(1,1)"><rect fill="#ffffff" stroke="none" x="720" y="439" width="20" height="10"/></g><g transform="translate(-14,-38) scale(1,1)"><path fill="none" stroke="#000000" d="M 720 439 L 740 439 L 740 449 L 720 449 L 720 439 Z Z" stroke-miterlimit="10"/></g><g transform="translate(-14,-38) scale(1,1)"><rect fill="#ffffff" stroke="none" x="720" y="459" width="20" height="10"/></g><g transform="translate(-14,-38) scale(1,1)"><path fill="none" stroke="#000000" d="M 720 459 L 740 459 L 740 469 L 720 469 L 720 459 Z Z" stroke-miterlimit="10"/></g><g transform="translate(-14,-38) scale(1,1)"><g><path fill="none" stroke="none"/><text fill="#000000" stroke="none" font-family="Arial" font-size="13px" font-style="normal" font-weight="bold" text-decoration="none" x="778.615966796875" y="451.5">Service guide</text></g></g><g transform="translate(-14,-38) scale(1,1)"><rect fill="#C0C0C0" stroke="none" x="169" y="535" width="294" height="64" opacity="0.2"/></g><g transform="translate(-14,-38) scale(1,1)"><rect fill="#ffffff" stroke="none" x="162" y="528" width="294" height="64"/></g><g transform="translate(-14,-38) scale(1,1)"><path fill="none" stroke="#000000" d="M 162 528 L 456 528 L 456 592 L 162 592 L 162 528 Z Z" stroke-miterlimit="10"/></g><g transform="translate(-14,-38) scale(1,1)"><rect fill="#ffffff" stroke="none" x="152" y="535" width="20" height="10"/></g><g transform="translate(-14,-38) scale(1,1)"><path fill="none" stroke="#000000" d="M 152 535 L 172 535 L 172 545 L 152 545 L 152 535 Z Z" stroke-miterlimit="10"/></g><g transform="translate(-14,-38) scale(1,1)"><rect fill="#ffffff" stroke="none" x="152" y="555" width="20" height="10"/></g><g transform="translate(-14,-38) scale(1,1)"><path fill="none" stroke="#000000" d="M 152 555 L 172 555 L 172 565 L 152 565 L 152 555 Z Z" stroke-miterlimit="10"/></g><g transform="translate(-14,-38) scale(1,1)"><g><path fill="none" stroke="none"/><text fill="#000000" stroke="none" font-family="Arial" font-size="13px" font-style="normal" font-weight="bold" text-decoration="none" x="244.635986328125" y="547.5">Service Album Souvenir</text></g></g><g transform="translate(-14,-38) scale(1,1)"><rect fill="#C0C0C0" stroke="none" x="529" y="327" width="136.7744140625" height="44" opacity="0.2"/></g><g transform="translate(-14,-38) scale(1,1)"><rect fill="#ffffff" stroke="none" x="522" y="320" width="136.7744140625" height="44"/></g><g transform="translate(-14,-38) scale(1,1)"><path fill="none" stroke="#000000" d="M 522 320 L 658.7744140625 320 L 658.7744140625 364 L 522 364 L 522 320 Z Z" stroke-miterlimit="10"/></g><g transform="translate(-14,-38) scale(1,1)"><rect fill="#ffffff" stroke="none" x="512" y="327" width="20" height="10"/></g><g transform="translate(-14,-38) scale(1,1)"><path fill="none" stroke="#000000" d="M 512 327 L 532 327 L 532 337 L 512 337 L 512 327 Z Z" stroke-miterlimit="10"/></g><g transform="translate(-14,-38) scale(1,1)"><rect fill="#ffffff" stroke="none" x="512" y="347" width="20" height="10"/></g><g transform="translate(-14,-38) scale(1,1)"><path fill="none" stroke="#000000" d="M 512 347 L 532 347 L 532 357 L 512 357 L 512 347 Z Z" stroke-miterlimit="10"/></g><g transform="translate(-14,-38) scale(1,1)"><g><path fill="none" stroke="none"/><text fill="#000000" stroke="none" font-family="Arial" font-size="13px" font-style="normal" font-weight="bold" text-decoration="none" x="540.108642578125" y="339.5">Service Dashboard</text></g></g><g transform="translate(-14,-38) scale(1,1)"><rect fill="#C0C0C0" stroke="none" x="233" y="55" width="147.6162109375" height="44" opacity="0.2"/></g><g transform="translate(-14,-38) scale(1,1)"><rect fill="#ffffff" stroke="none" x="226" y="48" width="147.6162109375" height="44"/></g><g transform="translate(-14,-38) scale(1,1)"><path fill="none" stroke="#000000" d="M 226 48 L 373.6162109375 48 L 373.6162109375 92 L 226 92 L 226 48 Z Z" stroke-miterlimit="10"/></g><g transform="translate(-14,-38) scale(1,1)"><rect fill="#ffffff" stroke="none" x="216" y="55" width="20" height="10"/></g><g transform="translate(-14,-38) scale(1,1)"><path fill="none" stroke="#000000" d="M 216 55 L 236 55 L 236 65 L 216 65 L 216 55 Z Z" stroke-miterlimit="10"/></g><g transform="translate(-14,-38) scale(1,1)"><rect fill="#ffffff" stroke="none" x="216" y="75" width="20" height="10"/></g><g transform="translate(-14,-38) scale(1,1)"><path fill="none" stroke="#000000" d="M 216 75 L 236 75 L 236 85 L 216 85 L 216 75 Z Z" stroke-miterlimit="10"/></g><g transform="translate(-14,-38) scale(1,1)"><g><path fill="none" stroke="none"/><text fill="#000000" stroke="none" font-family="Arial" font-size="13px" font-style="normal" font-weight="bold" text-decoration="none" x="244.108642578125" y="67.5">Service Maintenance</text></g></g><g transform="translate(-14,-38) scale(1,1)"><rect fill="#C0C0C0" stroke="none" x="697" y="175" width="218.43701171875" height="44" opacity="0.2"/></g><g transform="translate(-14,-38) scale(1,1)"><rect fill="#ffffff" stroke="none" x="690" y="168" width="218.43701171875" height="44"/></g><g transform="translate(-14,-38) scale(1,1)"><path fill="none" stroke="#000000" d="M 690 168 L 908.43701171875 168 L 908.43701171875 212 L 690 212 L 690 168 Z Z" stroke-miterlimit="10"/></g><g transform="translate(-14,-38) scale(1,1)"><rect fill="#ffffff" stroke="none" x="680" y="175" width="20" height="10"/></g><g transform="translate(-14,-38) scale(1,1)"><path fill="none" stroke="#000000" d="M 680 175 L 700 175 L 700 185 L 680 185 L 680 175 Z Z" stroke-miterlimit="10"/></g><g transform="translate(-14,-38) scale(1,1)"><rect fill="#ffffff" stroke="none" x="680" y="195" width="20" height="10"/></g><g transform="translate(-14,-38) scale(1,1)"><path fill="none" stroke="#000000" d="M 680 195 L 700 195 L 700 205 L 680 205 L 680 195 Z Z" stroke-miterlimit="10"/></g><g transform="translate(-14,-38) scale(1,1)"><g><path fill="none" stroke="none"/><text fill="#000000" stroke="none" font-family="Arial" font-size="13px" font-style="normal" font-weight="bold" text-decoration="none" x="711.009521484375" y="187.5">Service Evénements &amp; festivaux</text></g></g><g transform="translate(-14,-38) scale(1,1)"><path fill="none" stroke="#000000" d="M 118.27715808295406 311.9768319027909 A 11.5 11.5 0 0 1 111.72284191704594 334.0231680972091" stroke-miterlimit="10"/></g><g transform="translate(-14,-38) scale(1,1)"><g><path fill="none" stroke="none"/><text fill="#000000" stroke="none" font-family="Arial" font-size="13px" font-style="normal" font-weight="bold" text-decoration="none" x="87.74365234375" y="354.5">utilisateur</text></g></g><g transform="translate(-14,-38) scale(1,1)"><path fill="none" stroke="#000000" d="M 183 333 L 127.062255859375 326.5860760663007" stroke-miterlimit="10"/></g><g transform="translate(-14,-38) scale(1,1)"><path fill="#C0C0C0" stroke="none" d="M 294.7099609375 458.5 C 294.7099609375 452.1487248 299.8586857375 447 306.2099609375 447 C 312.5612361375 447 317.7099609375 452.1487248 317.7099609375 458.5 C 317.7099609375 464.8512752 312.5612361375 470 306.2099609375 470 C 299.8586857375 470 294.7099609375 464.8512752 294.7099609375 458.5 Z" opacity="0.2"/></g><g transform="translate(-14,-38) scale(1,1)"><path fill="none" stroke="#000000" d="M 310.4960200725577 450.69747315598534 A 11.5 11.5 0 0 1 287.5039799274423 451.30252684401466" stroke-miterlimit="10"/></g><g transform="translate(-14,-38) scale(1,1)"><path fill="none" stroke="#000000" d="M 298.044976981682 439.53972378018386 A 11.5 11.5 0 0 1 299.955023018318 462.46027621981614" stroke-miterlimit="10"/></g><g transform="translate(-14,-38) scale(1,1)"><path fill="none" stroke="#000000" d="M 302.9059113334419 461.8163698464545 A 11.5 11.5 0 0 1 295.0940886665581 440.1836301535455" stroke-miterlimit="10"/></g><g transform="translate(-14,-38) scale(1,1)"><path fill="none" stroke="#000000" d="M 302.63661930919363 440.0901420724191 A 11.5 11.5 0 0 1 295.36338069080637 461.9098579275809" stroke-miterlimit="10"/></g><g transform="translate(-14,-38) scale(1,1)"><path fill="#ffffff" stroke="none" d="M 290.7099609375 451.5 C 290.7099609375 446.8055792 294.5155401375 443 299.2099609375 443 C 303.9043817375 443 307.7099609375 446.8055792 307.7099609375 451.5 C 307.7099609375 456.1944208 303.9043817375 460 299.2099609375 460 C 294.5155401375 460 290.7099609375 456.1944208 290.7099609375 451.5 Z"/></g><g transform="translate(-14,-38) scale(1,1)"><path fill="none" stroke="#000000" d="M 290.7099609375 451.5 C 290.7099609375 446.8055792 294.5155401375 443 299.2099609375 443 C 303.9043817375 443 307.7099609375 446.8055792 307.7099609375 451.5 C 307.7099609375 456.1944208 303.9043817375 460 299.2099609375 460 C 294.5155401375 460 290.7099609375 456.1944208 290.7099609375 451.5 Z" stroke-miterlimit="10"/></g><g transform="translate(-14,-38) scale(1,1)"><g><path fill="none" stroke="none"/><text fill="#000000" stroke="none" font-family="Arial" font-size="13px" font-style="normal" font-weight="bold" text-decoration="none" x="278.621337890625" y="482.5">visiteur</text></g></g><g transform="translate(-14,-38) scale(1,1)"><path fill="none" stroke="#000000" d="M 302 369 L 299.9166666666667 440" stroke-miterlimit="10"/></g><g transform="translate(-14,-38) scale(1,1)"><path fill="#C0C0C0" stroke="none" d="M 296.21533203125 186.5 C 296.21533203125 180.1487248 301.36405683125 175 307.71533203125 175 C 314.06660723125 175 319.21533203125 180.1487248 319.21533203125 186.5 C 319.21533203125 192.8512752 314.06660723125 198 307.71533203125 198 C 301.36405683125 198 296.21533203125 192.8512752 296.21533203125 186.5 Z" opacity="0.2"/></g><g transform="translate(-14,-38) scale(1,1)"><path fill="none" stroke="#000000" d="M 303.7224083092244 168.1191141730364 A 11.5 11.5 0 0 1 296.2775916907756 189.8808858269636" stroke-miterlimit="10"/></g><g transform="translate(-14,-38) scale(1,1)"><path fill="none" stroke="#000000" d="M 288.53972378018386 179.95502301831803 A 11.5 11.5 0 0 1 311.46027621981614 178.04497698168197" stroke-miterlimit="10"/></g><g transform="translate(-14,-38) scale(1,1)"><path fill="#ffffff" stroke="none" d="M 292.21533203125 179.5 C 292.21533203125 174.8055792 296.02091123125 171 300.71533203125 171 C 305.40975283125 171 309.21533203125 174.8055792 309.21533203125 179.5 C 309.21533203125 184.1944208 305.40975283125 188 300.71533203125 188 C 296.02091123125 188 292.21533203125 184.1944208 292.21533203125 179.5 Z"/></g><g transform="translate(-14,-38) scale(1,1)"><path fill="none" stroke="#000000" d="M 292.21533203125 179.5 C 292.21533203125 174.8055792 296.02091123125 171 300.71533203125 171 C 305.40975283125 171 309.21533203125 174.8055792 309.21533203125 179.5 C 309.21533203125 184.1944208 305.40975283125 188 300.71533203125 188 C 296.02091123125 188 292.21533203125 184.1944208 292.21533203125 179.5 Z" stroke-miterlimit="10"/></g><g transform="translate(-14,-38) scale(1,1)"><g><path fill="none" stroke="none"/><text fill="#000000" stroke="none" font-family="Arial" font-size="13px" font-style="normal" font-weight="bold" text-decoration="none" x="270.72900390625" y="210.5">secteurPP</text></g></g><g transform="translate(-14,-38) scale(1,1)"><path fill="none" stroke="#000000" d="M 303 287 L 300.3157894736842 191" stroke-miterlimit="10"/></g><g transform="translate(-14,-38) scale(1,1)"><path fill="none" stroke="#000000" d="M 302 527 L 299.3157894736842 463" stroke-miterlimit="10"/></g><g transform="translate(-14,-38) scale(1,1)"><path fill="none" stroke="#000000" d="M 679 190 L 312.21533203125 183.17892937911185" stroke-miterlimit="10"/></g><g transform="translate(-14,-38) scale(1,1)"><path fill="none" stroke="#000000" d="M 531 365 L 310.7099609375 450.024169921875" stroke-miterlimit="10"/></g><g transform="translate(-14,-38) scale(1,1)"><path fill="#C0C0C0" stroke="none" d="M 797.753173828125 354.5 C 797.753173828125 348.1487248 802.901898628125 343 809.253173828125 343 C 815.604449028125 343 820.753173828125 348.1487248 820.753173828125 354.5 C 820.753173828125 360.8512752 815.604449028125 366 809.253173828125 366 C 802.901898628125 366 797.753173828125 360.8512752 797.753173828125 354.5 Z" opacity="0.2"/></g><g transform="translate(-14,-38) scale(1,1)"><path fill="none" stroke="#000000" d="M 790.5397237801839 347.95502301831795 A 11.5 11.5 0 0 1 813.4602762198161 346.04497698168205" stroke-miterlimit="10"/></g><g transform="translate(-14,-38) scale(1,1)"><path fill="none" stroke="#000000" d="M 813.4841050373238 346.3955734190882 A 11.5 11.5 0 0 1 790.5158949626762 347.6044265809118" stroke-miterlimit="10"/></g><g transform="translate(-14,-38) scale(1,1)"><path fill="#ffffff" stroke="none" d="M 793.753173828125 347.5 C 793.753173828125 342.8055792 797.558753028125 339 802.253173828125 339 C 806.947594628125 339 810.753173828125 342.8055792 810.753173828125 347.5 C 810.753173828125 352.1944208 806.947594628125 356 802.253173828125 356 C 797.558753028125 356 793.753173828125 352.1944208 793.753173828125 347.5 Z"/></g><g transform="translate(-14,-38) scale(1,1)"><path fill="none" stroke="#000000" d="M 793.753173828125 347.5 C 793.753173828125 342.8055792 797.558753028125 339 802.253173828125 339 C 806.947594628125 339 810.753173828125 342.8055792 810.753173828125 347.5 C 810.753173828125 352.1944208 806.947594628125 356 802.253173828125 356 C 797.558753028125 356 793.753173828125 352.1944208 793.753173828125 347.5 Z" stroke-miterlimit="10"/></g><g transform="translate(-14,-38) scale(1,1)"><g><path fill="none" stroke="none"/><text fill="#000000" stroke="none" font-family="Arial" font-size="13px" font-style="normal" font-weight="bold" text-decoration="none" x="745.524169921875" y="378.5">Consulter dashbord</text></g></g><g transform="translate(-14,-38) scale(1,1)"><path fill="none" stroke="#000000" d="M 660 348 L 790.753173828125 348.17504154034515" stroke-miterlimit="10"/></g><g transform="translate(-14,-38) scale(1,1)"><path fill="none" stroke="#000000" d="M 795 213 L 801.0833333333334 336" stroke-miterlimit="10"/></g><g transform="translate(-14,-38) scale(1,1)"><path fill="#C0C0C0" stroke="none" d="M 1060.744384765625 170.5 C 1060.744384765625 164.1487248 1065.893109565625 159 1072.244384765625 159 C 1078.595659965625 159 1083.744384765625 164.1487248 1083.744384765625 170.5 C 1083.744384765625 176.8512752 1078.595659965625 182 1072.244384765625 182 C 1065.893109565625 182 1060.744384765625 176.8512752 1060.744384765625 170.5 Z" opacity="0.2"/></g><g transform="translate(-14,-38) scale(1,1)"><path fill="#ffffff" stroke="none" d="M 1053.744384765625 163.5 C 1053.744384765625 157.1487248 1058.893109565625 152 1065.244384765625 152 C 1071.595659965625 152 1076.744384765625 157.1487248 1076.744384765625 163.5 C 1076.744384765625 169.8512752 1071.595659965625 175 1065.244384765625 175 C 1058.893109565625 175 1053.744384765625 169.8512752 1053.744384765625 163.5 Z"/></g><g transform="translate(-14,-38) scale(1,1)"><path fill="none" stroke="#000000" d="M 1053.744384765625 163.5 C 1053.744384765625 157.1487248 1058.893109565625 152 1065.244384765625 152 C 1071.595659965625 152 1076.744384765625 157.1487248 1076.744384765625 163.5 C 1076.744384765625 169.8512752 1071.595659965625 175 1065.244384765625 175 C 1058.893109565625 175 1053.744384765625 169.8512752 1053.744384765625 163.5 Z" stroke-miterlimit="10"/></g><g transform="translate(-14,-38) scale(1,1)"><g><path fill="none" stroke="none"/><text fill="#000000" stroke="none" font-family="Arial" font-size="13px" font-style="normal" font-weight="bold" text-decoration="none" x="990.14208984375" y="194.5">s'interesser a l'evenement</text></g></g><g transform="translate(-14,-38) scale(1,1)"><path fill="none" stroke="#000000" d="M 909 184 L 1053.744384765625 165.251123046875" stroke-miterlimit="10"/></g><g transform="translate(-14,-38) scale(1,1)"><path fill="#C0C0C0" stroke="none" d="M 1069.76904296875 250.5 C 1069.76904296875 244.1487248 1074.91776776875 239 1081.26904296875 239 C 1087.62031816875 239 1092.76904296875 244.1487248 1092.76904296875 250.5 C 1092.76904296875 256.8512752 1087.62031816875 262 1081.26904296875 262 C 1074.91776776875 262 1069.76904296875 256.8512752 1069.76904296875 250.5 Z" opacity="0.2"/></g><g transform="translate(-14,-38) scale(1,1)"><path fill="#ffffff" stroke="none" d="M 1062.76904296875 243.5 C 1062.76904296875 237.1487248 1067.91776776875 232 1074.26904296875 232 C 1080.62031816875 232 1085.76904296875 237.1487248 1085.76904296875 243.5 C 1085.76904296875 249.8512752 1080.62031816875 255 1074.26904296875 255 C 1067.91776776875 255 1062.76904296875 249.8512752 1062.76904296875 243.5 Z"/></g><g transform="translate(-14,-38) scale(1,1)"><path fill="none" stroke="#000000" d="M 1062.76904296875 243.5 C 1062.76904296875 237.1487248 1067.91776776875 232 1074.26904296875 232 C 1080.62031816875 232 1085.76904296875 237.1487248 1085.76904296875 243.5 C 1085.76904296875 249.8512752 1080.62031816875 255 1074.26904296875 255 C 1067.91776776875 255 1062.76904296875 249.8512752 1062.76904296875 243.5 Z" stroke-miterlimit="10"/></g><g transform="translate(-14,-38) scale(1,1)"><g><path fill="none" stroke="none"/><text fill="#000000" stroke="none" font-family="Arial" font-size="13px" font-style="normal" font-weight="bold" text-decoration="none" x="1016.45458984375" y="274.5">publier Eveneement</text></g></g><g transform="translate(-14,-38) scale(1,1)"><path fill="none" stroke="#000000" d="M 892 213 L 1062.76904296875 242.49712132695896" stroke-miterlimit="10"/></g><g transform="translate(-14,-38) scale(1,1)"><path fill="#C0C0C0" stroke="none" d="M 421.828125 698.5 C 421.828125 692.1487248 426.9768498 687 433.328125 687 C 439.6794002 687 444.828125 692.1487248 444.828125 698.5 C 444.828125 704.8512752 439.6794002 710 433.328125 710 C 426.9768498 710 421.828125 704.8512752 421.828125 698.5 Z" opacity="0.2"/></g><g transform="translate(-14,-38) scale(1,1)"><path fill="#ffffff" stroke="none" d="M 414.828125 691.5 C 414.828125 685.1487248 419.9768498 680 426.328125 680 C 432.6794002 680 437.828125 685.1487248 437.828125 691.5 C 437.828125 697.8512752 432.6794002 703 426.328125 703 C 419.9768498 703 414.828125 697.8512752 414.828125 691.5 Z"/></g><g transform="translate(-14,-38) scale(1,1)"><path fill="none" stroke="#000000" d="M 414.828125 691.5 C 414.828125 685.1487248 419.9768498 680 426.328125 680 C 432.6794002 680 437.828125 685.1487248 437.828125 691.5 C 437.828125 697.8512752 432.6794002 703 426.328125 703 C 419.9768498 703 414.828125 697.8512752 414.828125 691.5 Z" stroke-miterlimit="10"/></g><g transform="translate(-14,-38) scale(1,1)"><g><path fill="none" stroke="none"/><text fill="#000000" stroke="none" font-family="Arial" font-size="13px" font-style="normal" font-weight="bold" text-decoration="none" x="376.464111328125" y="722.5">telecharger video</text></g></g><g transform="translate(-14,-38) scale(1,1)"><path fill="none" stroke="#000000" d="M 332 593 L 414.828125 684.6160714285714" stroke-miterlimit="10"/></g><g transform="translate(-14,-38) scale(1,1)"><path fill="#C0C0C0" stroke="none" d="M 204.792236328125 690.5 C 204.792236328125 684.1487248 209.940961128125 679 216.292236328125 679 C 222.643511528125 679 227.792236328125 684.1487248 227.792236328125 690.5 C 227.792236328125 696.8512752 222.643511528125 702 216.292236328125 702 C 209.940961128125 702 204.792236328125 696.8512752 204.792236328125 690.5 Z" opacity="0.2"/></g><g transform="translate(-14,-38) scale(1,1)"><path fill="#ffffff" stroke="none" d="M 197.792236328125 683.5 C 197.792236328125 677.1487248 202.940961128125 672 209.292236328125 672 C 215.643511528125 672 220.792236328125 677.1487248 220.792236328125 683.5 C 220.792236328125 689.8512752 215.643511528125 695 209.292236328125 695 C 202.940961128125 695 197.792236328125 689.8512752 197.792236328125 683.5 Z"/></g><g transform="translate(-14,-38) scale(1,1)"><path fill="none" stroke="#000000" d="M 197.792236328125 683.5 C 197.792236328125 677.1487248 202.940961128125 672 209.292236328125 672 C 215.643511528125 672 220.792236328125 677.1487248 220.792236328125 683.5 C 220.792236328125 689.8512752 215.643511528125 695 209.292236328125 695 C 202.940961128125 695 197.792236328125 689.8512752 197.792236328125 683.5 Z" stroke-miterlimit="10"/></g><g transform="translate(-14,-38) scale(1,1)"><g><path fill="none" stroke="none"/><text fill="#000000" stroke="none" font-family="Arial" font-size="13px" font-style="normal" font-weight="bold" text-decoration="none" x="167.7373046875" y="714.5">partager video</text></g></g><g transform="translate(-14,-38) scale(1,1)"><path fill="none" stroke="#000000" d="M 281 593 L 220.792236328125 674.6760684742648" stroke-miterlimit="10"/></g><g transform="translate(-14,-38) scale(1,1)"><path fill="none" stroke="#000000" d="M 61.78915968791783 559.8433612483287 A 11.5 11.5 0 0 1 56.21084031208217 582.1566387516713" stroke-miterlimit="10"/></g><g transform="translate(-14,-38) scale(1,1)"><g><path fill="none" stroke="none"/><text fill="#000000" stroke="none" font-family="Arial" font-size="13px" font-style="normal" font-weight="bold" text-decoration="none" x="38.25634765625" y="602.5">images</text></g></g><g transform="translate(-14,-38) scale(1,1)"><path fill="none" stroke="#000000" d="M 151 575 L 70.7099609375 573.927490234375" stroke-miterlimit="10"/></g><g transform="translate(-14,-38) scale(1,1)"><path fill="none" stroke="#000000" d="M 295 93 L 299.0833333333333 168" stroke-miterlimit="10"/></g><g transform="translate(-14,-38) scale(1,1)"><path fill="none" stroke="#000000" d="M 215 68 L 48 64 L 56 464 L 287.7099609375 455.07695855034723" stroke-miterlimit="10"/></g><g transform="translate(-14,-38) scale(1,1)"><path fill="#C0C0C0" stroke="none" d="M 512.71630859375 82.5 C 512.71630859375 76.1487248 517.86503339375 71 524.21630859375 71 C 530.56758379375 71 535.71630859375 76.1487248 535.71630859375 82.5 C 535.71630859375 88.8512752 530.56758379375 94 524.21630859375 94 C 517.86503339375 94 512.71630859375 88.8512752 512.71630859375 82.5 Z" opacity="0.2"/></g><g transform="translate(-14,-38) scale(1,1)"><path fill="#ffffff" stroke="none" d="M 505.71630859375 75.5 C 505.71630859375 69.1487248 510.86503339375 64 517.21630859375 64 C 523.56758379375 64 528.71630859375 69.1487248 528.71630859375 75.5 C 528.71630859375 81.8512752 523.56758379375 87 517.21630859375 87 C 510.86503339375 87 505.71630859375 81.8512752 505.71630859375 75.5 Z"/></g><g transform="translate(-14,-38) scale(1,1)"><path fill="none" stroke="#000000" d="M 505.71630859375 75.5 C 505.71630859375 69.1487248 510.86503339375 64 517.21630859375 64 C 523.56758379375 64 528.71630859375 69.1487248 528.71630859375 75.5 C 528.71630859375 81.8512752 523.56758379375 87 517.21630859375 87 C 510.86503339375 87 505.71630859375 81.8512752 505.71630859375 75.5 Z" stroke-miterlimit="10"/></g><g transform="translate(-14,-38) scale(1,1)"><g><path fill="none" stroke="none"/><text fill="#000000" stroke="none" font-family="Arial" font-size="13px" font-style="normal" font-weight="bold" text-decoration="none" x="464.108642578125" y="106.5">gérer Réclamation</text></g></g><g transform="translate(-14,-38) scale(1,1)"><path fill="none" stroke="#000000" d="M 375 77 L 505.71630859375 76.45596018145162" stroke-miterlimit="10"/></g><g transform="translate(-14,-38) scale(1,1)"><path fill="none" stroke="#000000" d="M 807 431 L 802.6315789473684 359" stroke-miterlimit="10"/></g><g transform="translate(-14,-38) scale(1,1)"><path fill="none" stroke="#000000" d="M 719 456 L 310.7099609375 454.9033203125" stroke-miterlimit="10"/></g><g transform="translate(-14,-38) scale(1,1)"><path fill="#C0C0C0" stroke="none" d="M 817.180419921875 554.5 C 817.180419921875 548.1487248 822.329144721875 543 828.680419921875 543 C 835.031695121875 543 840.180419921875 548.1487248 840.180419921875 554.5 C 840.180419921875 560.8512752 835.031695121875 566 828.680419921875 566 C 822.329144721875 566 817.180419921875 560.8512752 817.180419921875 554.5 Z" opacity="0.2"/></g><g transform="translate(-14,-38) scale(1,1)"><path fill="#ffffff" stroke="none" d="M 810.180419921875 547.5 C 810.180419921875 541.1487248 815.329144721875 536 821.680419921875 536 C 828.031695121875 536 833.180419921875 541.1487248 833.180419921875 547.5 C 833.180419921875 553.8512752 828.031695121875 559 821.680419921875 559 C 815.329144721875 559 810.180419921875 553.8512752 810.180419921875 547.5 Z"/></g><g transform="translate(-14,-38) scale(1,1)"><path fill="none" stroke="#000000" d="M 810.180419921875 547.5 C 810.180419921875 541.1487248 815.329144721875 536 821.680419921875 536 C 828.031695121875 536 833.180419921875 541.1487248 833.180419921875 547.5 C 833.180419921875 553.8512752 828.031695121875 559 821.680419921875 559 C 815.329144721875 559 810.180419921875 553.8512752 810.180419921875 547.5 Z" stroke-miterlimit="10"/></g><g transform="translate(-14,-38) scale(1,1)"><g><path fill="none" stroke="none"/><text fill="#000000" stroke="none" font-family="Arial" font-size="13px" font-style="normal" font-weight="bold" text-decoration="none" x="784.22607421875" y="578.5">afficher trajet</text></g></g><g transform="translate(-14,-38) scale(1,1)"><path fill="none" stroke="#000000" d="M 811 477 L 818.25 536" stroke-miterlimit="10"/></g><g transform="translate(-14,-38) scale(1,1)"><path fill="#C0C0C0" stroke="none" d="M 1021.871337890625 466.5 C 1021.871337890625 460.1487248 1027.020062690625 455 1033.371337890625 455 C 1039.722613090625 455 1044.871337890625 460.1487248 1044.871337890625 466.5 C 1044.871337890625 472.8512752 1039.722613090625 478 1033.371337890625 478 C 1027.020062690625 478 1021.871337890625 472.8512752 1021.871337890625 466.5 Z" opacity="0.2"/></g><g transform="translate(-14,-38) scale(1,1)"><path fill="#ffffff" stroke="none" d="M 1014.871337890625 459.5 C 1014.871337890625 453.1487248 1020.020062690625 448 1026.371337890625 448 C 1032.722613090625 448 1037.871337890625 453.1487248 1037.871337890625 459.5 C 1037.871337890625 465.8512752 1032.722613090625 471 1026.371337890625 471 C 1020.020062690625 471 1014.871337890625 465.8512752 1014.871337890625 459.5 Z"/></g><g transform="translate(-14,-38) scale(1,1)"><path fill="none" stroke="#000000" d="M 1014.871337890625 459.5 C 1014.871337890625 453.1487248 1020.020062690625 448 1026.371337890625 448 C 1032.722613090625 448 1037.871337890625 453.1487248 1037.871337890625 459.5 C 1037.871337890625 465.8512752 1032.722613090625 471 1026.371337890625 471 C 1020.020062690625 471 1014.871337890625 465.8512752 1014.871337890625 459.5 Z" stroke-miterlimit="10"/></g><g transform="translate(-14,-38) scale(1,1)"><g><path fill="none" stroke="none"/><text fill="#000000" stroke="none" font-family="Arial" font-size="13px" font-style="normal" font-weight="bold" text-decoration="none" x="984.4609375" y="490.5">proposer trajet</text></g></g><g transform="translate(-14,-38) scale(1,1)"><path fill="none" stroke="#000000" d="M 897 461 L 1014.871337890625 460.96388154871323" stroke-miterlimit="10"/></g></g></svg>