<svg version="1.1" xmlns="http://www.w3.org/2000/svg" xmlns:xlink="http://www.w3.org/1999/xlink" width="549" height="653"><defs/><g><g transform="translate(-54,-22) scale(1,1)"><rect fill="#ffffff" stroke="none" x="104" y="32" width="392" height="21"/></g><g transform="translate(-54,-22) scale(1,1)"><path fill="none" stroke="#000000" d="M 104 32 L 496 32 L 496 53 L 104 53 L 104 32 Z Z" stroke-miterlimit="10" stroke-width="2"/></g><g transform="translate(-54,-22) scale(1,1)"><path fill="none" stroke="#000000" d="M 104 664 L 104 32 L 496 32 L 496 664" stroke-miterlimit="10" stroke-width="2"/></g><g transform="translate(-54,-22) scale(1,1)"><g><path fill="none" stroke="none"/><text fill="#000000" stroke="none" font-family="Arial" font-size="13px" font-style="normal" font-weight="normal" text-decoration="none" x="196.4443359375" y="49">Visiteurs &amp; Acteurs Publics &amp; Privés</text></g></g><g transform="translate(-54,-22) scale(1,1)"><path fill="#C0C0C0" stroke="none" d="M 71 88.5 C 71 83.2532944 75.2532944 79 80.5 79 C 85.7467056 79 90 83.2532944 90 88.5 C 90 93.7467056 85.7467056 98 80.5 98 C 75.2532944 98 71 93.7467056 71 88.5 Z" opacity="0.2"/></g><g transform="translate(-54,-22) scale(1,1)"><path fill="#000000" stroke="none" d="M 64 81.5 C 64 76.2532944 68.2532944 72 73.5 72 C 78.7467056 72 83 76.2532944 83 81.5 C 83 86.7467056 78.7467056 91 73.5 91 C 68.2532944 91 64 86.7467056 64 81.5 Z"/></g><g transform="translate(-54,-22) scale(1,1)"><path fill="#C0C0C0" stroke="none" d="M 257 215 L 328.544921875 215 Q 338.544921875 215 338.544921875 225 L 338.544921875 245 Q 338.544921875 255 328.544921875 255 L 257 255 Q 247 255 247 245 L 247 225 Q 247 215 257 215 Z" opacity="0.2"/></g><g transform="translate(-54,-22) scale(1,1)"><path fill="#ffffff" stroke="none" d="M 250 208 L 321.544921875 208 Q 331.544921875 208 331.544921875 218 L 331.544921875 238 Q 331.544921875 248 321.544921875 248 L 250 248 Q 240 248 240 238 L 240 218 Q 240 208 250 208 Z"/></g><g transform="translate(-54,-22) scale(1,1)"><path fill="none" stroke="#000000" d="M 250 208 L 321.544921875 208 Q 331.544921875 208 331.544921875 218 L 331.544921875 238 Q 331.544921875 248 321.544921875 248 L 250 248 Q 240 248 240 238 L 240 218 Q 240 208 250 208 Z" stroke-miterlimit="10"/></g><g transform="translate(-54,-22) scale(1,1)"><g><path fill="none" stroke="none"/><text fill="#000000" stroke="none" font-family="Arial" font-size="13px" font-style="normal" font-weight="bold" text-decoration="none" x="248.03564453125" y="227.5">S'authentifier</text></g></g><g transform="translate(-54,-22) scale(1,1)"><path fill="#C0C0C0" stroke="none" d="M 257 111 L 331.96630859375 111 Q 341.96630859375 111 341.96630859375 121 L 341.96630859375 141 Q 341.96630859375 151 331.96630859375 151 L 257 151 Q 247 151 247 141 L 247 121 Q 247 111 257 111 Z" opacity="0.2"/></g><g transform="translate(-54,-22) scale(1,1)"><path fill="#ffffff" stroke="none" d="M 250 104 L 324.96630859375 104 Q 334.96630859375 104 334.96630859375 114 L 334.96630859375 134 Q 334.96630859375 144 324.96630859375 144 L 250 144 Q 240 144 240 134 L 240 114 Q 240 104 250 104 Z"/></g><g transform="translate(-54,-22) scale(1,1)"><path fill="none" stroke="#000000" d="M 250 104 L 324.96630859375 104 Q 334.96630859375 104 334.96630859375 114 L 334.96630859375 134 Q 334.96630859375 144 324.96630859375 144 L 250 144 Q 240 144 240 134 L 240 114 Q 240 104 250 104 Z" stroke-miterlimit="10"/></g><g transform="translate(-54,-22) scale(1,1)"><g><path fill="none" stroke="none"/><text fill="#000000" stroke="none" font-family="Arial" font-size="13px" font-style="normal" font-weight="bold" text-decoration="none" x="246.66455078125" y="123.5">Creer Compte</text></g></g><g transform="translate(-54,-22) scale(1,1)"><path fill="none" stroke="#000000" d="M 84 82 L 135 88" stroke-miterlimit="10"/></g><g transform="translate(-54,-22) scale(1,1)"><path fill="none" stroke="#000000" d="M 124.41508801734365 90.99326549430853 L 135 88 L 125.39877862988368 82.63189528771822" stroke-miterlimit="10"/></g><g transform="translate(-54,-22) scale(1,1)"><path fill="none" stroke="#000000" d="M 159 92 L 239 112" stroke-miterlimit="10"/></g><g transform="translate(-54,-22) scale(1,1)"><path fill="none" stroke="#000000" d="M 228.1197991854035 113.61902138159262 L 239 112 L 230.16171522551727 105.45135722113758" stroke-miterlimit="10"/></g><g transform="translate(-54,-22) scale(1,1)"><g><path fill="none" stroke="none"/><text fill="#000000" stroke="none" font-family="Arial" font-size="13px" font-style="normal" font-weight="normal" text-decoration="none" x="186.5" y="93.5">[else]</text></g></g><g transform="translate(-54,-22) scale(1,1)"><path fill="none" stroke="#000000" d="M 157 99 L 264 207" stroke-miterlimit="10"/></g><g transform="translate(-54,-22) scale(1,1)"><path fill="none" stroke="#000000" d="M 253.8570140073431 202.7432600322822 L 264 207 L 259.8377955200332 196.8178561261911" stroke-miterlimit="10"/></g><g transform="translate(-54,-22) scale(1,1)"><g><path fill="none" stroke="none"/><text fill="#000000" stroke="none" font-family="Arial" font-size="13px" font-style="normal" font-weight="normal" text-decoration="none" x="142.5" y="163.5">[deja inscrit]</text></g></g><g transform="translate(-54,-22) scale(1,1)"><path fill="none" stroke="#000000" d="M 287 145 L 285 207" stroke-miterlimit="10"/></g><g transform="translate(-54,-22) scale(1,1)"><path fill="none" stroke="#000000" d="M 281.1203284999246 196.70688827168857 L 285 207 L 289.5349870761203 196.97832887092068" stroke-miterlimit="10"/></g><g transform="translate(-54,-22) scale(1,1)"><path fill="#C0C0C0" stroke="none" d="M 143 96.5 L 154.5 87 L 165 96.5 L 154.5 105 L 143 96.5" opacity="0.2"/></g><g transform="translate(-54,-22) scale(1,1)"><path fill="#ffffff" stroke="none" d="M 136 89 L 147 80 L 158 89 L 147 98 L 136 89"/></g><g transform="translate(-54,-22) scale(1,1)"><path fill="none" stroke="#000000" d="M 136 89 L 147 80 L 158 89 L 147 98 L 136 89 L 136 89" stroke-miterlimit="10"/></g><g transform="translate(-54,-22) scale(1,1)"><path fill="#C0C0C0" stroke="none" d="M 279 304.5 L 290.5 295 L 301 304.5 L 290.5 313 L 279 304.5" opacity="0.2"/></g><g transform="translate(-54,-22) scale(1,1)"><path fill="#ffffff" stroke="none" d="M 272 297 L 283 288 L 294 297 L 283 306 L 272 297"/></g><g transform="translate(-54,-22) scale(1,1)"><path fill="none" stroke="#000000" d="M 272 297 L 283 288 L 294 297 L 283 306 L 272 297 L 272 297" stroke-miterlimit="10"/></g><g transform="translate(-54,-22) scale(1,1)"><path fill="none" stroke="#000000" d="M 284 249 L 283 287" stroke-miterlimit="10"/></g><g transform="translate(-54,-22) scale(1,1)"><path fill="none" stroke="#000000" d="M 279.0592853332588 276.7301038021151 L 283 287 L 287.4754071800324 276.9515806928197" stroke-miterlimit="10"/></g><g transform="translate(-54,-22) scale(1,1)"><path fill="#C0C0C0" stroke="none" d="M 129 375 L 234.54931640625 375 Q 244.54931640625 375 244.54931640625 385 L 244.54931640625 405 Q 244.54931640625 415 234.54931640625 415 L 129 415 Q 119 415 119 405 L 119 385 Q 119 375 129 375 Z" opacity="0.2"/></g><g transform="translate(-54,-22) scale(1,1)"><path fill="#ffffff" stroke="none" d="M 122 368 L 227.54931640625 368 Q 237.54931640625 368 237.54931640625 378 L 237.54931640625 398 Q 237.54931640625 408 227.54931640625 408 L 122 408 Q 112 408 112 398 L 112 378 Q 112 368 122 368 Z"/></g><g transform="translate(-54,-22) scale(1,1)"><path fill="none" stroke="#000000" d="M 122 368 L 227.54931640625 368 Q 237.54931640625 368 237.54931640625 378 L 237.54931640625 398 Q 237.54931640625 408 227.54931640625 408 L 122 408 Q 112 408 112 398 L 112 378 Q 112 368 122 368 Z" stroke-miterlimit="10"/></g><g transform="translate(-54,-22) scale(1,1)"><g><path fill="none" stroke="none"/><text fill="#000000" stroke="none" font-family="Arial" font-size="13px" font-style="normal" font-weight="bold" text-decoration="none" x="120.78466796875" y="387.5">Accéder à l'accueil</text></g></g><g transform="translate(-54,-22) scale(1,1)"><path fill="#C0C0C0" stroke="none" d="M 329 375 L 483.4580078125 375 Q 493.4580078125 375 493.4580078125 385 L 493.4580078125 405 Q 493.4580078125 415 483.4580078125 415 L 329 415 Q 319 415 319 405 L 319 385 Q 319 375 329 375 Z" opacity="0.2"/></g><g transform="translate(-54,-22) scale(1,1)"><path fill="#ffffff" stroke="none" d="M 322 368 L 476.4580078125 368 Q 486.4580078125 368 486.4580078125 378 L 486.4580078125 398 Q 486.4580078125 408 476.4580078125 408 L 322 408 Q 312 408 312 398 L 312 378 Q 312 368 322 368 Z"/></g><g transform="translate(-54,-22) scale(1,1)"><path fill="none" stroke="#000000" d="M 322 368 L 476.4580078125 368 Q 486.4580078125 368 486.4580078125 378 L 486.4580078125 398 Q 486.4580078125 408 476.4580078125 408 L 322 408 Q 312 408 312 398 L 312 378 Q 312 368 322 368 Z" stroke-miterlimit="10"/></g><g transform="translate(-54,-22) scale(1,1)"><g><path fill="none" stroke="none"/><text fill="#000000" stroke="none" font-family="Arial" font-size="13px" font-style="normal" font-weight="bold" text-decoration="none" x="321.187744140625" y="387.5">Recupérer le mot de passe</text></g></g><g transform="translate(-54,-22) scale(1,1)"><path fill="none" stroke="#000000" d="M 271 307 L 199 367" stroke-miterlimit="10"/></g><g transform="translate(-54,-22) scale(1,1)"><path fill="none" stroke="#000000" d="M 204.11231548574403 357.2601729802721 L 199 367 L 209.50205068076818 363.72785521430103" stroke-miterlimit="10"/></g><g transform="translate(-54,-22) scale(1,1)"><g><path fill="none" stroke="none"/><text fill="#000000" stroke="none" font-family="Arial" font-size="13px" font-style="normal" font-weight="normal" text-decoration="none" x="199.214111328125" y="337.5">[OK]</text></g></g><g transform="translate(-54,-22) scale(1,1)"><path fill="none" stroke="#000000" d="M 295 306 L 372 367" stroke-miterlimit="10"/></g><g transform="translate(-54,-22) scale(1,1)"><path fill="none" stroke="#000000" d="M 361.4201379140734 363.9889340354664 L 372 367 L 366.6480529371446 357.3897626129011" stroke-miterlimit="10"/></g><g transform="translate(-54,-22) scale(1,1)"><g><path fill="none" stroke="none"/><text fill="#000000" stroke="none" font-family="Arial" font-size="13px" font-style="normal" font-weight="normal" text-decoration="none" x="263.5" y="356.5">[mot de passe oublié]</text></g></g><g transform="translate(-54,-22) scale(1,1)"><path fill="none" stroke="#000000" d="M 399 367 L 400 232 L 333 230" stroke-miterlimit="10"/></g><g transform="translate(-54,-22) scale(1,1)"><path fill="none" stroke="#000000" d="M 343.2837513682692 226.09558483308675 L 333 230 L 343.03254876963155 234.5108718874476" stroke-miterlimit="10"/></g><g transform="translate(-54,-22) scale(1,1)"><path fill="#C0C0C0" stroke="none" d="M 241 455 L 349.9326171875 455 Q 359.9326171875 455 359.9326171875 465 L 359.9326171875 485 Q 359.9326171875 495 349.9326171875 495 L 241 495 Q 231 495 231 485 L 231 465 Q 231 455 241 455 Z" opacity="0.2"/></g><g transform="translate(-54,-22) scale(1,1)"><path fill="#ffffff" stroke="none" d="M 234 448 L 342.9326171875 448 Q 352.9326171875 448 352.9326171875 458 L 352.9326171875 478 Q 352.9326171875 488 342.9326171875 488 L 234 488 Q 224 488 224 478 L 224 458 Q 224 448 234 448 Z"/></g><g transform="translate(-54,-22) scale(1,1)"><path fill="none" stroke="#000000" d="M 234 448 L 342.9326171875 448 Q 352.9326171875 448 352.9326171875 458 L 352.9326171875 478 Q 352.9326171875 488 342.9326171875 488 L 234 488 Q 224 488 224 478 L 224 458 Q 224 448 234 448 Z" stroke-miterlimit="10"/></g><g transform="translate(-54,-22) scale(1,1)"><g><path fill="none" stroke="none"/><text fill="#000000" stroke="none" font-family="Arial" font-size="13px" font-style="normal" font-weight="bold" text-decoration="none" x="232.464111328125" y="467.5">Accéder au compte</text></g></g><g transform="translate(-54,-22) scale(1,1)"><path fill="none" stroke="#000000" d="M 204 409 L 258 447" stroke-miterlimit="10"/></g><g transform="translate(-54,-22) scale(1,1)"><path fill="none" stroke="#000000" d="M 247.2663495524063 444.5940182733712 L 258 447 L 252.1114489759306 437.70887698731036" stroke-miterlimit="10"/></g><g transform="translate(-54,-22) scale(1,1)"><path fill="#C0C0C0" stroke="none" d="M 161 607 L 252.552734375 607 Q 262.552734375 607 262.552734375 617 L 262.552734375 637 Q 262.552734375 647 252.552734375 647 L 161 647 Q 151 647 151 637 L 151 617 Q 151 607 161 607 Z" opacity="0.2"/></g><g transform="translate(-54,-22) scale(1,1)"><path fill="#ffffff" stroke="none" d="M 154 600 L 245.552734375 600 Q 255.552734375 600 255.552734375 610 L 255.552734375 630 Q 255.552734375 640 245.552734375 640 L 154 640 Q 144 640 144 630 L 144 610 Q 144 600 154 600 Z"/></g><g transform="translate(-54,-22) scale(1,1)"><path fill="none" stroke="#000000" d="M 154 600 L 245.552734375 600 Q 255.552734375 600 255.552734375 610 L 255.552734375 630 Q 255.552734375 640 245.552734375 640 L 154 640 Q 144 640 144 630 L 144 610 Q 144 600 154 600 Z" stroke-miterlimit="10"/></g><g transform="translate(-54,-22) scale(1,1)"><g><path fill="none" stroke="none"/><text fill="#000000" stroke="none" font-family="Arial" font-size="13px" font-style="normal" font-weight="bold" text-decoration="none" x="152.0927734375" y="619.5">Modifier Compte</text></g></g><g transform="translate(-54,-22) scale(1,1)"><path fill="#C0C0C0" stroke="none" d="M 353 607 L 459.0126953125 607 Q 469.0126953125 607 469.0126953125 617 L 469.0126953125 637 Q 469.0126953125 647 459.0126953125 647 L 353 647 Q 343 647 343 637 L 343 617 Q 343 607 353 607 Z" opacity="0.2"/></g><g transform="translate(-54,-22) scale(1,1)"><path fill="#ffffff" stroke="none" d="M 346 600 L 452.0126953125 600 Q 462.0126953125 600 462.0126953125 610 L 462.0126953125 630 Q 462.0126953125 640 452.0126953125 640 L 346 640 Q 336 640 336 630 L 336 610 Q 336 600 346 600 Z"/></g><g transform="translate(-54,-22) scale(1,1)"><path fill="none" stroke="#000000" d="M 346 600 L 452.0126953125 600 Q 462.0126953125 600 462.0126953125 610 L 462.0126953125 630 Q 462.0126953125 640 452.0126953125 640 L 346 640 Q 336 640 336 630 L 336 610 Q 336 600 346 600 Z" stroke-miterlimit="10"/></g><g transform="translate(-54,-22) scale(1,1)"><g><path fill="none" stroke="none"/><text fill="#000000" stroke="none" font-family="Arial" font-size="13px" font-style="normal" font-weight="bold" text-decoration="none" x="344.457763671875" y="619.5">Supprimer Compte</text></g></g><g transform="translate(-54,-22) scale(1,1)"><path fill="#C0C0C0" stroke="none" d="M 266 559 L 329 559 Q 332 559 332 562 L 332 561 Q 332 564 329 564 L 266 564 Q 263 564 263 561 L 263 562 Q 263 559 266 559 Z" opacity="0.2"/></g><g transform="translate(-54,-22) scale(1,1)"><path fill="#000000" stroke="none" d="M 259 552 L 322 552 Q 325 552 325 555 L 325 555 Q 325 558 322 558 L 259 558 Q 256 558 256 555 L 256 555 Q 256 552 259 552 Z"/></g><g transform="translate(-54,-22) scale(1,1)"><path fill="none" stroke="#000000" d="M 288 489 L 290 551" stroke-miterlimit="10"/></g><g transform="translate(-54,-22) scale(1,1)"><path fill="none" stroke="#000000" d="M 285.4650129238797 540.9783288709207 L 290 551 L 293.8796715000754 540.7068882716885" stroke-miterlimit="10"/></g><g transform="translate(-54,-22) scale(1,1)"><path fill="none" stroke="#000000" d="M 284 558 L 228 599" stroke-miterlimit="10"/></g><g transform="translate(-54,-22) scale(1,1)"><path fill="none" stroke="#000000" d="M 233.7131588157054 589.6000097688068 L 228 599 L 238.68661017614502 596.393016505017" stroke-miterlimit="10"/></g><g transform="translate(-54,-22) scale(1,1)"><path fill="none" stroke="#000000" d="M 297 558 L 364 599" stroke-miterlimit="10"/></g><g transform="translate(-54,-22) scale(1,1)"><path fill="none" stroke="#000000" d="M 353.1343534973235 597.2860203971827 L 364 599 L 357.5287942759491 590.104861076014" stroke-miterlimit="10"/></g><g transform="translate(-54,-22) scale(1,1)"><path fill="none" stroke="#000000" d="M 211 599 L 276 489" stroke-miterlimit="10"/></g><g transform="translate(-54,-22) scale(1,1)"><path fill="none" stroke="#000000" d="M 274.45403491745753 499.8908214549482 L 276 489 L 267.2058639031708 495.6078113101424" stroke-miterlimit="10"/></g><g transform="translate(-54,-22) scale(1,1)"><path fill="#C0C0C0" stroke="none" d="M 575 659.5 C 575 652.59644 580.59644 647 587.5 647 C 594.40356 647 600 652.59644 600 659.5 C 600 666.40356 594.40356 672 587.5 672 C 580.59644 672 575 666.40356 575 659.5 Z" opacity="0.2"/></g><g transform="translate(-54,-22) scale(1,1)"><path fill="none" stroke="#000000" d="M 568 652.5 C 568 645.59644 573.59644 640 580.5 640 C 587.40356 640 593 645.59644 593 652.5 C 593 659.40356 587.40356 665 580.5 665 C 573.59644 665 568 659.40356 568 652.5 Z" stroke-miterlimit="10"/></g><g transform="translate(-54,-22) scale(1,1)"><path fill="#000000" stroke="none" d="M 573 652.5 C 573 648.357864 576.357864 645 580.5 645 C 584.642136 645 588 648.357864 588 652.5 C 588 656.642136 584.642136 660 580.5 660 C 576.357864 660 573 656.642136 573 652.5 Z"/></g><g transform="translate(-54,-22) scale(1,1)"><path fill="none" stroke="#000000" d="M 463 631 L 567 650" stroke-miterlimit="10"/></g><g transform="translate(-54,-22) scale(1,1)"><path fill="none" stroke="#000000" d="M 556.246266547378 652.3145662293308 L 567 650 L 557.7593166763131 644.0326076288435" stroke-miterlimit="10"/></g></g></svg>