<svg version="1.1" xmlns="http://www.w3.org/2000/svg" xmlns:xlink="http://www.w3.org/1999/xlink" width="1084" height="732"><defs/><g><g transform="translate(-54,-142) scale(1,1)"><path fill="#C0C0C0" stroke="none" d="M 71 233 L 247.08447265625 233 L 247.08447265625 358 L 71 358" opacity="0.2"/></g><g transform="translate(-54,-142) scale(1,1)"><path fill="#C0C0C0" stroke="none" d="M 71 233 L 81 223 L 257.08447265625 223 L 247.08447265625 233" opacity="0.2"/></g><g transform="translate(-54,-142) scale(1,1)"><path fill="#C0C0C0" stroke="none" d="M 257.08447265625 223 L 247.08447265625 233 L 247.08447265625 358 L 257.08447265625 348" opacity="0.2"/></g><g transform="translate(-54,-142) scale(1,1)"><path fill="#ffffff" stroke="none" d="M 64 226 L 240.08447265625 226 L 240.08447265625 351 L 64 351"/></g><g transform="translate(-54,-142) scale(1,1)"><path fill="#ffffff" stroke="none" d="M 64 226 L 74 216 L 250.08447265625 216 L 240.08447265625 226"/></g><g transform="translate(-54,-142) scale(1,1)"><path fill="#ffffff" stroke="none" d="M 250.08447265625 216 L 240.08447265625 226 L 240.08447265625 351 L 250.08447265625 341"/></g><g transform="translate(-54,-142) scale(1,1)"><path fill="none" stroke="#000000" d="M 64 226 L 240.08447265625 226 L 240.08447265625 351 L 64 351 L 64 226" stroke-miterlimit="10"/></g><g transform="translate(-54,-142) scale(1,1)"><path fill="none" stroke="#000000" d="M 64 226 L 74 216 L 250.08447265625 216 L 240.08447265625 226 L 64 226" stroke-miterlimit="10"/></g><g transform="translate(-54,-142) scale(1,1)"><path fill="none" stroke="#000000" d="M 250.08447265625 216 L 240.08447265625 226 L 240.08447265625 351 L 250.08447265625 341 L 250.08447265625 216" stroke-miterlimit="10"/></g><g transform="translate(-54,-142) scale(1,1)"><g><path fill="none" stroke="none"/><text fill="#000000" stroke="none" font-family="Arial" font-size="13px" font-style="normal" font-weight="bold" text-decoration="none" x="107.378662109375" y="245.5">Navigateur web</text></g></g><g transform="translate(-54,-142) scale(1,1)"><path fill="#C0C0C0" stroke="none" d="M 471 169 L 1124 169 L 1124 622 L 471 622" opacity="0.2"/></g><g transform="translate(-54,-142) scale(1,1)"><path fill="#C0C0C0" stroke="none" d="M 471 169 L 481 159 L 1134 159 L 1124 169" opacity="0.2"/></g><g transform="translate(-54,-142) scale(1,1)"><path fill="#C0C0C0" stroke="none" d="M 1134 159 L 1124 169 L 1124 622 L 1134 612" opacity="0.2"/></g><g transform="translate(-54,-142) scale(1,1)"><path fill="#ffffff" stroke="none" d="M 464 162 L 1117 162 L 1117 615 L 464 615"/></g><g transform="translate(-54,-142) scale(1,1)"><path fill="#ffffff" stroke="none" d="M 464 162 L 474 152 L 1127 152 L 1117 162"/></g><g transform="translate(-54,-142) scale(1,1)"><path fill="#ffffff" stroke="none" d="M 1127 152 L 1117 162 L 1117 615 L 1127 605"/></g><g transform="translate(-54,-142) scale(1,1)"><path fill="none" stroke="#000000" d="M 464 162 L 1117 162 L 1117 615 L 464 615 L 464 162" stroke-miterlimit="10"/></g><g transform="translate(-54,-142) scale(1,1)"><path fill="none" stroke="#000000" d="M 464 162 L 474 152 L 1127 152 L 1117 162 L 464 162" stroke-miterlimit="10"/></g><g transform="translate(-54,-142) scale(1,1)"><path fill="none" stroke="#000000" d="M 1127 152 L 1117 162 L 1117 615 L 1127 605 L 1127 152" stroke-miterlimit="10"/></g><g transform="translate(-54,-142) scale(1,1)"><g><path fill="none" stroke="none"/><text fill="#000000" stroke="none" font-family="Arial" font-size="13px" font-style="normal" font-weight="bold" text-decoration="none" x="753.18701171875" y="181.5">Serveur Web</text></g></g><g transform="translate(-54,-142) scale(1,1)"><rect fill="#C0C0C0" stroke="none" x="577" y="503" width="105.708984375" height="44" opacity="0.2"/></g><g transform="translate(-54,-142) scale(1,1)"><rect fill="#ffffff" stroke="none" x="570" y="496" width="105.708984375" height="44"/></g><g transform="translate(-54,-142) scale(1,1)"><path fill="none" stroke="#000000" d="M 570 496 L 675.708984375 496 L 675.708984375 540 L 570 540 L 570 496 Z Z" stroke-miterlimit="10"/></g><g transform="translate(-54,-142) scale(1,1)"><rect fill="#ffffff" stroke="none" x="560" y="503" width="20" height="10"/></g><g transform="translate(-54,-142) scale(1,1)"><path fill="none" stroke="#000000" d="M 560 503 L 580 503 L 580 513 L 560 513 L 560 503 Z Z" stroke-miterlimit="10"/></g><g transform="translate(-54,-142) scale(1,1)"><rect fill="#ffffff" stroke="none" x="560" y="523" width="20" height="10"/></g><g transform="translate(-54,-142) scale(1,1)"><path fill="none" stroke="#000000" d="M 560 523 L 580 523 L 580 533 L 560 533 L 560 523 Z Z" stroke-miterlimit="10"/></g><g transform="translate(-54,-142) scale(1,1)"><g><path fill="none" stroke="none"/><text fill="#000000" stroke="none" font-family="Arial" font-size="13px" font-style="normal" font-weight="bold" text-decoration="none" x="587.029541015625" y="515.5">Service Guide</text></g></g><g transform="translate(-54,-142) scale(1,1)"><rect fill="#C0C0C0" stroke="none" x="921" y="351" width="168.55078125" height="44" opacity="0.2"/></g><g transform="translate(-54,-142) scale(1,1)"><rect fill="#ffffff" stroke="none" x="914" y="344" width="168.55078125" height="44"/></g><g transform="translate(-54,-142) scale(1,1)"><path fill="none" stroke="#000000" d="M 914 344 L 1082.55078125 344 L 1082.55078125 388 L 914 388 L 914 344 Z Z" stroke-miterlimit="10"/></g><g transform="translate(-54,-142) scale(1,1)"><rect fill="#ffffff" stroke="none" x="904" y="351" width="20" height="10"/></g><g transform="translate(-54,-142) scale(1,1)"><path fill="none" stroke="#000000" d="M 904 351 L 924 351 L 924 361 L 904 361 L 904 351 Z Z" stroke-miterlimit="10"/></g><g transform="translate(-54,-142) scale(1,1)"><rect fill="#ffffff" stroke="none" x="904" y="371" width="20" height="10"/></g><g transform="translate(-54,-142) scale(1,1)"><path fill="none" stroke="#000000" d="M 904 371 L 924 371 L 924 381 L 904 381 L 904 371 Z Z" stroke-miterlimit="10"/></g><g transform="translate(-54,-142) scale(1,1)"><g><path fill="none" stroke="none"/><text fill="#000000" stroke="none" font-family="Arial" font-size="13px" font-style="normal" font-weight="bold" text-decoration="none" x="933.911376953125" y="363.5">Service Album Souvenir</text></g></g><g transform="translate(-54,-142) scale(1,1)"><rect fill="#C0C0C0" stroke="none" x="529" y="335" width="136.7744140625" height="44" opacity="0.2"/></g><g transform="translate(-54,-142) scale(1,1)"><rect fill="#ffffff" stroke="none" x="522" y="328" width="136.7744140625" height="44"/></g><g transform="translate(-54,-142) scale(1,1)"><path fill="none" stroke="#000000" d="M 522 328 L 658.7744140625 328 L 658.7744140625 372 L 522 372 L 522 328 Z Z" stroke-miterlimit="10"/></g><g transform="translate(-54,-142) scale(1,1)"><rect fill="#ffffff" stroke="none" x="512" y="335" width="20" height="10"/></g><g transform="translate(-54,-142) scale(1,1)"><path fill="none" stroke="#000000" d="M 512 335 L 532 335 L 532 345 L 512 345 L 512 335 Z Z" stroke-miterlimit="10"/></g><g transform="translate(-54,-142) scale(1,1)"><rect fill="#ffffff" stroke="none" x="512" y="355" width="20" height="10"/></g><g transform="translate(-54,-142) scale(1,1)"><path fill="none" stroke="#000000" d="M 512 355 L 532 355 L 532 365 L 512 365 L 512 355 Z Z" stroke-miterlimit="10"/></g><g transform="translate(-54,-142) scale(1,1)"><g><path fill="none" stroke="none"/><text fill="#000000" stroke="none" font-family="Arial" font-size="13px" font-style="normal" font-weight="bold" text-decoration="none" x="540.108642578125" y="347.5">Service Dashboard</text></g></g><g transform="translate(-54,-142) scale(1,1)"><rect fill="#C0C0C0" stroke="none" x="737" y="223" width="117.9345703125" height="44" opacity="0.2"/></g><g transform="translate(-54,-142) scale(1,1)"><rect fill="#ffffff" stroke="none" x="730" y="216" width="117.9345703125" height="44"/></g><g transform="translate(-54,-142) scale(1,1)"><path fill="none" stroke="#000000" d="M 730 216 L 847.9345703125 216 L 847.9345703125 260 L 730 260 L 730 216 Z Z" stroke-miterlimit="10"/></g><g transform="translate(-54,-142) scale(1,1)"><rect fill="#ffffff" stroke="none" x="720" y="223" width="20" height="10"/></g><g transform="translate(-54,-142) scale(1,1)"><path fill="none" stroke="#000000" d="M 720 223 L 740 223 L 740 233 L 720 233 L 720 223 Z Z" stroke-miterlimit="10"/></g><g transform="translate(-54,-142) scale(1,1)"><rect fill="#ffffff" stroke="none" x="720" y="243" width="20" height="10"/></g><g transform="translate(-54,-142) scale(1,1)"><path fill="none" stroke="#000000" d="M 720 243 L 740 243 L 740 253 L 720 253 L 720 243 Z Z" stroke-miterlimit="10"/></g><g transform="translate(-54,-142) scale(1,1)"><g><path fill="none" stroke="none"/><text fill="#000000" stroke="none" font-family="Arial" font-size="13px" font-style="normal" font-weight="bold" text-decoration="none" x="749.52099609375" y="235.5">Authentification</text></g></g><g transform="translate(-54,-142) scale(1,1)"><rect fill="#C0C0C0" stroke="none" x="881" y="431" width="218.43701171875" height="44" opacity="0.2"/></g><g transform="translate(-54,-142) scale(1,1)"><rect fill="#ffffff" stroke="none" x="874" y="424" width="218.43701171875" height="44"/></g><g transform="translate(-54,-142) scale(1,1)"><path fill="none" stroke="#000000" d="M 874 424 L 1092.43701171875 424 L 1092.43701171875 468 L 874 468 L 874 424 Z Z" stroke-miterlimit="10"/></g><g transform="translate(-54,-142) scale(1,1)"><rect fill="#ffffff" stroke="none" x="864" y="431" width="20" height="10"/></g><g transform="translate(-54,-142) scale(1,1)"><path fill="none" stroke="#000000" d="M 864 431 L 884 431 L 884 441 L 864 441 L 864 431 Z Z" stroke-miterlimit="10"/></g><g transform="translate(-54,-142) scale(1,1)"><rect fill="#ffffff" stroke="none" x="864" y="451" width="20" height="10"/></g><g transform="translate(-54,-142) scale(1,1)"><path fill="none" stroke="#000000" d="M 864 451 L 884 451 L 884 461 L 864 461 L 864 451 Z Z" stroke-miterlimit="10"/></g><g transform="translate(-54,-142) scale(1,1)"><g><path fill="none" stroke="none"/><text fill="#000000" stroke="none" font-family="Arial" font-size="13px" font-style="normal" font-weight="bold" text-decoration="none" x="895.009521484375" y="443.5">Service Evenements &amp; festivaux</text></g></g><g transform="translate(-54,-142) scale(1,1)"><path fill="none" stroke="#000000" d="M 631 495 L 769 261" stroke-miterlimit="10" stroke-dasharray="3"/></g><g transform="translate(-54,-142) scale(1,1)"><path fill="none" stroke="#000000" d="M 767.4634484744832 271.89215357077893 L 769 261 L 760.2115783450415 267.61540964828765" stroke-miterlimit="10"/></g><g transform="translate(-54,-142) scale(1,1)"><path fill="none" stroke="#000000" d="M 955 343 L 821 261" stroke-miterlimit="10" stroke-dasharray="3"/></g><g transform="translate(-54,-142) scale(1,1)"><path fill="none" stroke="#000000" d="M 831.8656465026766 262.71397960281735 L 821 261 L 827.471205724051 269.895138923986" stroke-miterlimit="10"/></g><g transform="translate(-54,-142) scale(1,1)"><path fill="none" stroke="#000000" d="M 626 327 L 742 261" stroke-miterlimit="10" stroke-dasharray="3"/></g><g transform="translate(-54,-142) scale(1,1)"><path fill="none" stroke="#000000" d="M 735.2486791851526 269.68444973818197 L 742 261 L 731.0852619691134 262.36692857059774" stroke-miterlimit="10"/></g><g transform="translate(-54,-142) scale(1,1)"><path fill="none" stroke="#000000" d="M 956 423 L 805 261" stroke-miterlimit="10" stroke-dasharray="3"/></g><g transform="translate(-54,-142) scale(1,1)"><path fill="none" stroke="#000000" d="M 815.0085577335766 265.5638549597531 L 805 261 L 808.8499862529159 271.3042518337024" stroke-miterlimit="10"/></g><g transform="translate(-54,-142) scale(1,1)"><path fill="none" stroke="#000000" d="M 613 495 L 589 373" stroke-miterlimit="10" stroke-dasharray="3"/></g><g transform="translate(-54,-142) scale(1,1)"><path fill="none" stroke="#000000" d="M 595.0919738932787 382.1590312852185 L 589 373 L 586.831262919871 383.7840891816265" stroke-miterlimit="10"/></g><g transform="translate(-54,-142) scale(1,1)"><path fill="none" stroke="#000000" d="M 884 423 L 660 368" stroke-miterlimit="10" stroke-dasharray="3"/></g><g transform="translate(-54,-142) scale(1,1)"><path fill="none" stroke="#000000" d="M 670.8732948698774 366.33523014422525 L 660 368 L 668.8657505904645 374.511410482198" stroke-miterlimit="10"/></g><g transform="translate(-54,-142) scale(1,1)"><rect fill="#C0C0C0" stroke="none" x="761" y="511" width="147.6162109375" height="44" opacity="0.2"/></g><g transform="translate(-54,-142) scale(1,1)"><rect fill="#ffffff" stroke="none" x="754" y="504" width="147.6162109375" height="44"/></g><g transform="translate(-54,-142) scale(1,1)"><path fill="none" stroke="#000000" d="M 754 504 L 901.6162109375 504 L 901.6162109375 548 L 754 548 L 754 504 Z Z" stroke-miterlimit="10"/></g><g transform="translate(-54,-142) scale(1,1)"><rect fill="#ffffff" stroke="none" x="744" y="511" width="20" height="10"/></g><g transform="translate(-54,-142) scale(1,1)"><path fill="none" stroke="#000000" d="M 744 511 L 764 511 L 764 521 L 744 521 L 744 511 Z Z" stroke-miterlimit="10"/></g><g transform="translate(-54,-142) scale(1,1)"><rect fill="#ffffff" stroke="none" x="744" y="531" width="20" height="10"/></g><g transform="translate(-54,-142) scale(1,1)"><path fill="none" stroke="#000000" d="M 744 531 L 764 531 L 764 541 L 744 541 L 744 531 Z Z" stroke-miterlimit="10"/></g><g transform="translate(-54,-142) scale(1,1)"><g><path fill="none" stroke="none"/><text fill="#000000" stroke="none" font-family="Arial" font-size="13px" font-style="normal" font-weight="bold" text-decoration="none" x="772.108642578125" y="523.5">Service Maintenance</text></g></g><g transform="translate(-54,-142) scale(1,1)"><path fill="none" stroke="#000000" d="M 819 503 L 786 261" stroke-miterlimit="10" stroke-dasharray="3"/></g><g transform="translate(-54,-142) scale(1,1)"><path fill="none" stroke="#000000" d="M 791.544028754255 270.5007234025622 L 786 261 L 783.2021943830974 271.6382462713564" stroke-miterlimit="10"/></g><g transform="translate(-54,-142) scale(1,1)"><path fill="none" stroke="#000000" d="M 252 299 L 463 332" stroke-miterlimit="10"/></g><g transform="translate(-54,-142) scale(1,1)"><g><path fill="none" stroke="none"/><text fill="#000000" stroke="none" font-family="Arial" font-size="13px" font-style="normal" font-weight="normal" text-decoration="none" x="338.5" y="306.5">+HTTP</text></g></g><g transform="translate(-54,-142) scale(1,1)"><path fill="#C0C0C0" stroke="none" d="M 439 753 L 692 753 L 692 870 L 439 870" opacity="0.2"/></g><g transform="translate(-54,-142) scale(1,1)"><path fill="#C0C0C0" stroke="none" d="M 439 753 L 449 743 L 702 743 L 692 753" opacity="0.2"/></g><g transform="translate(-54,-142) scale(1,1)"><path fill="#C0C0C0" stroke="none" d="M 702 743 L 692 753 L 692 870 L 702 860" opacity="0.2"/></g><g transform="translate(-54,-142) scale(1,1)"><path fill="#ffffff" stroke="none" d="M 432 746 L 685 746 L 685 863 L 432 863"/></g><g transform="translate(-54,-142) scale(1,1)"><path fill="#ffffff" stroke="none" d="M 432 746 L 442 736 L 695 736 L 685 746"/></g><g transform="translate(-54,-142) scale(1,1)"><path fill="#ffffff" stroke="none" d="M 695 736 L 685 746 L 685 863 L 695 853"/></g><g transform="translate(-54,-142) scale(1,1)"><path fill="none" stroke="#000000" d="M 432 746 L 685 746 L 685 863 L 432 863 L 432 746" stroke-miterlimit="10"/></g><g transform="translate(-54,-142) scale(1,1)"><path fill="none" stroke="#000000" d="M 432 746 L 442 736 L 695 736 L 685 746 L 432 746" stroke-miterlimit="10"/></g><g transform="translate(-54,-142) scale(1,1)"><path fill="none" stroke="#000000" d="M 695 736 L 685 746 L 685 863 L 695 853 L 695 736" stroke-miterlimit="10"/></g><g transform="translate(-54,-142) scale(1,1)"><g><path fill="none" stroke="none"/><text fill="#000000" stroke="none" font-family="Arial" font-size="13px" font-style="normal" font-weight="bold" text-decoration="none" x="525.405029296875" y="765.5">Serveur DB</text></g></g><g transform="translate(-54,-142) scale(1,1)"><path fill="#C0C0C0" stroke="none" d="M 566.6802734375 783 L 594.1202734375 783 L 605.8802734375 794.76 L 605.8802734375 832 L 566.6802734375 832" opacity="0.2"/></g><g transform="translate(-54,-142) scale(1,1)"><path fill="#ffffff" stroke="none" d="M 559.6802734375 776 L 587.1202734375 776 L 598.8802734375 787.76 L 598.8802734375 825 L 559.6802734375 825"/></g><g transform="translate(-54,-142) scale(1,1)"><path fill="none" stroke="#000000" d="M 559.6802734375 776 L 587.1202734375 776 L 598.8802734375 787.76 L 598.8802734375 825 L 559.6802734375 825 L 559.6802734375 776" stroke-miterlimit="10"/></g><g transform="translate(-54,-142) scale(1,1)"><path fill="none" stroke="#000000" d="M 587.1202734375 776 L 587.1202734375 787.76 L 598.8802734375 787.76 L 587.1202734375 776" stroke-miterlimit="10"/></g><g transform="translate(-54,-142) scale(1,1)"><g><path fill="none" stroke="none"/><text fill="#000000" stroke="none" font-family="Arial" font-size="13px" font-style="normal" font-weight="bold" text-decoration="none" x="529.07666015625" y="844.5">SmartTourism.sql</text></g></g><g transform="translate(-54,-142) scale(1,1)"><path fill="none" stroke="#000000" d="M 600 735 L 666 617" stroke-miterlimit="10"/></g><g transform="translate(-54,-142) scale(1,1)"><g><path fill="none" stroke="none"/><text fill="#000000" stroke="none" font-family="Arial" font-size="13px" font-style="normal" font-weight="normal" text-decoration="none" x="593.5" y="674.5">+TCP-IP</text></g></g></g></svg>