<svg version="1.1" xmlns="http://www.w3.org/2000/svg" xmlns:xlink="http://www.w3.org/1999/xlink" width="813.41162109375" height="403"><defs/><g><g transform="translate(-38,-22) scale(1,1)"><rect fill="#C0C0C0" stroke="none" x="183" y="39" width="439" height="383" opacity="0.2"/></g><g transform="translate(-38,-22) scale(1,1)"><rect fill="#ffffff" stroke="none" x="176" y="32" width="439" height="383"/></g><g transform="translate(-38,-22) scale(1,1)"><path fill="none" stroke="#000000" d="M 176 32 L 615 32 L 615 415 L 176 415 L 176 32 Z Z" stroke-miterlimit="10"/></g><g transform="translate(-38,-22) scale(1,1)"><g><path fill="none" stroke="none"/><text fill="#000000" stroke="none" font-family="Arial" font-size="13px" font-style="normal" font-weight="bold" text-decoration="none" x="340.221435546875" y="51.5">Service Dashboard</text></g></g><g transform="translate(-38,-22) scale(1,1)"><path fill="#ffffff" stroke="none" d="M 67.54509250710227 105.68 C 67.54509250710227 100.886167936 71.43093483204773 97 76.224365234375 97 C 81.01779563670227 97 84.90363796164773 100.886167936 84.90363796164773 105.68 C 84.90363796164773 110.473832064 81.01779563670227 114.36 76.224365234375 114.36 C 71.43093483204773 114.36 67.54509250710227 110.473832064 67.54509250710227 105.68 Z"/></g><g transform="translate(-38,-22) scale(1,1)"><path fill="none" stroke="#000000" d="M 67.54509250710227 105.68 C 67.54509250710227 100.886167936 71.43093483204773 97 76.224365234375 97 C 81.01779563670227 97 84.90363796164773 100.886167936 84.90363796164773 105.68 C 84.90363796164773 110.473832064 81.01779563670227 114.36 76.224365234375 114.36 C 71.43093483204773 114.36 67.54509250710227 110.473832064 67.54509250710227 105.68 Z" stroke-miterlimit="10"/></g><g transform="translate(-38,-22) scale(1,1)"><path fill="none" stroke="#000000" d="M 76.224365234375 114.36 L 76.224365234375 131.64" stroke-miterlimit="10"/></g><g transform="translate(-38,-22) scale(1,1)"><path fill="none" stroke="#000000" d="M 67.03454705255682 120.84 L 85.41418341619318 120.84" stroke-miterlimit="10"/></g><g transform="translate(-38,-22) scale(1,1)"><path fill="none" stroke="#000000" d="M 76.224365234375 131.64 L 63.460728870738635 149" stroke-miterlimit="10"/></g><g transform="translate(-38,-22) scale(1,1)"><path fill="none" stroke="#000000" d="M 76.224365234375 131.64 L 88.98800159801137 149" stroke-miterlimit="10"/></g><g transform="translate(-38,-22) scale(1,1)"><g><path fill="none" stroke="none"/><text fill="#000000" stroke="none" font-family="Arial" font-size="13px" font-style="normal" font-weight="bold" text-decoration="none" x="54.667724609375" y="169.5">Visiteur</text></g></g><g transform="translate(-38,-22) scale(1,1)"><path fill="#ffffff" stroke="none" d="M 748.0265378196023 265.68 C 748.0265378196023 260.886167936 751.9123801445477 257 756.705810546875 257 C 761.4992409492023 257 765.3850832741477 260.886167936 765.3850832741477 265.68 C 765.3850832741477 270.473832064 761.4992409492023 274.36 756.705810546875 274.36 C 751.9123801445477 274.36 748.0265378196023 270.473832064 748.0265378196023 265.68 Z"/></g><g transform="translate(-38,-22) scale(1,1)"><path fill="none" stroke="#000000" d="M 748.0265378196023 265.68 C 748.0265378196023 260.886167936 751.9123801445477 257 756.705810546875 257 C 761.4992409492023 257 765.3850832741477 260.886167936 765.3850832741477 265.68 C 765.3850832741477 270.473832064 761.4992409492023 274.36 756.705810546875 274.36 C 751.9123801445477 274.36 748.0265378196023 270.473832064 748.0265378196023 265.68 Z" stroke-miterlimit="10"/></g><g transform="translate(-38,-22) scale(1,1)"><path fill="none" stroke="#000000" d="M 756.705810546875 274.36 L 756.705810546875 291.64" stroke-miterlimit="10"/></g><g transform="translate(-38,-22) scale(1,1)"><path fill="none" stroke="#000000" d="M 747.5159923650568 280.84 L 765.8956287286932 280.84" stroke-miterlimit="10"/></g><g transform="translate(-38,-22) scale(1,1)"><path fill="none" stroke="#000000" d="M 756.705810546875 291.64 L 743.9421741832386 309" stroke-miterlimit="10"/></g><g transform="translate(-38,-22) scale(1,1)"><path fill="none" stroke="#000000" d="M 756.705810546875 291.64 L 769.4694469105114 309" stroke-miterlimit="10"/></g><g transform="translate(-38,-22) scale(1,1)"><g><path fill="none" stroke="none"/><text fill="#000000" stroke="none" font-family="Arial" font-size="13px" font-style="normal" font-weight="bold" text-decoration="none" x="682.2890625" y="329.5">Secteurs Publics &amp; Privés</text></g></g><g transform="translate(-38,-22) scale(1,1)"><path fill="#C0C0C0" stroke="none" d="M 287 208 C 287 198.6111584 331.77152 191 387 191 C 442.22848 191 487 198.6111584 487 208 C 487 217.3888416 442.22848 225 387 225 C 331.77152 225 287 217.3888416 287 208 Z" opacity="0.2"/></g><g transform="translate(-38,-22) scale(1,1)"><path fill="#ffffff" stroke="none" d="M 280 201 C 280 191.6111584 324.77152 184 380 184 C 435.22848 184 480 191.6111584 480 201 C 480 210.3888416 435.22848 218 380 218 C 324.77152 218 280 210.3888416 280 201 Z"/></g><g transform="translate(-38,-22) scale(1,1)"><path fill="none" stroke="#000000" d="M 280 201 C 280 191.6111584 324.77152 184 380 184 C 435.22848 184 480 191.6111584 480 201 C 480 210.3888416 435.22848 218 380 218 C 324.77152 218 280 210.3888416 280 201 Z" stroke-miterlimit="10"/></g><g transform="translate(-38,-22) scale(1,1)"><g><path fill="none" stroke="none"/><text fill="#000000" stroke="none" font-family="Arial" font-size="13px" font-style="normal" font-weight="bold" text-decoration="none" x="318.576904296875" y="208">Consulter Dashboard</text></g></g><g transform="translate(-38,-22) scale(1,1)"><path fill="none" stroke="#000000" d="M 105 141 L 297 183" stroke-miterlimit="10"/></g><g transform="translate(-38,-22) scale(1,1)"><path fill="none" stroke="#000000" d="M 286.17252194905774 184.94054607169318 L 297 183 L 287.97164356053105 176.71599013352937" stroke-miterlimit="10"/></g><g transform="translate(-38,-22) scale(1,1)"><path fill="none" stroke="#000000" d="M 671 274 L 452 219" stroke-miterlimit="10"/></g><g transform="translate(-38,-22) scale(1,1)"><path fill="none" stroke="#000000" d="M 462.8819335505422 217.39266612006597 L 452 219 L 460.83124569214203 225.55813231987756" stroke-miterlimit="10"/></g></g></svg>