<svg version="1.1" xmlns="http://www.w3.org/2000/svg" xmlns:xlink="http://www.w3.org/1999/xlink" width="776.29345703125" height="363"><defs/><g><g transform="translate(-14,-30) scale(1,1)"><rect fill="#C0C0C0" stroke="none" x="151" y="47" width="431" height="343" opacity="0.2"/></g><g transform="translate(-14,-30) scale(1,1)"><rect fill="#ffffff" stroke="none" x="144" y="40" width="431" height="343"/></g><g transform="translate(-14,-30) scale(1,1)"><path fill="none" stroke="#000000" d="M 144 40 L 575 40 L 575 383 L 144 383 L 144 40 Z Z" stroke-miterlimit="10"/></g><g transform="translate(-14,-30) scale(1,1)"><g><path fill="none" stroke="none"/><text fill="#000000" stroke="none" font-family="Arial" font-size="13px" font-style="normal" font-weight="bold" text-decoration="none" x="298.800537109375" y="59.5">Service Maintenance</text></g></g><g transform="translate(-14,-30) scale(1,1)"><path fill="#ffffff" stroke="none" d="M 43.54509250710227 121.68 C 43.54509250710227 116.886167936 47.430934832047726 113 52.224365234375 113 C 57.017795636702274 113 60.90363796164773 116.886167936 60.90363796164773 121.68 C 60.90363796164773 126.473832064 57.017795636702274 130.36 52.224365234375 130.36 C 47.430934832047726 130.36 43.54509250710227 126.473832064 43.54509250710227 121.68 Z"/></g><g transform="translate(-14,-30) scale(1,1)"><path fill="none" stroke="#000000" d="M 43.54509250710227 121.68 C 43.54509250710227 116.886167936 47.430934832047726 113 52.224365234375 113 C 57.017795636702274 113 60.90363796164773 116.886167936 60.90363796164773 121.68 C 60.90363796164773 126.473832064 57.017795636702274 130.36 52.224365234375 130.36 C 47.430934832047726 130.36 43.54509250710227 126.473832064 43.54509250710227 121.68 Z" stroke-miterlimit="10"/></g><g transform="translate(-14,-30) scale(1,1)"><path fill="none" stroke="#000000" d="M 52.224365234375 130.36 L 52.224365234375 147.64" stroke-miterlimit="10"/></g><g transform="translate(-14,-30) scale(1,1)"><path fill="none" stroke="#000000" d="M 43.03454705255682 136.84 L 61.41418341619318 136.84" stroke-miterlimit="10"/></g><g transform="translate(-14,-30) scale(1,1)"><path fill="none" stroke="#000000" d="M 52.224365234375 147.64 L 39.460728870738635 165" stroke-miterlimit="10"/></g><g transform="translate(-14,-30) scale(1,1)"><path fill="none" stroke="#000000" d="M 52.224365234375 147.64 L 64.98800159801137 165" stroke-miterlimit="10"/></g><g transform="translate(-14,-30) scale(1,1)"><g><path fill="none" stroke="none"/><text fill="#000000" stroke="none" font-family="Arial" font-size="13px" font-style="normal" font-weight="bold" text-decoration="none" x="30.667724609375" y="185.5">Visiteur</text></g></g><g transform="translate(-14,-30) scale(1,1)"><path fill="#ffffff" stroke="none" d="M 685.4674557883523 201.68 C 685.4674557883523 196.886167936 689.3532981132977 193 694.146728515625 193 C 698.9401589179523 193 702.8260012428977 196.886167936 702.8260012428977 201.68 C 702.8260012428977 206.47383206400002 698.9401589179523 210.36 694.146728515625 210.36 C 689.3532981132977 210.36 685.4674557883523 206.47383206400002 685.4674557883523 201.68 Z"/></g><g transform="translate(-14,-30) scale(1,1)"><path fill="none" stroke="#000000" d="M 685.4674557883523 201.68 C 685.4674557883523 196.886167936 689.3532981132977 193 694.146728515625 193 C 698.9401589179523 193 702.8260012428977 196.886167936 702.8260012428977 201.68 C 702.8260012428977 206.47383206400002 698.9401589179523 210.36 694.146728515625 210.36 C 689.3532981132977 210.36 685.4674557883523 206.47383206400002 685.4674557883523 201.68 Z" stroke-miterlimit="10"/></g><g transform="translate(-14,-30) scale(1,1)"><path fill="none" stroke="#000000" d="M 694.146728515625 210.36 L 694.146728515625 227.64" stroke-miterlimit="10"/></g><g transform="translate(-14,-30) scale(1,1)"><path fill="none" stroke="#000000" d="M 684.9569103338068 216.84 L 703.3365466974432 216.84" stroke-miterlimit="10"/></g><g transform="translate(-14,-30) scale(1,1)"><path fill="none" stroke="#000000" d="M 694.146728515625 227.64 L 681.3830921519886 245" stroke-miterlimit="10"/></g><g transform="translate(-14,-30) scale(1,1)"><path fill="none" stroke="#000000" d="M 694.146728515625 227.64 L 706.9103648792614 245" stroke-miterlimit="10"/></g><g transform="translate(-14,-30) scale(1,1)"><g><path fill="none" stroke="none"/><text fill="#000000" stroke="none" font-family="Arial" font-size="13px" font-style="normal" font-weight="bold" text-decoration="none" x="618.64453125" y="265.5">Secteurs Publics &amp;  privés</text></g></g><g transform="translate(-14,-30) scale(1,1)"><path fill="#ffffff" stroke="none" d="M 40.40935031960227 249.68 C 40.40935031960227 244.886167936 44.295192644547726 241 49.088623046875 241 C 53.882053449202274 241 57.76789577414773 244.886167936 57.76789577414773 249.68 C 57.76789577414773 254.47383206400002 53.882053449202274 258.36 49.088623046875 258.36 C 44.295192644547726 258.36 40.40935031960227 254.47383206400002 40.40935031960227 249.68 Z"/></g><g transform="translate(-14,-30) scale(1,1)"><path fill="none" stroke="#000000" d="M 40.40935031960227 249.68 C 40.40935031960227 244.886167936 44.295192644547726 241 49.088623046875 241 C 53.882053449202274 241 57.76789577414773 244.886167936 57.76789577414773 249.68 C 57.76789577414773 254.47383206400002 53.882053449202274 258.36 49.088623046875 258.36 C 44.295192644547726 258.36 40.40935031960227 254.47383206400002 40.40935031960227 249.68 Z" stroke-miterlimit="10"/></g><g transform="translate(-14,-30) scale(1,1)"><path fill="none" stroke="#000000" d="M 49.088623046875 258.36 L 49.088623046875 275.64" stroke-miterlimit="10"/></g><g transform="translate(-14,-30) scale(1,1)"><path fill="none" stroke="#000000" d="M 39.89880486505682 264.84 L 58.27844122869318 264.84" stroke-miterlimit="10"/></g><g transform="translate(-14,-30) scale(1,1)"><path fill="none" stroke="#000000" d="M 49.088623046875 275.64 L 36.324986683238635 293" stroke-miterlimit="10"/></g><g transform="translate(-14,-30) scale(1,1)"><path fill="none" stroke="#000000" d="M 49.088623046875 275.64 L 61.852259410511365 293" stroke-miterlimit="10"/></g><g transform="translate(-14,-30) scale(1,1)"><g><path fill="none" stroke="none"/><text fill="#000000" stroke="none" font-family="Arial" font-size="13px" font-style="normal" font-weight="bold" text-decoration="none" x="30.66455078125" y="313.5">Admin</text></g></g><g transform="translate(-14,-30) scale(1,1)"><path fill="#C0C0C0" stroke="none" d="M 255 120 C 255 110.6111584 301.3385232 103 358.5 103 C 415.6614768 103 462 110.6111584 462 120 C 462 129.3888416 415.6614768 137 358.5 137 C 301.3385232 137 255 129.3888416 255 120 Z" opacity="0.2"/></g><g transform="translate(-14,-30) scale(1,1)"><path fill="#ffffff" stroke="none" d="M 248 113 C 248 103.6111584 294.3385232 96 351.5 96 C 408.6614768 96 455 103.6111584 455 113 C 455 122.3888416 408.6614768 130 351.5 130 C 294.3385232 130 248 122.3888416 248 113 Z"/></g><g transform="translate(-14,-30) scale(1,1)"><path fill="none" stroke="#000000" d="M 248 113 C 248 103.6111584 294.3385232 96 351.5 96 C 408.6614768 96 455 103.6111584 455 113 C 455 122.3888416 408.6614768 130 351.5 130 C 294.3385232 130 248 122.3888416 248 113 Z" stroke-miterlimit="10"/></g><g transform="translate(-14,-30) scale(1,1)"><g><path fill="none" stroke="none"/><text fill="#000000" stroke="none" font-family="Arial" font-size="13px" font-style="normal" font-weight="bold" text-decoration="none" x="287.19189453125" y="120">Creer une réclamation</text></g></g><g transform="translate(-14,-30) scale(1,1)"><path fill="#C0C0C0" stroke="none" d="M 255 328 C 255 318.6111584 304.02481439999997 311 364.5 311 C 424.97518560000003 311 474 318.6111584 474 328 C 474 337.3888416 424.97518560000003 345 364.5 345 C 304.02481439999997 345 255 337.3888416 255 328 Z" opacity="0.2"/></g><g transform="translate(-14,-30) scale(1,1)"><path fill="#ffffff" stroke="none" d="M 248 321 C 248 311.6111584 297.02481439999997 304 357.5 304 C 417.97518560000003 304 467 311.6111584 467 321 C 467 330.3888416 417.97518560000003 338 357.5 338 C 297.02481439999997 338 248 330.3888416 248 321 Z"/></g><g transform="translate(-14,-30) scale(1,1)"><path fill="none" stroke="#000000" d="M 248 321 C 248 311.6111584 297.02481439999997 304 357.5 304 C 417.97518560000003 304 467 311.6111584 467 321 C 467 330.3888416 417.97518560000003 338 357.5 338 C 297.02481439999997 338 248 330.3888416 248 321 Z" stroke-miterlimit="10"/></g><g transform="translate(-14,-30) scale(1,1)"><g><path fill="none" stroke="none"/><text fill="#000000" stroke="none" font-family="Arial" font-size="13px" font-style="normal" font-weight="bold" text-decoration="none" x="292.830078125" y="328">Gérer une réclamation</text></g></g><g transform="translate(-14,-30) scale(1,1)"><path fill="none" stroke="#000000" d="M 81 147 L 247 126" stroke-miterlimit="10"/></g><g transform="translate(-14,-30) scale(1,1)"><path fill="none" stroke="#000000" d="M 237.44600106866258 131.45170656033537 L 247 126 L 236.38936389034995 123.09924124605462" stroke-miterlimit="10"/></g><g transform="translate(-14,-30) scale(1,1)"><path fill="none" stroke="#000000" d="M 607 201 L 403 131" stroke-miterlimit="10"/></g><g transform="translate(-14,-30) scale(1,1)"><path fill="none" stroke="#000000" d="M 413.9787616618871 130.31677794863052 L 403 131 L 411.2462677657308 138.28004587457173" stroke-miterlimit="10"/></g><g transform="translate(-14,-30) scale(1,1)"><path fill="none" stroke="#000000" d="M 75 283 L 247 306" stroke-miterlimit="10"/></g><g transform="translate(-14,-30) scale(1,1)"><path fill="none" stroke="#000000" d="M 236.36905090297836 308.82540639493413 L 247 306 L 237.48491978158123 300.48064782451274" stroke-miterlimit="10"/></g></g></svg>