<svg version="1.1" xmlns="http://www.w3.org/2000/svg" xmlns:xlink="http://www.w3.org/1999/xlink" width="711" height="525"><defs/><g><g transform="translate(-102,-38) scale(1,1)"><rect fill="#ffffff" stroke="none" x="112" y="48" width="303" height="21"/></g><g transform="translate(-102,-38) scale(1,1)"><path fill="none" stroke="#000000" d="M 112 48 L 415 48 L 415 69 L 112 69 L 112 48 Z Z" stroke-miterlimit="10" stroke-width="2"/></g><g transform="translate(-102,-38) scale(1,1)"><path fill="none" stroke="#000000" d="M 112 512 L 112 48 L 415 48 L 415 512" stroke-miterlimit="10" stroke-width="2"/></g><g transform="translate(-102,-38) scale(1,1)"><g><path fill="none" stroke="none"/><text fill="#000000" stroke="none" font-family="Arial" font-size="13px" font-style="normal" font-weight="normal" text-decoration="none" x="241.943359375" y="65">Visiteur</text></g></g><g transform="translate(-102,-38) scale(1,1)"><path fill="#C0C0C0" stroke="none" d="M 791 96.5 C 791 91.2532944 795.2532944 87 800.5 87 C 805.7467056 87 810 91.2532944 810 96.5 C 810 101.7467056 805.7467056 106 800.5 106 C 795.2532944 106 791 101.7467056 791 96.5 Z" opacity="0.2"/></g><g transform="translate(-102,-38) scale(1,1)"><path fill="#000000" stroke="none" d="M 784 89.5 C 784 84.2532944 788.2532944 80 793.5 80 C 798.7467056 80 803 84.2532944 803 89.5 C 803 94.7467056 798.7467056 99 793.5 99 C 788.2532944 99 784 94.7467056 784 89.5 Z"/></g><g transform="translate(-102,-38) scale(1,1)"><path fill="#C0C0C0" stroke="none" d="M 193 159 L 362.0703125 159 Q 372.0703125 159 372.0703125 169 L 372.0703125 189 Q 372.0703125 199 362.0703125 199 L 193 199 Q 183 199 183 189 L 183 169 Q 183 159 193 159 Z" opacity="0.2"/></g><g transform="translate(-102,-38) scale(1,1)"><path fill="#ffffff" stroke="none" d="M 186 152 L 355.0703125 152 Q 365.0703125 152 365.0703125 162 L 365.0703125 182 Q 365.0703125 192 355.0703125 192 L 186 192 Q 176 192 176 182 L 176 162 Q 176 152 186 152 Z"/></g><g transform="translate(-102,-38) scale(1,1)"><path fill="none" stroke="#000000" d="M 186 152 L 355.0703125 152 Q 365.0703125 152 365.0703125 162 L 365.0703125 182 Q 365.0703125 192 355.0703125 192 L 186 192 Q 176 192 176 182 L 176 162 Q 176 152 186 152 Z" stroke-miterlimit="10"/></g><g transform="translate(-102,-38) scale(1,1)"><g><path fill="none" stroke="none"/><text fill="#000000" stroke="none" font-family="Arial" font-size="13px" font-style="normal" font-weight="bold" text-decoration="none" x="187.276123046875" y="171.5">Consulter la video de l'album</text></g></g><g transform="translate(-102,-38) scale(1,1)"><path fill="none" stroke="#000000" d="M 783 91 L 693 105" stroke-miterlimit="10"/></g><g transform="translate(-102,-38) scale(1,1)"><path fill="none" stroke="#000000" d="M 702.3948740232845 99.27843185074116 L 693 105 L 703.6889387676198 107.59741949289595" stroke-miterlimit="10"/></g><g transform="translate(-102,-38) scale(1,1)"><path fill="#C0C0C0" stroke="none" d="M 145 255 L 236.57177734375 255 Q 246.57177734375 255 246.57177734375 265 L 246.57177734375 285 Q 246.57177734375 295 236.57177734375 295 L 145 295 Q 135 295 135 285 L 135 265 Q 135 255 145 255 Z" opacity="0.2"/></g><g transform="translate(-102,-38) scale(1,1)"><path fill="#ffffff" stroke="none" d="M 138 248 L 229.57177734375 248 Q 239.57177734375 248 239.57177734375 258 L 239.57177734375 278 Q 239.57177734375 288 229.57177734375 288 L 138 288 Q 128 288 128 278 L 128 258 Q 128 248 138 248 Z"/></g><g transform="translate(-102,-38) scale(1,1)"><path fill="none" stroke="#000000" d="M 138 248 L 229.57177734375 248 Q 239.57177734375 248 239.57177734375 258 L 239.57177734375 278 Q 239.57177734375 288 229.57177734375 288 L 138 288 Q 128 288 128 278 L 128 258 Q 128 248 138 248 Z" stroke-miterlimit="10"/></g><g transform="translate(-102,-38) scale(1,1)"><g><path fill="none" stroke="none"/><text fill="#000000" stroke="none" font-family="Arial" font-size="13px" font-style="normal" font-weight="bold" text-decoration="none" x="136.457763671875" y="267.5">Modifier la video</text></g></g><g transform="translate(-102,-38) scale(1,1)"><path fill="none" stroke="#000000" d="M 251 193 L 202 247" stroke-miterlimit="10"/></g><g transform="translate(-102,-38) scale(1,1)"><path fill="none" stroke="#000000" d="M 205.71181317362368 236.64517296310007 L 202 247 L 211.9466166813726 242.30267984976115" stroke-miterlimit="10"/></g><g transform="translate(-102,-38) scale(1,1)"><path fill="#C0C0C0" stroke="none" d="M 137 407 L 251.7216796875 407 Q 261.7216796875 407 261.7216796875 417 L 261.7216796875 437 Q 261.7216796875 447 251.7216796875 447 L 137 447 Q 127 447 127 437 L 127 417 Q 127 407 137 407 Z" opacity="0.2"/></g><g transform="translate(-102,-38) scale(1,1)"><path fill="#ffffff" stroke="none" d="M 130 400 L 244.7216796875 400 Q 254.7216796875 400 254.7216796875 410 L 254.7216796875 430 Q 254.7216796875 440 244.7216796875 440 L 130 440 Q 120 440 120 430 L 120 410 Q 120 400 130 400 Z"/></g><g transform="translate(-102,-38) scale(1,1)"><path fill="none" stroke="#000000" d="M 130 400 L 244.7216796875 400 Q 254.7216796875 400 254.7216796875 410 L 254.7216796875 430 Q 254.7216796875 440 244.7216796875 440 L 130 440 Q 120 440 120 430 L 120 410 Q 120 400 130 400 Z" stroke-miterlimit="10"/></g><g transform="translate(-102,-38) scale(1,1)"><g><path fill="none" stroke="none"/><text fill="#000000" stroke="none" font-family="Arial" font-size="13px" font-style="normal" font-weight="bold" text-decoration="none" x="128.46728515625" y="419.5">Télécharger la video</text></g></g><g transform="translate(-102,-38) scale(1,1)"><path fill="#C0C0C0" stroke="none" d="M 305 407 L 398.76806640625 407 Q 408.76806640625 407 408.76806640625 417 L 408.76806640625 437 Q 408.76806640625 447 398.76806640625 447 L 305 447 Q 295 447 295 437 L 295 417 Q 295 407 305 407 Z" opacity="0.2"/></g><g transform="translate(-102,-38) scale(1,1)"><path fill="#ffffff" stroke="none" d="M 298 400 L 391.76806640625 400 Q 401.76806640625 400 401.76806640625 410 L 401.76806640625 430 Q 401.76806640625 440 391.76806640625 440 L 298 440 Q 288 440 288 430 L 288 410 Q 288 400 298 400 Z"/></g><g transform="translate(-102,-38) scale(1,1)"><path fill="none" stroke="#000000" d="M 298 400 L 391.76806640625 400 Q 401.76806640625 400 401.76806640625 410 L 401.76806640625 430 Q 401.76806640625 440 391.76806640625 440 L 298 440 Q 288 440 288 430 L 288 410 Q 288 400 298 400 Z" stroke-miterlimit="10"/></g><g transform="translate(-102,-38) scale(1,1)"><g><path fill="none" stroke="none"/><text fill="#000000" stroke="none" font-family="Arial" font-size="13px" font-style="normal" font-weight="bold" text-decoration="none" x="295.74365234375" y="419.5">Partager la video</text></g></g><g transform="translate(-102,-38) scale(1,1)"><path fill="#C0C0C0" stroke="none" d="M 250 351 L 313 351 Q 316 351 316 354 L 316 353 Q 316 356 313 356 L 250 356 Q 247 356 247 353 L 247 354 Q 247 351 250 351 Z" opacity="0.2"/></g><g transform="translate(-102,-38) scale(1,1)"><path fill="#000000" stroke="none" d="M 243 344 L 306 344 Q 309 344 309 347 L 309 347 Q 309 350 306 350 L 243 350 Q 240 350 240 347 L 240 347 Q 240 344 243 344 Z"/></g><g transform="translate(-102,-38) scale(1,1)"><path fill="none" stroke="#000000" d="M 269 350 L 212 399" stroke-miterlimit="10"/></g><g transform="translate(-102,-38) scale(1,1)"><path fill="none" stroke="#000000" d="M 216.96239929622362 389.182943759719 L 212 399 L 222.45065323210744 395.56723915452267" stroke-miterlimit="10"/></g><g transform="translate(-102,-38) scale(1,1)"><path fill="none" stroke="#000000" d="M 278 350 L 324 399" stroke-miterlimit="10"/></g><g transform="translate(-102,-38) scale(1,1)"><path fill="none" stroke="#000000" d="M 313.97525452454875 394.4718129287297 L 324 399 L 320.1133462792157 388.7095227100628" stroke-miterlimit="10"/></g><g transform="translate(-102,-38) scale(1,1)"><path fill="none" stroke="#000000" d="M 270 193 L 274 343" stroke-miterlimit="10"/></g><g transform="translate(-102,-38) scale(1,1)"><path fill="none" stroke="#000000" d="M 269.52106980661523 332.9531505275143 L 274 343 L 277.9371134793516 332.72872269624133" stroke-miterlimit="10"/></g><g transform="translate(-102,-38) scale(1,1)"><path fill="none" stroke="#000000" d="M 202 247 L 251 193" stroke-miterlimit="10"/></g><g transform="translate(-102,-38) scale(1,1)"><path fill="none" stroke="#000000" d="M 247.28818682637632 203.35482703689993 L 251 193 L 241.0533833186274 197.69732015023885" stroke-miterlimit="10"/></g><g transform="translate(-102,-38) scale(1,1)"><path fill="#C0C0C0" stroke="none" d="M 263 488.5 L 274.5 479 L 285 488.5 L 274.5 497 L 263 488.5" opacity="0.2"/></g><g transform="translate(-102,-38) scale(1,1)"><path fill="#ffffff" stroke="none" d="M 256 481 L 267 472 L 278 481 L 267 490 L 256 481"/></g><g transform="translate(-102,-38) scale(1,1)"><path fill="none" stroke="#000000" d="M 256 481 L 267 472 L 278 481 L 267 490 L 256 481 L 256 481" stroke-miterlimit="10"/></g><g transform="translate(-102,-38) scale(1,1)"><path fill="#C0C0C0" stroke="none" d="M 247 547.5 C 247 540.59644 252.59644 535 259.5 535 C 266.40356 535 272 540.59644 272 547.5 C 272 554.40356 266.40356 560 259.5 560 C 252.59644 560 247 554.40356 247 547.5 Z" opacity="0.2"/></g><g transform="translate(-102,-38) scale(1,1)"><path fill="none" stroke="#000000" d="M 240 540.5 C 240 533.59644 245.59644 528 252.5 528 C 259.40356 528 265 533.59644 265 540.5 C 265 547.40356 259.40356 553 252.5 553 C 245.59644 553 240 547.40356 240 540.5 Z" stroke-miterlimit="10"/></g><g transform="translate(-102,-38) scale(1,1)"><path fill="#000000" stroke="none" d="M 245 540.5 C 245 536.357864 248.357864 533 252.5 533 C 256.642136 533 260 536.357864 260 540.5 C 260 544.642136 256.642136 548 252.5 548 C 248.357864 548 245 544.642136 245 540.5 Z"/></g><g transform="translate(-102,-38) scale(1,1)"><path fill="none" stroke="#000000" d="M 264 491 L 255 527" stroke-miterlimit="10"/></g><g transform="translate(-102,-38) scale(1,1)"><path fill="none" stroke="#000000" d="M 253.38097861840737 516.1197991854035 L 255 527 L 261.5486427788624 518.1617152255172" stroke-miterlimit="10"/></g><g transform="translate(-102,-38) scale(1,1)"><path fill="none" stroke="#000000" d="M 317 441 L 279 471" stroke-miterlimit="10"/></g><g transform="translate(-102,-38) scale(1,1)"><path fill="none" stroke="#000000" d="M 284.36810471228176 461.3987786298837 L 279 471 L 289.58491198265637 468.0067345056915" stroke-miterlimit="10"/></g><g transform="translate(-102,-38) scale(1,1)"><path fill="none" stroke="#000000" d="M 215 441 L 255 472" stroke-miterlimit="10"/></g><g transform="translate(-102,-38) scale(1,1)"><path fill="none" stroke="#000000" d="M 244.38863751968663 469.1018995339365 L 255 472 L 249.5459001246553 462.4473671404285" stroke-miterlimit="10"/></g><g transform="translate(-102,-38) scale(1,1)"><rect fill="#ffffff" stroke="none" x="416" y="48" width="303" height="21"/></g><g transform="translate(-102,-38) scale(1,1)"><path fill="none" stroke="#000000" d="M 416 48 L 719 48 L 719 69 L 416 69 L 416 48 Z Z" stroke-miterlimit="10" stroke-width="2"/></g><g transform="translate(-102,-38) scale(1,1)"><path fill="none" stroke="#000000" d="M 416 512 L 416 48 L 719 48 L 719 512" stroke-miterlimit="10" stroke-width="2"/></g><g transform="translate(-102,-38) scale(1,1)"><g><path fill="none" stroke="none"/><text fill="#000000" stroke="none" font-family="Arial" font-size="13px" font-style="normal" font-weight="normal" text-decoration="none" x="545.8291015625" y="65">System</text></g></g><g transform="translate(-102,-38) scale(1,1)"><path fill="#C0C0C0" stroke="none" d="M 473 111 L 689.0556640625 111 Q 699.0556640625 111 699.0556640625 121 L 699.0556640625 141 Q 699.0556640625 151 689.0556640625 151 L 473 151 Q 463 151 463 141 L 463 121 Q 463 111 473 111 Z" opacity="0.2"/></g><g transform="translate(-102,-38) scale(1,1)"><path fill="#ffffff" stroke="none" d="M 466 104 L 682.0556640625 104 Q 692.0556640625 104 692.0556640625 114 L 692.0556640625 134 Q 692.0556640625 144 682.0556640625 144 L 466 144 Q 456 144 456 134 L 456 114 Q 456 104 466 104 Z"/></g><g transform="translate(-102,-38) scale(1,1)"><path fill="none" stroke="#000000" d="M 466 104 L 682.0556640625 104 Q 692.0556640625 104 692.0556640625 114 L 692.0556640625 134 Q 692.0556640625 144 682.0556640625 144 L 466 144 Q 456 144 456 134 L 456 114 Q 456 104 466 104 Z" stroke-miterlimit="10"/></g><g transform="translate(-102,-38) scale(1,1)"><g><path fill="none" stroke="none"/><text fill="#000000" stroke="none" font-family="Arial" font-size="13px" font-style="normal" font-weight="bold" text-decoration="none" x="468.367919921875" y="123.5">Générer la video de l'album souvenir</text></g></g><g transform="translate(-102,-38) scale(1,1)"><path fill="none" stroke="#000000" d="M 455 143 L 366 157" stroke-miterlimit="10"/></g><g transform="translate(-102,-38) scale(1,1)"><path fill="none" stroke="#000000" d="M 375.3850989763219 151.26241190005405 L 366 157 L 376.6933545813912 159.57917967513714" stroke-miterlimit="10"/></g></g></svg>