<svg version="1.1" xmlns="http://www.w3.org/2000/svg" xmlns:xlink="http://www.w3.org/1999/xlink" width="773.41162109375" height="371"><defs/><g><g transform="translate(-78,2) scale(1,1)"><rect fill="#C0C0C0" stroke="none" x="199" y="15" width="447" height="351" opacity="0.2"/></g><g transform="translate(-78,2) scale(1,1)"><rect fill="#ffffff" stroke="none" x="192" y="8" width="447" height="351"/></g><g transform="translate(-78,2) scale(1,1)"><path fill="none" stroke="#000000" d="M 192 8 L 639 8 L 639 359 L 192 359 L 192 8 Z Z" stroke-miterlimit="10"/></g><g transform="translate(-78,2) scale(1,1)"><g><path fill="none" stroke="none"/><text fill="#000000" stroke="none" font-family="Arial" font-size="13px" font-style="normal" font-weight="bold" text-decoration="none" x="323.37646484375" y="27.5">Service Evénement &amp; Festivaux</text></g></g><g transform="translate(-78,2) scale(1,1)"><path fill="#ffffff" stroke="none" d="M 107.54509250710228 105.68 C 107.54509250710228 100.886167936 111.43093483204774 97 116.224365234375 97 C 121.01779563670226 97 124.90363796164772 100.886167936 124.90363796164772 105.68 C 124.90363796164772 110.473832064 121.01779563670226 114.36 116.224365234375 114.36 C 111.43093483204774 114.36 107.54509250710228 110.473832064 107.54509250710228 105.68 Z"/></g><g transform="translate(-78,2) scale(1,1)"><path fill="none" stroke="#000000" d="M 107.54509250710228 105.68 C 107.54509250710228 100.886167936 111.43093483204774 97 116.224365234375 97 C 121.01779563670226 97 124.90363796164772 100.886167936 124.90363796164772 105.68 C 124.90363796164772 110.473832064 121.01779563670226 114.36 116.224365234375 114.36 C 111.43093483204774 114.36 107.54509250710228 110.473832064 107.54509250710228 105.68 Z" stroke-miterlimit="10"/></g><g transform="translate(-78,2) scale(1,1)"><path fill="none" stroke="#000000" d="M 116.224365234375 114.36 L 116.224365234375 131.64" stroke-miterlimit="10"/></g><g transform="translate(-78,2) scale(1,1)"><path fill="none" stroke="#000000" d="M 107.03454705255683 120.84 L 125.41418341619317 120.84" stroke-miterlimit="10"/></g><g transform="translate(-78,2) scale(1,1)"><path fill="none" stroke="#000000" d="M 116.224365234375 131.64 L 103.46072887073865 149" stroke-miterlimit="10"/></g><g transform="translate(-78,2) scale(1,1)"><path fill="none" stroke="#000000" d="M 116.224365234375 131.64 L 128.98800159801135 149" stroke-miterlimit="10"/></g><g transform="translate(-78,2) scale(1,1)"><g><path fill="none" stroke="none"/><text fill="#000000" stroke="none" font-family="Arial" font-size="13px" font-style="normal" font-weight="bold" text-decoration="none" x="94.667724609375" y="169.5">Visiteur</text></g></g><g transform="translate(-78,2) scale(1,1)"><path fill="#ffffff" stroke="none" d="M 748.0265378196023 185.68 C 748.0265378196023 180.886167936 751.9123801445477 177 756.705810546875 177 C 761.4992409492023 177 765.3850832741477 180.886167936 765.3850832741477 185.68 C 765.3850832741477 190.47383206400002 761.4992409492023 194.36 756.705810546875 194.36 C 751.9123801445477 194.36 748.0265378196023 190.47383206400002 748.0265378196023 185.68 Z"/></g><g transform="translate(-78,2) scale(1,1)"><path fill="none" stroke="#000000" d="M 748.0265378196023 185.68 C 748.0265378196023 180.886167936 751.9123801445477 177 756.705810546875 177 C 761.4992409492023 177 765.3850832741477 180.886167936 765.3850832741477 185.68 C 765.3850832741477 190.47383206400002 761.4992409492023 194.36 756.705810546875 194.36 C 751.9123801445477 194.36 748.0265378196023 190.47383206400002 748.0265378196023 185.68 Z" stroke-miterlimit="10"/></g><g transform="translate(-78,2) scale(1,1)"><path fill="none" stroke="#000000" d="M 756.705810546875 194.36 L 756.705810546875 211.64" stroke-miterlimit="10"/></g><g transform="translate(-78,2) scale(1,1)"><path fill="none" stroke="#000000" d="M 747.5159923650568 200.84 L 765.8956287286932 200.84" stroke-miterlimit="10"/></g><g transform="translate(-78,2) scale(1,1)"><path fill="none" stroke="#000000" d="M 756.705810546875 211.64 L 743.9421741832386 229" stroke-miterlimit="10"/></g><g transform="translate(-78,2) scale(1,1)"><path fill="none" stroke="#000000" d="M 756.705810546875 211.64 L 769.4694469105114 229" stroke-miterlimit="10"/></g><g transform="translate(-78,2) scale(1,1)"><g><path fill="none" stroke="none"/><text fill="#000000" stroke="none" font-family="Arial" font-size="13px" font-style="normal" font-weight="bold" text-decoration="none" x="682.2890625" y="249.5">Secteurs Publics &amp; Privés</text></g></g><g transform="translate(-78,2) scale(1,1)"><path fill="#C0C0C0" stroke="none" d="M 319 128 C 319 118.6111584 361.7568016 111 414.5 111 C 467.2431984 111 510 118.6111584 510 128 C 510 137.3888416 467.2431984 145 414.5 145 C 361.7568016 145 319 137.3888416 319 128 Z" opacity="0.2"/></g><g transform="translate(-78,2) scale(1,1)"><path fill="#ffffff" stroke="none" d="M 312 121 C 312 111.6111584 354.7568016 104 407.5 104 C 460.2431984 104 503 111.6111584 503 121 C 503 130.3888416 460.2431984 138 407.5 138 C 354.7568016 138 312 130.3888416 312 121 Z"/></g><g transform="translate(-78,2) scale(1,1)"><path fill="none" stroke="#000000" d="M 312 121 C 312 111.6111584 354.7568016 104 407.5 104 C 460.2431984 104 503 111.6111584 503 121 C 503 130.3888416 460.2431984 138 407.5 138 C 354.7568016 138 312 130.3888416 312 121 Z" stroke-miterlimit="10"/></g><g transform="translate(-78,2) scale(1,1)"><g><path fill="none" stroke="none"/><text fill="#000000" stroke="none" font-family="Arial" font-size="13px" font-style="normal" font-weight="bold" text-decoration="none" x="348.24462890625" y="128">Creer un événement</text></g></g><g transform="translate(-78,2) scale(1,1)"><path fill="#C0C0C0" stroke="none" d="M 303 288 C 303 278.6111584 351.3532416 271 411 271 C 470.6467584 271 519 278.6111584 519 288 C 519 297.3888416 470.6467584 305 411 305 C 351.3532416 305 303 297.3888416 303 288 Z" opacity="0.2"/></g><g transform="translate(-78,2) scale(1,1)"><path fill="#ffffff" stroke="none" d="M 296 281 C 296 271.6111584 344.3532416 264 404 264 C 463.6467584 264 512 271.6111584 512 281 C 512 290.3888416 463.6467584 298 404 298 C 344.3532416 298 296 290.3888416 296 281 Z"/></g><g transform="translate(-78,2) scale(1,1)"><path fill="none" stroke="#000000" d="M 296 281 C 296 271.6111584 344.3532416 264 404 264 C 463.6467584 264 512 271.6111584 512 281 C 512 290.3888416 463.6467584 298 404 298 C 344.3532416 298 296 290.3888416 296 281 Z" stroke-miterlimit="10"/></g><g transform="translate(-78,2) scale(1,1)"><g><path fill="none" stroke="none"/><text fill="#000000" stroke="none" font-family="Arial" font-size="13px" font-style="normal" font-weight="bold" text-decoration="none" x="337.8955078125" y="288">Exprimer sa motivation</text></g></g><g transform="translate(-78,2) scale(1,1)"><path fill="none" stroke="#000000" d="M 671 192 L 474 139" stroke-miterlimit="10"/></g><g transform="translate(-78,2) scale(1,1)"><path fill="none" stroke="#000000" d="M 484.9073427514547 137.5752634972426 L 474 139 L 482.7200968667833 145.70521518177574" stroke-miterlimit="10"/></g><g transform="translate(-78,2) scale(1,1)"><path fill="none" stroke="#000000" d="M 145 150 L 368 263" stroke-miterlimit="10"/></g><g transform="translate(-78,2) scale(1,1)"><path fill="none" stroke="#000000" d="M 357.0320165121403 262.16134738417094 L 368 263 L 360.8374814515049 254.65144754807977" stroke-miterlimit="10"/></g></g></svg>