<svg version="1.1" xmlns="http://www.w3.org/2000/svg" xmlns:xlink="http://www.w3.org/1999/xlink" width="441.96142578125" height="417"><defs/><g><g transform="translate(-14,-42) scale(1,1)"><path fill="#C0C0C0" stroke="none" d="M 127 80.5 C 127 75.2532944 131.2532944 71 136.5 71 C 141.7467056 71 146 75.2532944 146 80.5 C 146 85.7467056 141.7467056 90 136.5 90 C 131.2532944 90 127 85.7467056 127 80.5 Z" opacity="0.2"/></g><g transform="translate(-14,-42) scale(1,1)"><path fill="#000000" stroke="none" d="M 120 73.5 C 120 68.2532944 124.2532944 64 129.5 64 C 134.7467056 64 139 68.2532944 139 73.5 C 139 78.7467056 134.7467056 83 129.5 83 C 124.2532944 83 120 78.7467056 120 73.5 Z"/></g><g transform="translate(-14,-42) scale(1,1)"><path fill="#C0C0C0" stroke="none" d="M 289 63 L 366.63232421875 63 Q 376.63232421875 63 376.63232421875 73 L 376.63232421875 92 Q 376.63232421875 102 366.63232421875 102 L 289 102 Q 279 102 279 92 L 279 73 Q 279 63 289 63 Z" opacity="0.2"/></g><g transform="translate(-14,-42) scale(1,1)"><path fill="#ffffff" stroke="none" d="M 282 56 L 359.63232421875 56 Q 369.63232421875 56 369.63232421875 66 L 369.63232421875 85 Q 369.63232421875 95 359.63232421875 95 L 282 95 Q 272 95 272 85 L 272 66 Q 272 56 282 56 Z"/></g><g transform="translate(-14,-42) scale(1,1)"><path fill="none" stroke="#000000" d="M 282 56 L 359.63232421875 56 Q 369.63232421875 56 369.63232421875 66 L 369.63232421875 85 Q 369.63232421875 95 359.63232421875 95 L 282 95 Q 272 95 272 85 L 272 66 Q 272 56 282 56 Z" stroke-miterlimit="10"/></g><g transform="translate(-14,-42) scale(1,1)"><g><path fill="none" stroke="none"/><text fill="#000000" stroke="none" font-family="Arial" font-size="13px" font-style="normal" font-weight="bold" text-decoration="none" x="278.648681640625" y="75.5">Video générée</text></g></g><g transform="translate(-14,-42) scale(1,1)"><path fill="none" stroke="#000000" d="M 140 73 L 271 74" stroke-miterlimit="10"/></g><g transform="translate(-14,-42) scale(1,1)"><path fill="none" stroke="#000000" d="M 260.80548844028897 78.13181970309918 L 271 74 L 260.8697540145421 69.71302947594532" stroke-miterlimit="10"/></g><g transform="translate(-14,-42) scale(1,1)"><g><path fill="none" stroke="none"/><text fill="#000000" stroke="none" font-family="Arial" font-size="13px" font-style="normal" font-weight="normal" text-decoration="none" x="166.5" y="64.5">genererVideo</text></g></g><g transform="translate(-14,-42) scale(1,1)"><path fill="#C0C0C0" stroke="none" d="M 281 191 L 368.73779296875 191 Q 378.73779296875 191 378.73779296875 201 L 378.73779296875 220 Q 378.73779296875 230 368.73779296875 230 L 281 230 Q 271 230 271 220 L 271 201 Q 271 191 281 191 Z" opacity="0.2"/></g><g transform="translate(-14,-42) scale(1,1)"><path fill="#ffffff" stroke="none" d="M 274 184 L 361.73779296875 184 Q 371.73779296875 184 371.73779296875 194 L 371.73779296875 213 Q 371.73779296875 223 361.73779296875 223 L 274 223 Q 264 223 264 213 L 264 194 Q 264 184 274 184 Z"/></g><g transform="translate(-14,-42) scale(1,1)"><path fill="none" stroke="#000000" d="M 274 184 L 361.73779296875 184 Q 371.73779296875 184 371.73779296875 194 L 371.73779296875 213 Q 371.73779296875 223 361.73779296875 223 L 274 223 Q 264 223 264 213 L 264 194 Q 264 184 274 184 Z" stroke-miterlimit="10"/></g><g transform="translate(-14,-42) scale(1,1)"><g><path fill="none" stroke="none"/><text fill="#000000" stroke="none" font-family="Arial" font-size="13px" font-style="normal" font-weight="bold" text-decoration="none" x="272.0927734375" y="203.5">Video visionnée</text></g></g><g transform="translate(-14,-42) scale(1,1)"><path fill="none" stroke="#000000" d="M 320 96 L 317 183" stroke-miterlimit="10"/></g><g transform="translate(-14,-42) scale(1,1)"><path fill="none" stroke="#000000" d="M 313.1432116044656 172.69829221575029 L 317 183 L 321.55724620396126 172.98843133987083" stroke-miterlimit="10"/></g><g transform="translate(-14,-42) scale(1,1)"><g><path fill="none" stroke="none"/><text fill="#000000" stroke="none" font-family="Arial" font-size="13px" font-style="normal" font-weight="normal" text-decoration="none" x="322.5" y="141.5">visionnerVideo</text></g></g><g transform="translate(-14,-42) scale(1,1)"><path fill="#C0C0C0" stroke="none" d="M 41 255 L 122.22509765625 255 Q 132.22509765625 255 132.22509765625 265 L 132.22509765625 284 Q 132.22509765625 294 122.22509765625 294 L 41 294 Q 31 294 31 284 L 31 265 Q 31 255 41 255 Z" opacity="0.2"/></g><g transform="translate(-14,-42) scale(1,1)"><path fill="#ffffff" stroke="none" d="M 34 248 L 115.22509765625 248 Q 125.22509765625 248 125.22509765625 258 L 125.22509765625 277 Q 125.22509765625 287 115.22509765625 287 L 34 287 Q 24 287 24 277 L 24 258 Q 24 248 34 248 Z"/></g><g transform="translate(-14,-42) scale(1,1)"><path fill="none" stroke="#000000" d="M 34 248 L 115.22509765625 248 Q 125.22509765625 248 125.22509765625 258 L 125.22509765625 277 Q 125.22509765625 287 115.22509765625 287 L 34 287 Q 24 287 24 277 L 24 258 Q 24 248 34 248 Z" stroke-miterlimit="10"/></g><g transform="translate(-14,-42) scale(1,1)"><g><path fill="none" stroke="none"/><text fill="#000000" stroke="none" font-family="Arial" font-size="13px" font-style="normal" font-weight="bold" text-decoration="none" x="31.73095703125" y="267.5">Video modifiée</text></g></g><g transform="translate(-14,-42) scale(1,1)"><path fill="#C0C0C0" stroke="none" d="M 361 343 L 442.96142578125 343 Q 452.96142578125 343 452.96142578125 353 L 452.96142578125 372 Q 452.96142578125 382 442.96142578125 382 L 361 382 Q 351 382 351 372 L 351 353 Q 351 343 361 343 Z" opacity="0.2"/></g><g transform="translate(-14,-42) scale(1,1)"><path fill="#ffffff" stroke="none" d="M 354 336 L 435.96142578125 336 Q 445.96142578125 336 445.96142578125 346 L 445.96142578125 365 Q 445.96142578125 375 435.96142578125 375 L 354 375 Q 344 375 344 365 L 344 346 Q 344 336 354 336 Z"/></g><g transform="translate(-14,-42) scale(1,1)"><path fill="none" stroke="#000000" d="M 354 336 L 435.96142578125 336 Q 445.96142578125 336 445.96142578125 346 L 445.96142578125 365 Q 445.96142578125 375 435.96142578125 375 L 354 375 Q 344 375 344 365 L 344 346 Q 344 336 354 336 Z" stroke-miterlimit="10"/></g><g transform="translate(-14,-42) scale(1,1)"><g><path fill="none" stroke="none"/><text fill="#000000" stroke="none" font-family="Arial" font-size="13px" font-style="normal" font-weight="bold" text-decoration="none" x="351.00732421875" y="355.5">Video partagée</text></g></g><g transform="translate(-14,-42) scale(1,1)"><path fill="#C0C0C0" stroke="none" d="M 161 343 L 264.64501953125 343 Q 274.64501953125 343 274.64501953125 353 L 274.64501953125 372 Q 274.64501953125 382 264.64501953125 382 L 161 382 Q 151 382 151 372 L 151 353 Q 151 343 161 343 Z" opacity="0.2"/></g><g transform="translate(-14,-42) scale(1,1)"><path fill="#ffffff" stroke="none" d="M 154 336 L 257.64501953125 336 Q 267.64501953125 336 267.64501953125 346 L 267.64501953125 365 Q 267.64501953125 375 257.64501953125 375 L 154 375 Q 144 375 144 365 L 144 346 Q 144 336 154 336 Z"/></g><g transform="translate(-14,-42) scale(1,1)"><path fill="none" stroke="#000000" d="M 154 336 L 257.64501953125 336 Q 267.64501953125 336 267.64501953125 346 L 267.64501953125 365 Q 267.64501953125 375 257.64501953125 375 L 154 375 Q 144 375 144 365 L 144 346 Q 144 336 154 336 Z" stroke-miterlimit="10"/></g><g transform="translate(-14,-42) scale(1,1)"><g><path fill="none" stroke="none"/><text fill="#000000" stroke="none" font-family="Arial" font-size="13px" font-style="normal" font-weight="bold" text-decoration="none" x="151.37548828125" y="355.5">Video Téléchargée</text></g></g><g transform="translate(-14,-42) scale(1,1)"><path fill="none" stroke="#000000" d="M 263 217 L 126 253" stroke-miterlimit="10"/></g><g transform="translate(-14,-42) scale(1,1)"><path fill="none" stroke="#000000" d="M 134.7591615705776 246.34589686129553 L 126 253 L 136.89882399615664 254.4885010919714" stroke-miterlimit="10"/></g><g transform="translate(-14,-42) scale(1,1)"><g><path fill="none" stroke="none"/><text fill="#000000" stroke="none" font-family="Arial" font-size="13px" font-style="normal" font-weight="normal" text-decoration="none" x="112.5" y="217.5">modifier_video</text></g></g><g transform="translate(-14,-42) scale(1,1)"><path fill="none" stroke="#000000" d="M 126 253 L 263 217" stroke-miterlimit="10"/></g><g transform="translate(-14,-42) scale(1,1)"><path fill="none" stroke="#000000" d="M 254.2408384294224 223.65410313870447 L 263 217 L 252.10117600384336 215.5114989080286" stroke-miterlimit="10"/></g><g transform="translate(-14,-42) scale(1,1)"><g><path fill="none" stroke="none"/><text fill="#000000" stroke="none" font-family="Arial" font-size="13px" font-style="normal" font-weight="normal" text-decoration="none" x="167.5" y="259.5">visionnerVideo</text></g></g><g transform="translate(-14,-42) scale(1,1)"><path fill="none" stroke="#000000" d="M 302 224 L 220 335" stroke-miterlimit="10"/></g><g transform="translate(-14,-42) scale(1,1)"><path fill="none" stroke="#000000" d="M 222.65270475568448 324.32464719650125 L 220 335 L 229.4243598801431 329.3271311623175" stroke-miterlimit="10"/></g><g transform="translate(-14,-42) scale(1,1)"><g><path fill="none" stroke="none"/><text fill="#000000" stroke="none" font-family="Arial" font-size="13px" font-style="normal" font-weight="normal" text-decoration="none" x="221.5" y="293.5">telecharger_video</text></g></g><g transform="translate(-14,-42) scale(1,1)"><path fill="none" stroke="#000000" d="M 328 224 L 384 335" stroke-miterlimit="10"/></g><g transform="translate(-14,-42) scale(1,1)"><path fill="none" stroke="#000000" d="M 375.6641351761953 327.82271934230965 L 384 335 L 383.1807572795652 324.03054963250145" stroke-miterlimit="10"/></g><g transform="translate(-14,-42) scale(1,1)"><g><path fill="none" stroke="none"/><text fill="#000000" stroke="none" font-family="Arial" font-size="13px" font-style="normal" font-weight="normal" text-decoration="none" x="325.5" y="278.5">partager_video</text></g></g><g transform="translate(-14,-42) scale(1,1)"><path fill="#C0C0C0" stroke="none" d="M 295 443.5 C 295 436.59644 300.59644 431 307.5 431 C 314.40356 431 320 436.59644 320 443.5 C 320 450.40356 314.40356 456 307.5 456 C 300.59644 456 295 450.40356 295 443.5 Z" opacity="0.2"/></g><g transform="translate(-14,-42) scale(1,1)"><path fill="none" stroke="#000000" d="M 288 436.5 C 288 429.59644 293.59644 424 300.5 424 C 307.40356 424 313 429.59644 313 436.5 C 313 443.40356 307.40356 449 300.5 449 C 293.59644 449 288 443.40356 288 436.5 Z" stroke-miterlimit="10"/></g><g transform="translate(-14,-42) scale(1,1)"><path fill="#000000" stroke="none" d="M 293 436.5 C 293 432.357864 296.357864 429 300.5 429 C 304.642136 429 308 432.357864 308 436.5 C 308 440.642136 304.642136 444 300.5 444 C 296.357864 444 293 440.642136 293 436.5 Z"/></g><g transform="translate(-14,-42) scale(1,1)"><path fill="none" stroke="#000000" d="M 230 376 L 287 425" stroke-miterlimit="10"/></g><g transform="translate(-14,-42) scale(1,1)"><path fill="none" stroke="#000000" d="M 276.54934676789253 421.56723915452267 L 287 425 L 282.0376007037764 415.182943759719" stroke-miterlimit="10"/></g><g transform="translate(-14,-42) scale(1,1)"><path fill="none" stroke="#000000" d="M 370 376 L 314 424" stroke-miterlimit="10"/></g><g transform="translate(-14,-42) scale(1,1)"><path fill="none" stroke="#000000" d="M 318.97656014131803 414.19011472239123 L 314 424 L 324.4555958253679 420.58232302044945" stroke-miterlimit="10"/></g></g></svg>