<svg version="1.1" xmlns="http://www.w3.org/2000/svg" xmlns:xlink="http://www.w3.org/1999/xlink" width="1124" height="444"><defs/><g><g transform="translate(-62,-62) scale(1,1)"><rect fill="#C0C0C0" stroke="none" x="79" y="79" width="441.6" height="15" opacity="0.2"/></g><g transform="translate(-62,-62) scale(1,1)"><rect fill="#C0C0C0" stroke="none" x="79" y="93" width="1104" height="410" opacity="0.2"/></g><g transform="translate(-62,-62) scale(1,1)"><rect fill="#ffffff" stroke="none" x="72" y="87" width="1104" height="409"/></g><g transform="translate(-62,-62) scale(1,1)"><path fill="none" stroke="#000000" d="M 72 87 L 1176 87 L 1176 496 L 72 496 L 72 87 Z Z" stroke-miterlimit="10"/></g><g transform="translate(-62,-62) scale(1,1)"><rect fill="#ffffff" stroke="none" x="72" y="72" width="441.6" height="15"/></g><g transform="translate(-62,-62) scale(1,1)"><path fill="none" stroke="#000000" d="M 72 72 L 513.6 72 L 513.6 87 L 72 87 L 72 72 Z Z" stroke-miterlimit="10"/></g><g transform="translate(-62,-62) scale(1,1)"><rect fill="#ffffff" stroke="none" x="72" y="86" width="1104" height="410"/></g><g transform="translate(-62,-62) scale(1,1)"><path fill="none" stroke="#000000" d="M 72 86 L 1176 86 L 1176 496 L 72 496 L 72 86 Z Z" stroke-miterlimit="10"/></g><g transform="translate(-62,-62) scale(1,1)"><g><path fill="none" stroke="none"/><text fill="#000000" stroke="none" font-family="Arial" font-size="13px" font-style="normal" font-weight="bold" text-decoration="none" x="582.10546875" y="106.5">Smart Tourism</text></g></g><g transform="translate(-62,-62) scale(1,1)"><rect fill="#C0C0C0" stroke="none" x="111" y="255" width="76.80000000000001" height="15" opacity="0.2"/></g><g transform="translate(-62,-62) scale(1,1)"><rect fill="#C0C0C0" stroke="none" x="111" y="269" width="192" height="50" opacity="0.2"/></g><g transform="translate(-62,-62) scale(1,1)"><rect fill="#ffffff" stroke="none" x="104" y="263" width="192" height="49"/></g><g transform="translate(-62,-62) scale(1,1)"><path fill="none" stroke="#000000" d="M 104 263 L 296 263 L 296 312 L 104 312 L 104 263 Z Z" stroke-miterlimit="10"/></g><g transform="translate(-62,-62) scale(1,1)"><rect fill="#ffffff" stroke="none" x="104" y="248" width="76.80000000000001" height="15"/></g><g transform="translate(-62,-62) scale(1,1)"><path fill="none" stroke="#000000" d="M 104 248 L 180.8 248 L 180.8 263 L 104 263 L 104 248 Z Z" stroke-miterlimit="10"/></g><g transform="translate(-62,-62) scale(1,1)"><rect fill="#ffffff" stroke="none" x="104" y="262" width="192" height="50"/></g><g transform="translate(-62,-62) scale(1,1)"><path fill="none" stroke="#000000" d="M 104 262 L 296 262 L 296 312 L 104 312 L 104 262 Z Z" stroke-miterlimit="10"/></g><g transform="translate(-62,-62) scale(1,1)"><g><path fill="none" stroke="none"/><text fill="#000000" stroke="none" font-family="Arial" font-size="13px" font-style="normal" font-weight="bold" text-decoration="none" x="124.49462890625" y="282.5">Service Album &amp; Souvenir</text></g></g><g transform="translate(-62,-62) scale(1,1)"><rect fill="#C0C0C0" stroke="none" x="895" y="255" width="81.92753906250005" height="15" opacity="0.2"/></g><g transform="translate(-62,-62) scale(1,1)"><rect fill="#C0C0C0" stroke="none" x="895" y="269" width="204.81884765625" height="34" opacity="0.2"/></g><g transform="translate(-62,-62) scale(1,1)"><rect fill="#ffffff" stroke="none" x="888" y="263" width="204.81884765625" height="33"/></g><g transform="translate(-62,-62) scale(1,1)"><path fill="none" stroke="#000000" d="M 888 263 L 1092.81884765625 263 L 1092.81884765625 296 L 888 296 L 888 263 Z Z" stroke-miterlimit="10"/></g><g transform="translate(-62,-62) scale(1,1)"><rect fill="#ffffff" stroke="none" x="888" y="248" width="81.92753906250005" height="15"/></g><g transform="translate(-62,-62) scale(1,1)"><path fill="none" stroke="#000000" d="M 888 248 L 969.9275390625 248 L 969.9275390625 263 L 888 263 L 888 248 Z Z" stroke-miterlimit="10"/></g><g transform="translate(-62,-62) scale(1,1)"><rect fill="#ffffff" stroke="none" x="888" y="262" width="204.81884765625" height="34"/></g><g transform="translate(-62,-62) scale(1,1)"><path fill="none" stroke="#000000" d="M 888 262 L 1092.81884765625 262 L 1092.81884765625 296 L 888 296 L 888 262 Z Z" stroke-miterlimit="10"/></g><g transform="translate(-62,-62) scale(1,1)"><g><path fill="none" stroke="none"/><text fill="#000000" stroke="none" font-family="Arial" font-size="13px" font-style="normal" font-weight="bold" text-decoration="none" x="898.285888671875" y="282.5">Service Evénement &amp; Festivaux</text></g></g><g transform="translate(-62,-62) scale(1,1)"><path fill="none" stroke="#000000" d="M 675 305 L 812 399" stroke-miterlimit="10" stroke-dasharray="3"/></g><g transform="translate(-62,-62) scale(1,1)"><path fill="none" stroke="#000000" d="M 801.2385930719068 396.721377405539 L 812 399 L 806.0017656743457 389.77930669772917" stroke-miterlimit="10"/></g><g transform="translate(-62,-62) scale(1,1)"><g><path fill="none" stroke="none"/><text fill="#000000" stroke="none" font-family="Arial" font-size="13px" font-style="normal" font-weight="normal" text-decoration="none" x="729.5" y="345.5">+import</text></g></g><g transform="translate(-62,-62) scale(1,1)"><path fill="none" stroke="#000000" d="M 967 297 L 871 399" stroke-miterlimit="10" stroke-dasharray="3"/></g><g transform="translate(-62,-62) scale(1,1)"><path fill="none" stroke="#000000" d="M 874.8997677957101 388.7144853731307 L 871 399 L 881.0305093940523 394.48459511274683" stroke-miterlimit="10"/></g><g transform="translate(-62,-62) scale(1,1)"><g><path fill="none" stroke="none"/><text fill="#000000" stroke="none" font-family="Arial" font-size="13px" font-style="normal" font-weight="normal" text-decoration="none" x="907.5" y="364.5">+import</text></g></g><g transform="translate(-62,-62) scale(1,1)"><path fill="none" stroke="#000000" d="M 543 194 L 297 256" stroke-miterlimit="10" stroke-dasharray="3"/></g><g transform="translate(-62,-62) scale(1,1)"><path fill="none" stroke="#000000" d="M 305.8257473358821 249.43447001658134 L 297 256 L 307.8832765636003 257.5982150168824" stroke-miterlimit="10"/></g><g transform="translate(-62,-62) scale(1,1)"><g><path fill="none" stroke="none"/><text fill="#000000" stroke="none" font-family="Arial" font-size="13px" font-style="normal" font-weight="normal" text-decoration="none" x="400.5" y="245.5">+merge</text></g></g><g transform="translate(-62,-62) scale(1,1)"><path fill="none" stroke="#000000" d="M 582 201 L 488 255" stroke-miterlimit="10" stroke-dasharray="3"/></g><g transform="translate(-62,-62) scale(1,1)"><path fill="none" stroke="#000000" d="M 494.715247933906 246.28762689124423 L 488 255 L 498.9089754568424 253.58781924598537" stroke-miterlimit="10"/></g><g transform="translate(-62,-62) scale(1,1)"><g><path fill="none" stroke="none"/><text fill="#000000" stroke="none" font-family="Arial" font-size="13px" font-style="normal" font-weight="normal" text-decoration="none" x="519.5" y="247.5">+merge</text></g></g><g transform="translate(-62,-62) scale(1,1)"><path fill="none" stroke="#000000" d="M 657 201 L 827 399" stroke-miterlimit="10" stroke-dasharray="3"/></g><g transform="translate(-62,-62) scale(1,1)"><path fill="none" stroke="#000000" d="M 817.1859813215891 394.03159609333125 L 827 399 L 823.5736329358834 388.54724874772495" stroke-miterlimit="10"/></g><g transform="translate(-62,-62) scale(1,1)"><g><path fill="none" stroke="none"/><text fill="#000000" stroke="none" font-family="Arial" font-size="13px" font-style="normal" font-weight="normal" text-decoration="none" x="730.5" y="296.5">+merge</text></g></g><g transform="translate(-62,-62) scale(1,1)"><path fill="none" stroke="#000000" d="M 634 201 L 637 255" stroke-miterlimit="10" stroke-dasharray="3"/></g><g transform="translate(-62,-62) scale(1,1)"><path fill="none" stroke="#000000" d="M 632.233239640734 245.0864741046724 L 637 255 L 640.6393128117264 244.61947003961725" stroke-miterlimit="10"/></g><g transform="translate(-62,-62) scale(1,1)"><g><path fill="none" stroke="none"/><text fill="#000000" stroke="none" font-family="Arial" font-size="13px" font-style="normal" font-weight="normal" text-decoration="none" x="626.5" y="232.5">+merge</text></g></g><g transform="translate(-62,-62) scale(1,1)"><path fill="none" stroke="#000000" d="M 721 197 L 901 247" stroke-miterlimit="10" stroke-dasharray="3"/></g><g transform="translate(-62,-62) scale(1,1)"><path fill="none" stroke="#000000" d="M 890.081429168037 248.33596818353033 L 901 247 L 892.3347323618295 240.22407668587704" stroke-miterlimit="10"/></g><g transform="translate(-62,-62) scale(1,1)"><g><path fill="none" stroke="none"/><text fill="#000000" stroke="none" font-family="Arial" font-size="13px" font-style="normal" font-weight="normal" text-decoration="none" x="792.5" y="213.5">+merge</text></g></g><g transform="translate(-62,-62) scale(1,1)"><rect fill="#C0C0C0" stroke="none" x="551" y="151" width="70.39999999999998" height="15" opacity="0.2"/></g><g transform="translate(-62,-62) scale(1,1)"><rect fill="#C0C0C0" stroke="none" x="551" y="165" width="176" height="42" opacity="0.2"/></g><g transform="translate(-62,-62) scale(1,1)"><rect fill="#ffffff" stroke="none" x="544" y="159" width="176" height="41"/></g><g transform="translate(-62,-62) scale(1,1)"><path fill="none" stroke="#000000" d="M 544 159 L 720 159 L 720 200 L 544 200 L 544 159 Z Z" stroke-miterlimit="10"/></g><g transform="translate(-62,-62) scale(1,1)"><rect fill="#ffffff" stroke="none" x="544" y="144" width="70.39999999999998" height="15"/></g><g transform="translate(-62,-62) scale(1,1)"><path fill="none" stroke="#000000" d="M 544 144 L 614.4 144 L 614.4 159 L 544 159 L 544 144 Z Z" stroke-miterlimit="10"/></g><g transform="translate(-62,-62) scale(1,1)"><rect fill="#ffffff" stroke="none" x="544" y="158" width="176" height="42"/></g><g transform="translate(-62,-62) scale(1,1)"><path fill="none" stroke="#000000" d="M 544 158 L 720 158 L 720 200 L 544 200 L 544 158 Z Z" stroke-miterlimit="10"/></g><g transform="translate(-62,-62) scale(1,1)"><g><path fill="none" stroke="none"/><text fill="#000000" stroke="none" font-family="Arial" font-size="13px" font-style="normal" font-weight="bold" text-decoration="none" x="587.5537109375" y="178.5">Authentification</text></g></g><g transform="translate(-62,-62) scale(1,1)"><rect fill="#C0C0C0" stroke="none" x="375" y="263" width="61.44648437500001" height="15" opacity="0.2"/></g><g transform="translate(-62,-62) scale(1,1)"><rect fill="#C0C0C0" stroke="none" x="375" y="277" width="153.6162109375" height="34" opacity="0.2"/></g><g transform="translate(-62,-62) scale(1,1)"><rect fill="#ffffff" stroke="none" x="368" y="271" width="153.6162109375" height="33"/></g><g transform="translate(-62,-62) scale(1,1)"><path fill="none" stroke="#000000" d="M 368 271 L 521.6162109375 271 L 521.6162109375 304 L 368 304 L 368 271 Z Z" stroke-miterlimit="10"/></g><g transform="translate(-62,-62) scale(1,1)"><rect fill="#ffffff" stroke="none" x="368" y="256" width="61.44648437500001" height="15"/></g><g transform="translate(-62,-62) scale(1,1)"><path fill="none" stroke="#000000" d="M 368 256 L 429.446484375 256 L 429.446484375 271 L 368 271 L 368 256 Z Z" stroke-miterlimit="10"/></g><g transform="translate(-62,-62) scale(1,1)"><rect fill="#ffffff" stroke="none" x="368" y="270" width="153.6162109375" height="34"/></g><g transform="translate(-62,-62) scale(1,1)"><path fill="none" stroke="#000000" d="M 368 270 L 521.6162109375 270 L 521.6162109375 304 L 368 304 L 368 270 Z Z" stroke-miterlimit="10"/></g><g transform="translate(-62,-62) scale(1,1)"><g><path fill="none" stroke="none"/><text fill="#000000" stroke="none" font-family="Arial" font-size="13px" font-style="normal" font-weight="bold" text-decoration="none" x="384.108642578125" y="290.5">Service Maintenance</text></g></g><g transform="translate(-62,-62) scale(1,1)"><rect fill="#C0C0C0" stroke="none" x="591" y="263" width="44.68359375" height="15" opacity="0.2"/></g><g transform="translate(-62,-62) scale(1,1)"><rect fill="#C0C0C0" stroke="none" x="591" y="277" width="111.708984375" height="34" opacity="0.2"/></g><g transform="translate(-62,-62) scale(1,1)"><rect fill="#ffffff" stroke="none" x="584" y="271" width="111.708984375" height="33"/></g><g transform="translate(-62,-62) scale(1,1)"><path fill="none" stroke="#000000" d="M 584 271 L 695.708984375 271 L 695.708984375 304 L 584 304 L 584 271 Z Z" stroke-miterlimit="10"/></g><g transform="translate(-62,-62) scale(1,1)"><rect fill="#ffffff" stroke="none" x="584" y="256" width="44.68359375" height="15"/></g><g transform="translate(-62,-62) scale(1,1)"><path fill="none" stroke="#000000" d="M 584 256 L 628.68359375 256 L 628.68359375 271 L 584 271 L 584 256 Z Z" stroke-miterlimit="10"/></g><g transform="translate(-62,-62) scale(1,1)"><rect fill="#ffffff" stroke="none" x="584" y="270" width="111.708984375" height="34"/></g><g transform="translate(-62,-62) scale(1,1)"><path fill="none" stroke="#000000" d="M 584 270 L 695.708984375 270 L 695.708984375 304 L 584 304 L 584 270 Z Z" stroke-miterlimit="10"/></g><g transform="translate(-62,-62) scale(1,1)"><g><path fill="none" stroke="none"/><text fill="#000000" stroke="none" font-family="Arial" font-size="13px" font-style="normal" font-weight="bold" text-decoration="none" x="599.029541015625" y="290.5">Service Guide</text></g></g><g transform="translate(-62,-62) scale(1,1)"><rect fill="#C0C0C0" stroke="none" x="783" y="407" width="57.60000000000002" height="15" opacity="0.2"/></g><g transform="translate(-62,-62) scale(1,1)"><rect fill="#C0C0C0" stroke="none" x="783" y="421" width="144" height="34" opacity="0.2"/></g><g transform="translate(-62,-62) scale(1,1)"><rect fill="#ffffff" stroke="none" x="776" y="415" width="144" height="33"/></g><g transform="translate(-62,-62) scale(1,1)"><path fill="none" stroke="#000000" d="M 776 415 L 920 415 L 920 448 L 776 448 L 776 415 Z Z" stroke-miterlimit="10"/></g><g transform="translate(-62,-62) scale(1,1)"><rect fill="#ffffff" stroke="none" x="776" y="400" width="57.60000000000002" height="15"/></g><g transform="translate(-62,-62) scale(1,1)"><path fill="none" stroke="#000000" d="M 776 400 L 833.6 400 L 833.6 415 L 776 415 L 776 400 Z Z" stroke-miterlimit="10"/></g><g transform="translate(-62,-62) scale(1,1)"><rect fill="#ffffff" stroke="none" x="776" y="414" width="144" height="34"/></g><g transform="translate(-62,-62) scale(1,1)"><path fill="none" stroke="#000000" d="M 776 414 L 920 414 L 920 448 L 776 448 L 776 414 Z Z" stroke-miterlimit="10"/></g><g transform="translate(-62,-62) scale(1,1)"><g><path fill="none" stroke="none"/><text fill="#000000" stroke="none" font-family="Arial" font-size="13px" font-style="normal" font-weight="bold" text-decoration="none" x="792.721435546875" y="434.5">Service Dashboard</text></g></g></g></svg>