<svg version="1.1" xmlns="http://www.w3.org/2000/svg" xmlns:xlink="http://www.w3.org/1999/xlink" width="714" height="543"><defs/><g><g transform="translate(2,-19) scale(1,1)"><path fill="none" stroke="#000000" d="M 8 29 L 702 29 L 702 552 L 8 552 L 8 29" stroke-miterlimit="10"/></g><g transform="translate(2,-19) scale(1,1)"><path fill="#ffffff" stroke="none" d="M 8 29 L 8 51 L 284.888671875 51 L 295.888671875 40 L 295.888671875 29 L 8 29"/></g><g transform="translate(2,-19) scale(1,1)"><path fill="none" stroke="#000000" d="M 8 29 L 8 51 L 284.888671875 51 L 295.888671875 40 L 295.888671875 29 L 8 29 L 8 29" stroke-miterlimit="10"/></g><g transform="translate(2,-19) scale(1,1)"><g><path fill="none" stroke="none"/><text fill="#000000" stroke="none" font-family="Arial" font-size="13px" font-style="normal" font-weight="normal" text-decoration="none" x="78.97900390625" y="46.5">Service Dashboard Sequence diag</text></g></g><g transform="translate(2,-19) scale(1,1)"><g><path fill="none" stroke="none"/><text fill="#000000" stroke="none" font-family="Arial" font-size="13px" font-style="normal" font-weight="bold" text-decoration="none" x="13" y="46.5">interaction</text></g></g><g transform="translate(2,-19) scale(1,1)"><path fill="none" stroke="#000000" d="M 40 240 L 679 240 L 679 319 L 40 319 L 40 240" stroke-miterlimit="10"/></g><g transform="translate(2,-19) scale(1,1)"><path fill="#ffffff" stroke="none" d="M 40 240 L 40 262 L 238.85693359375 262 L 249.85693359375 251 L 249.85693359375 240 L 40 240"/></g><g transform="translate(2,-19) scale(1,1)"><path fill="none" stroke="#000000" d="M 40 240 L 40 262 L 238.85693359375 262 L 249.85693359375 251 L 249.85693359375 240 L 40 240 L 40 240" stroke-miterlimit="10"/></g><g transform="translate(2,-19) scale(1,1)"><g><path fill="none" stroke="none"/><text fill="#000000" stroke="none" font-family="Arial" font-size="13px" font-style="normal" font-weight="normal" text-decoration="none" x="51" y="257.5">Sequence diag: Authentification</text></g></g><g transform="translate(2,-19) scale(1,1)"><g><path fill="none" stroke="none"/><text fill="#000000" stroke="none" font-family="Arial" font-size="13px" font-style="normal" font-weight="bold" text-decoration="none" x="45" y="257.5"></text></g></g><g transform="translate(2,-19) scale(1,1)"><rect fill="#C0C0C0" stroke="none" x="31" y="47" width="242.7421875" height="39" opacity="0.2"/></g><g transform="translate(2,-19) scale(1,1)"><rect fill="#ffffff" stroke="none" x="24" y="40" width="242.7421875" height="39"/></g><g transform="translate(2,-19) scale(1,1)"><path fill="none" stroke="#000000" d="M 24 40 L 266.7421875 40 L 266.7421875 79 L 24 79 L 24 40 Z Z" stroke-miterlimit="10"/></g><g transform="translate(2,-19) scale(1,1)"><g><path fill="none" stroke="none"/><text fill="#000000" stroke="none" font-family="Arial" font-size="13px" font-style="normal" font-weight="bold" text-decoration="none" x="42.1708984375" y="59.5">Visiteurs &amp; Secteurs Public &amp; privés</text></g></g><g transform="translate(2,-19) scale(1,1)"><path fill="none" stroke="#000000" d="M 146.5 80 L 146.5 536" stroke-miterlimit="10" stroke-dasharray="3"/></g><g transform="translate(2,-19) scale(1,1)"><rect fill="#C0C0C0" stroke="none" x="535" y="47" width="72.47900390625" height="39" opacity="0.2"/></g><g transform="translate(2,-19) scale(1,1)"><rect fill="#ffffff" stroke="none" x="528" y="40" width="72.47900390625" height="39"/></g><g transform="translate(2,-19) scale(1,1)"><path fill="none" stroke="#000000" d="M 528 40 L 600.47900390625 40 L 600.47900390625 79 L 528 79 L 528 40 Z Z" stroke-miterlimit="10"/></g><g transform="translate(2,-19) scale(1,1)"><g><path fill="none" stroke="none"/><text fill="#000000" stroke="none" font-family="Arial" font-size="13px" font-style="normal" font-weight="bold" text-decoration="none" x="538.95361328125" y="59.5">Systeme</text></g></g><g transform="translate(2,-19) scale(1,1)"><path fill="none" stroke="#000000" d="M 565.5 80 L 565.5 536" stroke-miterlimit="10" stroke-dasharray="3"/></g><g transform="translate(2,-19) scale(1,1)"><path fill="#ffffff" stroke="none" d="M 320 144 L 404 144 L 414 154 L 414 193 L 320 193 L 320 144"/></g><g transform="translate(2,-19) scale(1,1)"><path fill="none" stroke="#000000" d="M 320 144 L 404 144 L 414 154 L 414 193 L 320 193 L 320 144 L 320 144" stroke-miterlimit="10"/></g><g transform="translate(2,-19) scale(1,1)"><path fill="none" stroke="#000000" d="M 404 144 L 404 154 L 414 154 L 404 144" stroke-miterlimit="10"/></g><g transform="translate(2,-19) scale(1,1)"><g><path fill="none" stroke="none"/><text fill="#000000" stroke="none" font-family="Arial" font-size="13px" font-style="normal" font-weight="normal" text-decoration="none" x="325" y="162">cette boucle</text><text fill="#000000" stroke="none" font-family="Arial" font-size="13px" font-style="normal" font-weight="normal" text-decoration="none" x="325" y="175">est</text><text fill="#000000" stroke="none" font-family="Arial" font-size="13px" font-style="normal" font-weight="normal" text-decoration="none" x="325" y="188">asynchrone</text></g></g><g transform="translate(2,-19) scale(1,1)"><path fill="none" stroke="#000000" d="M 565 144 L 595 144 L 595 164 L 571 164" stroke-miterlimit="10"/></g><g transform="translate(2,-19) scale(1,1)"><path fill="#000000" stroke="none" d="M 581.1626748576241 159.790482243984 L 571 164 L 581.1626748576241 168.209517756016"/></g><g transform="translate(2,-19) scale(1,1)"><path fill="none" stroke="#000000" d="M 581.1626748576241 159.790482243984 L 571 164 L 581.1626748576241 168.209517756016 L 581.1626748576241 159.790482243984" stroke-miterlimit="10"/></g><g transform="translate(2,-19) scale(1,1)"><g><path fill="none" stroke="none"/><text fill="#000000" stroke="none" font-family="Arial" font-size="13px" font-style="normal" font-weight="normal" text-decoration="none" x="420.5" y="163.5">1 : Ajuster les données</text></g></g><g transform="translate(2,-19) scale(1,1)"><rect fill="#ffffff" stroke="none" x="558" y="164" width="13" height="28"/></g><g transform="translate(2,-19) scale(1,1)"><path fill="none" stroke="#000000" d="M 558 164 L 571 164 L 571 192 L 558 192 L 558 164 Z Z" stroke-miterlimit="10"/></g><g transform="translate(2,-19) scale(1,1)"><path fill="none" stroke="#000000" d="M 146 344 L 558 344" stroke-miterlimit="10"/></g><g transform="translate(2,-19) scale(1,1)"><path fill="#000000" stroke="none" d="M 547.8373251423759 348.209517756016 L 558 344 L 547.8373251423758 339.790482243984"/></g><g transform="translate(2,-19) scale(1,1)"><path fill="none" stroke="#000000" d="M 547.8373251423759 348.209517756016 L 558 344 L 547.8373251423758 339.790482243984 L 547.8373251423759 348.209517756016" stroke-miterlimit="10"/></g><g transform="translate(2,-19) scale(1,1)"><g><path fill="none" stroke="none"/><text fill="#000000" stroke="none" font-family="Arial" font-size="13px" font-style="normal" font-weight="normal" text-decoration="none" x="224.114990234375" y="340.5">2 : demander_page_dashboard_&amp;_live_map</text></g></g><g transform="translate(2,-19) scale(1,1)"><rect fill="#ffffff" stroke="none" x="558" y="344" width="13" height="28"/></g><g transform="translate(2,-19) scale(1,1)"><path fill="none" stroke="#000000" d="M 558 344 L 571 344 L 571 372 L 558 372 L 558 344 Z Z" stroke-miterlimit="10"/></g><g transform="translate(2,-19) scale(1,1)"><path fill="none" stroke="#000000" d="M 571 360 L 601 360 L 601 380 L 571 380" stroke-miterlimit="10"/></g><g transform="translate(2,-19) scale(1,1)"><path fill="#000000" stroke="none" d="M 581.1626748576241 375.790482243984 L 571 380 L 581.1626748576241 384.209517756016"/></g><g transform="translate(2,-19) scale(1,1)"><path fill="none" stroke="#000000" d="M 581.1626748576241 375.790482243984 L 571 380 L 581.1626748576241 384.209517756016 L 581.1626748576241 375.790482243984" stroke-miterlimit="10"/></g><g transform="translate(2,-19) scale(1,1)"><g><path fill="none" stroke="none"/><text fill="#000000" stroke="none" font-family="Arial" font-size="13px" font-style="normal" font-weight="normal" text-decoration="none" x="359.5" y="374.5">3 : calculer-statistics_dashboard</text></g></g><g transform="translate(2,-19) scale(1,1)"><rect fill="#ffffff" stroke="none" x="558" y="380" width="13" height="28"/></g><g transform="translate(2,-19) scale(1,1)"><path fill="none" stroke="#000000" d="M 558 380 L 571 380 L 571 408 L 558 408 L 558 380 Z Z" stroke-miterlimit="10"/></g><g transform="translate(2,-19) scale(1,1)"><path fill="none" stroke="#000000" d="M 565 408 L 146 408" stroke-miterlimit="10" stroke-dasharray="3"/></g><g transform="translate(2,-19) scale(1,1)"><path fill="none" stroke="#000000" d="M 156.16267485762415 403.790482243984 L 146 408 L 156.16267485762415 412.209517756016" stroke-miterlimit="10"/></g><g transform="translate(2,-19) scale(1,1)"><g><path fill="none" stroke="none"/><text fill="#000000" stroke="none" font-family="Arial" font-size="13px" font-style="normal" font-weight="normal" text-decoration="none" x="230.114990234375" y="426.5">4 : envoyer_page_dashboard_&amp;_live_map</text></g></g><g transform="translate(2,-19) scale(1,1)"><path fill="none" stroke="#000000" d="M 565 440 L 152 440" stroke-miterlimit="10"/></g><g transform="translate(2,-19) scale(1,1)"><path fill="#000000" stroke="none" d="M 162.16267485762415 435.790482243984 L 152 440 L 162.16267485762415 444.209517756016"/></g><g transform="translate(2,-19) scale(1,1)"><path fill="none" stroke="#000000" d="M 162.16267485762415 435.790482243984 L 152 440 L 162.16267485762415 444.209517756016 L 162.16267485762415 435.790482243984" stroke-miterlimit="10"/></g><g transform="translate(2,-19) scale(1,1)"><g><path fill="none" stroke="none"/><text fill="#000000" stroke="none" font-family="Arial" font-size="13px" font-style="normal" font-weight="normal" text-decoration="none" x="222.5" y="456.5">5 : envoyer_nouvelles_coordonnées_live_map</text></g></g><g transform="translate(2,-19) scale(1,1)"><rect fill="#ffffff" stroke="none" x="139" y="440" width="13" height="28"/></g><g transform="translate(2,-19) scale(1,1)"><path fill="none" stroke="#000000" d="M 139 440 L 152 440 L 152 468 L 139 468 L 139 440 Z Z" stroke-miterlimit="10"/></g><g transform="translate(2,-19) scale(1,1)"><path fill="none" stroke="#000000" d="M 320 112 L 677.93603515625 112 L 677.93603515625 199 L 320 199 L 320 112" stroke-miterlimit="10"/></g><g transform="translate(2,-19) scale(1,1)"><path fill="#ffffff" stroke="none" d="M 320 112 L 320 134 L 604.43603515625 134 L 615.43603515625 123 L 615.43603515625 112 L 320 112"/></g><g transform="translate(2,-19) scale(1,1)"><path fill="none" stroke="#000000" d="M 320 112 L 320 134 L 604.43603515625 134 L 615.43603515625 123 L 615.43603515625 112 L 320 112 L 320 112" stroke-miterlimit="10"/></g><g transform="translate(2,-19) scale(1,1)"><g><path fill="none" stroke="none"/><text fill="#000000" stroke="none" font-family="Arial" font-size="13px" font-style="normal" font-weight="normal" text-decoration="none" x="355.578125" y="129.5">tant qu'un visiteur arrive à un nouveau lieu</text></g></g><g transform="translate(2,-19) scale(1,1)"><g><path fill="none" stroke="none"/><text fill="#000000" stroke="none" font-family="Arial" font-size="13px" font-style="normal" font-weight="bold" text-decoration="none" x="325" y="129.5">loop</text></g></g><g transform="translate(2,-19) scale(1,1)"><path fill="none" stroke="#000000" d="M 40 432 L 680 432 L 680 520 L 40 520 L 40 432" stroke-miterlimit="10"/></g><g transform="translate(2,-19) scale(1,1)"><path fill="#ffffff" stroke="none" d="M 40 432 L 40 454 L 276.74609375 454 L 287.74609375 443 L 287.74609375 432 L 40 432"/></g><g transform="translate(2,-19) scale(1,1)"><path fill="none" stroke="#000000" d="M 40 432 L 40 454 L 276.74609375 454 L 287.74609375 443 L 287.74609375 432 L 40 432 L 40 432" stroke-miterlimit="10"/></g><g transform="translate(2,-19) scale(1,1)"><g><path fill="none" stroke="none"/><text fill="#000000" stroke="none" font-family="Arial" font-size="13px" font-style="normal" font-weight="normal" text-decoration="none" x="75.578125" y="449.5">tant qu'un visiteur change son lieu</text></g></g><g transform="translate(2,-19) scale(1,1)"><g><path fill="none" stroke="none"/><text fill="#000000" stroke="none" font-family="Arial" font-size="13px" font-style="normal" font-weight="bold" text-decoration="none" x="45" y="449.5">loop</text></g></g></g></svg>