<svg version="1.1" xmlns="http://www.w3.org/2000/svg" xmlns:xlink="http://www.w3.org/1999/xlink" width="741" height="612"><defs/><g><g transform="translate(-22,-6) scale(1,1)"><rect fill="#ffffff" stroke="none" x="80" y="16" width="304" height="21"/></g><g transform="translate(-22,-6) scale(1,1)"><path fill="none" stroke="#000000" d="M 80 16 L 384 16 L 384 37 L 80 37 L 80 16 Z Z" stroke-miterlimit="10" stroke-width="2"/></g><g transform="translate(-22,-6) scale(1,1)"><path fill="none" stroke="#000000" d="M 80 607 L 80 16 L 384 16 L 384 607" stroke-miterlimit="10" stroke-width="2"/></g><g transform="translate(-22,-6) scale(1,1)"><g><path fill="none" stroke="none"/><text fill="#000000" stroke="none" font-family="Arial" font-size="13px" font-style="normal" font-weight="normal" text-decoration="none" x="133.13525390625" y="33">Visiteur &amp; Acteurs publics &amp; privés</text></g></g><g transform="translate(-22,-6) scale(1,1)"><rect fill="#ffffff" stroke="none" x="384" y="16" width="304" height="21"/></g><g transform="translate(-22,-6) scale(1,1)"><path fill="none" stroke="#000000" d="M 384 16 L 688 16 L 688 37 L 384 37 L 384 16 Z Z" stroke-miterlimit="10" stroke-width="2"/></g><g transform="translate(-22,-6) scale(1,1)"><path fill="none" stroke="#000000" d="M 384 608 L 384 16 L 688 16 L 688 608" stroke-miterlimit="10" stroke-width="2"/></g><g transform="translate(-22,-6) scale(1,1)"><g><path fill="none" stroke="none"/><text fill="#000000" stroke="none" font-family="Arial" font-size="13px" font-style="normal" font-weight="normal" text-decoration="none" x="517.575927734375" y="33">Admin</text></g></g><g transform="translate(-22,-6) scale(1,1)"><path fill="#C0C0C0" stroke="none" d="M 39 112.5 C 39 107.2532944 43.2532944 103 48.5 103 C 53.7467056 103 58 107.2532944 58 112.5 C 58 117.7467056 53.7467056 122 48.5 122 C 43.2532944 122 39 117.7467056 39 112.5 Z" opacity="0.2"/></g><g transform="translate(-22,-6) scale(1,1)"><path fill="#000000" stroke="none" d="M 32 105.5 C 32 100.2532944 36.2532944 96 41.5 96 C 46.7467056 96 51 100.2532944 51 105.5 C 51 110.7467056 46.7467056 115 41.5 115 C 36.2532944 115 32 110.7467056 32 105.5 Z"/></g><g transform="translate(-22,-6) scale(1,1)"><path fill="#C0C0C0" stroke="none" d="M 161 95 L 287.2744140625 95 Q 297.2744140625 95 297.2744140625 105 L 297.2744140625 125 Q 297.2744140625 135 287.2744140625 135 L 161 135 Q 151 135 151 125 L 151 105 Q 151 95 161 95 Z" opacity="0.2"/></g><g transform="translate(-22,-6) scale(1,1)"><path fill="#ffffff" stroke="none" d="M 154 88 L 280.2744140625 88 Q 290.2744140625 88 290.2744140625 98 L 290.2744140625 118 Q 290.2744140625 128 280.2744140625 128 L 154 128 Q 144 128 144 118 L 144 98 Q 144 88 154 88 Z"/></g><g transform="translate(-22,-6) scale(1,1)"><path fill="none" stroke="#000000" d="M 154 88 L 280.2744140625 88 Q 290.2744140625 88 290.2744140625 98 L 290.2744140625 118 Q 290.2744140625 128 280.2744140625 128 L 154 128 Q 144 128 144 118 L 144 98 Q 144 88 154 88 Z" stroke-miterlimit="10"/></g><g transform="translate(-22,-6) scale(1,1)"><g><path fill="none" stroke="none"/><text fill="#000000" stroke="none" font-family="Arial" font-size="13px" font-style="normal" font-weight="bold" text-decoration="none" x="152.8291015625" y="107.5">Creer une réclamation</text></g></g><g transform="translate(-22,-6) scale(1,1)"><path fill="none" stroke="#000000" d="M 52 105 L 143 107" stroke-miterlimit="10"/></g><g transform="translate(-22,-6) scale(1,1)"><path fill="none" stroke="#000000" d="M 132.74728417201678 110.98519988841493 L 143 107 L 132.93227324697236 102.56819697793648" stroke-miterlimit="10"/></g><g transform="translate(-22,-6) scale(1,1)"><path fill="#C0C0C0" stroke="none" d="M 481 151 L 615.9580078125 151 Q 625.9580078125 151 625.9580078125 161 L 625.9580078125 181 Q 625.9580078125 191 615.9580078125 191 L 481 191 Q 471 191 471 181 L 471 161 Q 471 151 481 151 Z" opacity="0.2"/></g><g transform="translate(-22,-6) scale(1,1)"><path fill="#ffffff" stroke="none" d="M 474 144 L 608.9580078125 144 Q 618.9580078125 144 618.9580078125 154 L 618.9580078125 174 Q 618.9580078125 184 608.9580078125 184 L 474 184 Q 464 184 464 174 L 464 154 Q 464 144 474 144 Z"/></g><g transform="translate(-22,-6) scale(1,1)"><path fill="none" stroke="#000000" d="M 474 144 L 608.9580078125 144 Q 618.9580078125 144 618.9580078125 154 L 618.9580078125 174 Q 618.9580078125 184 608.9580078125 184 L 474 184 Q 464 184 464 174 L 464 154 Q 464 144 474 144 Z" stroke-miterlimit="10"/></g><g transform="translate(-22,-6) scale(1,1)"><g><path fill="none" stroke="none"/><text fill="#000000" stroke="none" font-family="Arial" font-size="13px" font-style="normal" font-weight="bold" text-decoration="none" x="473.9208984375" y="163.5">Analyser la réclamation</text></g></g><g transform="translate(-22,-6) scale(1,1)"><path fill="none" stroke="#000000" d="M 291 121 L 463 151" stroke-miterlimit="10"/></g><g transform="translate(-22,-6) scale(1,1)"><path fill="none" stroke="#000000" d="M 452.2651702844676 153.40071468078216 L 463 151 L 453.711767482789 145.10689074373937" stroke-miterlimit="10"/></g><g transform="translate(-22,-6) scale(1,1)"><path fill="#C0C0C0" stroke="none" d="M 735 299.5 C 735 292.59644 740.59644 287 747.5 287 C 754.40356 287 760 292.59644 760 299.5 C 760 306.40356 754.40356 312 747.5 312 C 740.59644 312 735 306.40356 735 299.5 Z" opacity="0.2"/></g><g transform="translate(-22,-6) scale(1,1)"><path fill="none" stroke="#000000" d="M 728 292.5 C 728 285.59644 733.59644 280 740.5 280 C 747.40356 280 753 285.59644 753 292.5 C 753 299.40356 747.40356 305 740.5 305 C 733.59644 305 728 299.40356 728 292.5 Z" stroke-miterlimit="10"/></g><g transform="translate(-22,-6) scale(1,1)"><path fill="#000000" stroke="none" d="M 733 292.5 C 733 288.357864 736.357864 285 740.5 285 C 744.642136 285 748 288.357864 748 292.5 C 748 296.642136 744.642136 300 740.5 300 C 736.357864 300 733 296.642136 733 292.5 Z"/></g><g transform="translate(-22,-6) scale(1,1)"><path fill="none" stroke="#000000" d="M 540 185 L 539 215" stroke-miterlimit="10"/></g><g transform="translate(-22,-6) scale(1,1)"><path fill="none" stroke="#000000" d="M 535.1313867055028 204.7027270028595 L 539 215 L 543.5457488696798 204.9832057416654" stroke-miterlimit="10"/></g><g transform="translate(-22,-6) scale(1,1)"><path fill="none" stroke="#000000" d="M 551 229 L 727 288" stroke-miterlimit="10"/></g><g transform="translate(-22,-6) scale(1,1)"><path fill="none" stroke="#000000" d="M 716.026361212421 288.7610859082532 L 727 288 L 718.7022965922198 280.77863460580255" stroke-miterlimit="10"/></g><g transform="translate(-22,-6) scale(1,1)"><g><path fill="none" stroke="none"/><text fill="#000000" stroke="none" font-family="Arial" font-size="13px" font-style="normal" font-weight="normal" text-decoration="none" x="626.5" y="249.5">[Else]</text></g></g><g transform="translate(-22,-6) scale(1,1)"><path fill="#C0C0C0" stroke="none" d="M 535 232.5 L 546.5 223 L 557 232.5 L 546.5 241 L 535 232.5" opacity="0.2"/></g><g transform="translate(-22,-6) scale(1,1)"><path fill="#ffffff" stroke="none" d="M 528 225 L 539 216 L 550 225 L 539 234 L 528 225"/></g><g transform="translate(-22,-6) scale(1,1)"><path fill="none" stroke="#000000" d="M 528 225 L 539 216 L 550 225 L 539 234 L 528 225 L 528 225" stroke-miterlimit="10"/></g><g transform="translate(-22,-6) scale(1,1)"><path fill="#C0C0C0" stroke="none" d="M 473 343 L 602.1689453125 343 Q 612.1689453125 343 612.1689453125 353 L 612.1689453125 373 Q 612.1689453125 383 602.1689453125 383 L 473 383 Q 463 383 463 373 L 463 353 Q 463 343 473 343 Z" opacity="0.2"/></g><g transform="translate(-22,-6) scale(1,1)"><path fill="#ffffff" stroke="none" d="M 466 336 L 595.1689453125 336 Q 605.1689453125 336 605.1689453125 346 L 605.1689453125 366 Q 605.1689453125 376 595.1689453125 376 L 466 376 Q 456 376 456 366 L 456 346 Q 456 336 466 336 Z"/></g><g transform="translate(-22,-6) scale(1,1)"><path fill="none" stroke="#000000" d="M 466 336 L 595.1689453125 336 Q 605.1689453125 336 605.1689453125 346 L 605.1689453125 366 Q 605.1689453125 376 595.1689453125 376 L 466 376 Q 456 376 456 366 L 456 346 Q 456 336 466 336 Z" stroke-miterlimit="10"/></g><g transform="translate(-22,-6) scale(1,1)"><g><path fill="none" stroke="none"/><text fill="#000000" stroke="none" font-family="Arial" font-size="13px" font-style="normal" font-weight="bold" text-decoration="none" x="465.55908203125" y="355.5">Corriger les anomalies</text></g></g><g transform="translate(-22,-6) scale(1,1)"><path fill="none" stroke="#000000" d="M 538 235 L 531 335" stroke-miterlimit="10"/></g><g transform="translate(-22,-6) scale(1,1)"><path fill="none" stroke="#000000" d="M 527.5104085355501 324.5681856126924 L 531 335 L 535.9088929052614 325.15607951857214" stroke-miterlimit="10"/></g><g transform="translate(-22,-6) scale(1,1)"><g><path fill="none" stroke="none"/><text fill="#000000" stroke="none" font-family="Arial" font-size="13px" font-style="normal" font-weight="normal" text-decoration="none" x="423.5" y="275.5">[éclamation valide]</text></g></g><g transform="translate(-22,-6) scale(1,1)"><path fill="#C0C0C0" stroke="none" d="M 465 487 L 605.68359375 487 Q 615.68359375 487 615.68359375 497 L 615.68359375 517 Q 615.68359375 527 605.68359375 527 L 465 527 Q 455 527 455 517 L 455 497 Q 455 487 465 487 Z" opacity="0.2"/></g><g transform="translate(-22,-6) scale(1,1)"><path fill="#ffffff" stroke="none" d="M 458 480 L 598.68359375 480 Q 608.68359375 480 608.68359375 490 L 608.68359375 510 Q 608.68359375 520 598.68359375 520 L 458 520 Q 448 520 448 510 L 448 490 Q 448 480 458 480 Z"/></g><g transform="translate(-22,-6) scale(1,1)"><path fill="none" stroke="#000000" d="M 458 480 L 598.68359375 480 Q 608.68359375 480 608.68359375 490 L 608.68359375 510 Q 608.68359375 520 598.68359375 520 L 458 520 Q 448 520 448 510 L 448 490 Q 448 480 458 480 Z" stroke-miterlimit="10"/></g><g transform="translate(-22,-6) scale(1,1)"><g><path fill="none" stroke="none"/><text fill="#000000" stroke="none" font-family="Arial" font-size="13px" font-style="normal" font-weight="bold" text-decoration="none" x="458.965087890625" y="499.5">Pousser une notification</text></g></g><g transform="translate(-22,-6) scale(1,1)"><path fill="none" stroke="#000000" d="M 530 377 L 528 479" stroke-miterlimit="10"/></g><g transform="translate(-22,-6) scale(1,1)"><path fill="none" stroke="#000000" d="M 523.9905210615756 468.75675448686644 L 528 479 L 532.407938617311 468.92180188992006" stroke-miterlimit="10"/></g></g></svg>