<svg version="1.1" xmlns="http://www.w3.org/2000/svg" xmlns:xlink="http://www.w3.org/1999/xlink" width="639" height="436"><defs/><g><g transform="translate(-62,-22) scale(1,1)"><rect fill="#ffffff" stroke="none" x="72" y="32" width="279" height="21"/></g><g transform="translate(-62,-22) scale(1,1)"><path fill="none" stroke="#000000" d="M 72 32 L 351 32 L 351 53 L 72 53 L 72 32 Z Z" stroke-miterlimit="10" stroke-width="2"/></g><g transform="translate(-62,-22) scale(1,1)"><path fill="none" stroke="#000000" d="M 72 448 L 72 32 L 351 32 L 351 448" stroke-miterlimit="10" stroke-width="2"/></g><g transform="translate(-62,-22) scale(1,1)"><g><path fill="none" stroke="none"/><text fill="#000000" stroke="none" font-family="Arial" font-size="13px" font-style="normal" font-weight="normal" text-decoration="none" x="189.943359375" y="49">Visiteur</text></g></g><g transform="translate(-62,-22) scale(1,1)"><rect fill="#ffffff" stroke="none" x="352" y="32" width="279" height="21"/></g><g transform="translate(-62,-22) scale(1,1)"><path fill="none" stroke="#000000" d="M 352 32 L 631 32 L 631 53 L 352 53 L 352 32 Z Z" stroke-miterlimit="10" stroke-width="2"/></g><g transform="translate(-62,-22) scale(1,1)"><path fill="none" stroke="#000000" d="M 352 448 L 352 32 L 631 32 L 631 448" stroke-miterlimit="10" stroke-width="2"/></g><g transform="translate(-62,-22) scale(1,1)"><g><path fill="none" stroke="none"/><text fill="#000000" stroke="none" font-family="Arial" font-size="13px" font-style="normal" font-weight="normal" text-decoration="none" x="423.9482421875" y="49">Acteurs Public &amp; Privés</text></g></g><g transform="translate(-62,-22) scale(1,1)"><path fill="#C0C0C0" stroke="none" d="M 679 96.5 C 679 91.2532944 683.2532944 87 688.5 87 C 693.7467056 87 698 91.2532944 698 96.5 C 698 101.7467056 693.7467056 106 688.5 106 C 683.2532944 106 679 101.7467056 679 96.5 Z" opacity="0.2"/></g><g transform="translate(-62,-22) scale(1,1)"><path fill="#000000" stroke="none" d="M 672 89.5 C 672 84.2532944 676.2532944 80 681.5 80 C 686.7467056 80 691 84.2532944 691 89.5 C 691 94.7467056 686.7467056 99 681.5 99 C 676.2532944 99 672 94.7467056 672 89.5 Z"/></g><g transform="translate(-62,-22) scale(1,1)"><path fill="#C0C0C0" stroke="none" d="M 449 95 L 564.4326171875 95 Q 574.4326171875 95 574.4326171875 105 L 574.4326171875 125 Q 574.4326171875 135 564.4326171875 135 L 449 135 Q 439 135 439 125 L 439 105 Q 439 95 449 95 Z" opacity="0.2"/></g><g transform="translate(-62,-22) scale(1,1)"><path fill="#ffffff" stroke="none" d="M 442 88 L 557.4326171875 88 Q 567.4326171875 88 567.4326171875 98 L 567.4326171875 118 Q 567.4326171875 128 557.4326171875 128 L 442 128 Q 432 128 432 118 L 432 98 Q 432 88 442 88 Z"/></g><g transform="translate(-62,-22) scale(1,1)"><path fill="none" stroke="#000000" d="M 442 88 L 557.4326171875 88 Q 567.4326171875 88 567.4326171875 98 L 567.4326171875 118 Q 567.4326171875 128 557.4326171875 128 L 442 128 Q 432 128 432 118 L 432 98 Q 432 88 442 88 Z" stroke-miterlimit="10"/></g><g transform="translate(-62,-22) scale(1,1)"><g><path fill="none" stroke="none"/><text fill="#000000" stroke="none" font-family="Arial" font-size="13px" font-style="normal" font-weight="bold" text-decoration="none" x="439.740478515625" y="107.5">Creer un Evénement</text></g></g><g transform="translate(-62,-22) scale(1,1)"><path fill="none" stroke="#000000" d="M 671 90 L 568 101" stroke-miterlimit="10"/></g><g transform="translate(-62,-22) scale(1,1)"><path fill="none" stroke="#000000" d="M 577.6581930378331 95.73508715704133 L 568 101 L 578.5522293646727 104.10651821744833" stroke-miterlimit="10"/></g><g transform="translate(-62,-22) scale(1,1)"><path fill="#C0C0C0" stroke="none" d="M 161 135 L 278.578125 135 Q 288.578125 135 288.578125 145 L 288.578125 165 Q 288.578125 175 278.578125 175 L 161 175 Q 151 175 151 165 L 151 145 Q 151 135 161 135 Z" opacity="0.2"/></g><g transform="translate(-62,-22) scale(1,1)"><path fill="#ffffff" stroke="none" d="M 154 128 L 271.578125 128 Q 281.578125 128 281.578125 138 L 281.578125 158 Q 281.578125 168 271.578125 168 L 154 168 Q 144 168 144 158 L 144 138 Q 144 128 154 128 Z"/></g><g transform="translate(-62,-22) scale(1,1)"><path fill="none" stroke="#000000" d="M 154 128 L 271.578125 128 Q 281.578125 128 281.578125 138 L 281.578125 158 Q 281.578125 168 271.578125 168 L 154 168 Q 144 168 144 158 L 144 138 Q 144 128 154 128 Z" stroke-miterlimit="10"/></g><g transform="translate(-62,-22) scale(1,1)"><g><path fill="none" stroke="none"/><text fill="#000000" stroke="none" font-family="Arial" font-size="13px" font-style="normal" font-weight="bold" text-decoration="none" x="154.260498046875" y="147.5">Recevoir notification</text></g></g><g transform="translate(-62,-22) scale(1,1)"><path fill="none" stroke="#000000" d="M 431 117 L 283 138" stroke-miterlimit="10"/></g><g transform="translate(-62,-22) scale(1,1)"><path fill="none" stroke="#000000" d="M 292.4705170846943 132.40452806740004 L 283 138 L 293.6532629994108 140.74007070444992" stroke-miterlimit="10"/></g><g transform="translate(-62,-22) scale(1,1)"><path fill="none" stroke="#000000" d="M 212 169 L 212 223" stroke-miterlimit="10"/></g><g transform="translate(-62,-22) scale(1,1)"><path fill="none" stroke="#000000" d="M 207.790482243984 212.83732514237585 L 212 223 L 216.209517756016 212.83732514237585" stroke-miterlimit="10"/></g><g transform="translate(-62,-22) scale(1,1)"><path fill="#C0C0C0" stroke="none" d="M 113 231 L 326.16748046875 231 Q 336.16748046875 231 336.16748046875 241 L 336.16748046875 261 Q 336.16748046875 271 326.16748046875 271 L 113 271 Q 103 271 103 261 L 103 241 Q 103 231 113 231 Z" opacity="0.2"/></g><g transform="translate(-62,-22) scale(1,1)"><path fill="#ffffff" stroke="none" d="M 106 224 L 319.16748046875 224 Q 329.16748046875 224 329.16748046875 234 L 329.16748046875 254 Q 329.16748046875 264 319.16748046875 264 L 106 264 Q 96 264 96 254 L 96 234 Q 96 224 106 224 Z"/></g><g transform="translate(-62,-22) scale(1,1)"><path fill="none" stroke="#000000" d="M 106 224 L 319.16748046875 224 Q 329.16748046875 224 329.16748046875 234 L 329.16748046875 254 Q 329.16748046875 264 319.16748046875 264 L 106 264 Q 96 264 96 254 L 96 234 Q 96 224 106 224 Z" stroke-miterlimit="10"/></g><g transform="translate(-62,-22) scale(1,1)"><g><path fill="none" stroke="none"/><text fill="#000000" stroke="none" font-family="Arial" font-size="13px" font-style="normal" font-weight="bold" text-decoration="none" x="108.367919921875" y="243.5">Consulter les details de l'événement</text></g></g><g transform="translate(-62,-22) scale(1,1)"><path fill="#C0C0C0" stroke="none" d="M 97 319 L 340.49658203125 319 Q 350.49658203125 319 350.49658203125 329 L 350.49658203125 349 Q 350.49658203125 359 340.49658203125 359 L 97 359 Q 87 359 87 349 L 87 329 Q 87 319 97 319 Z" opacity="0.2"/></g><g transform="translate(-62,-22) scale(1,1)"><path fill="#ffffff" stroke="none" d="M 90 312 L 333.49658203125 312 Q 343.49658203125 312 343.49658203125 322 L 343.49658203125 342 Q 343.49658203125 352 333.49658203125 352 L 90 352 Q 80 352 80 342 L 80 322 Q 80 312 90 312 Z"/></g><g transform="translate(-62,-22) scale(1,1)"><path fill="none" stroke="#000000" d="M 90 312 L 333.49658203125 312 Q 343.49658203125 312 343.49658203125 322 L 343.49658203125 342 Q 343.49658203125 352 333.49658203125 352 L 90 352 Q 80 352 80 342 L 80 322 Q 80 312 90 312 Z" stroke-miterlimit="10"/></g><g transform="translate(-62,-22) scale(1,1)"><g><path fill="none" stroke="none"/><text fill="#000000" stroke="none" font-family="Arial" font-size="13px" font-style="normal" font-weight="bold" text-decoration="none" x="94.177001953125" y="331.5">Exprimer sa motivation pour l'événement</text></g></g><g transform="translate(-62,-22) scale(1,1)"><path fill="none" stroke="#000000" d="M 212 265 L 211 311" stroke-miterlimit="10"/></g><g transform="translate(-62,-22) scale(1,1)"><path fill="none" stroke="#000000" d="M 207.01235210782485 300.74823604017183 L 211 311 L 215.42939894957703 300.93121531934037" stroke-miterlimit="10"/></g><g transform="translate(-62,-22) scale(1,1)"><path fill="#C0C0C0" stroke="none" d="M 393 367 L 610.5029296875 367 Q 620.5029296875 367 620.5029296875 377 L 620.5029296875 397 Q 620.5029296875 407 610.5029296875 407 L 393 407 Q 383 407 383 397 L 383 377 Q 383 367 393 367 Z" opacity="0.2"/></g><g transform="translate(-62,-22) scale(1,1)"><path fill="#ffffff" stroke="none" d="M 386 360 L 603.5029296875 360 Q 613.5029296875 360 613.5029296875 370 L 613.5029296875 390 Q 613.5029296875 400 603.5029296875 400 L 386 400 Q 376 400 376 390 L 376 370 Q 376 360 386 360 Z"/></g><g transform="translate(-62,-22) scale(1,1)"><path fill="none" stroke="#000000" d="M 386 360 L 603.5029296875 360 Q 613.5029296875 360 613.5029296875 370 L 613.5029296875 390 Q 613.5029296875 400 603.5029296875 400 L 386 400 Q 376 400 376 390 L 376 370 Q 376 360 386 360 Z" stroke-miterlimit="10"/></g><g transform="translate(-62,-22) scale(1,1)"><g><path fill="none" stroke="none"/><text fill="#000000" stroke="none" font-family="Arial" font-size="13px" font-style="normal" font-weight="bold" text-decoration="none" x="389.580322265625" y="379.5">Recevoir des estimations de l'effectif</text></g></g><g transform="translate(-62,-22) scale(1,1)"><path fill="#C0C0C0" stroke="none" d="M 663 419.5 C 663 412.59644 668.59644 407 675.5 407 C 682.40356 407 688 412.59644 688 419.5 C 688 426.40356 682.40356 432 675.5 432 C 668.59644 432 663 426.40356 663 419.5 Z" opacity="0.2"/></g><g transform="translate(-62,-22) scale(1,1)"><path fill="none" stroke="#000000" d="M 656 412.5 C 656 405.59644 661.59644 400 668.5 400 C 675.40356 400 681 405.59644 681 412.5 C 681 419.40356 675.40356 425 668.5 425 C 661.59644 425 656 419.40356 656 412.5 Z" stroke-miterlimit="10"/></g><g transform="translate(-62,-22) scale(1,1)"><path fill="#000000" stroke="none" d="M 661 412.5 C 661 408.357864 664.357864 405 668.5 405 C 672.642136 405 676 408.357864 676 412.5 C 676 416.642136 672.642136 420 668.5 420 C 664.357864 420 661 416.642136 661 412.5 Z"/></g><g transform="translate(-62,-22) scale(1,1)"><path fill="none" stroke="#000000" d="M 335 353 L 375 360" stroke-miterlimit="10"/></g><g transform="translate(-62,-22) scale(1,1)"><path fill="none" stroke="#000000" d="M 364.26381757014394 362.3946579782612 L 375 360 L 365.71509370474195 354.10165149484385" stroke-miterlimit="10"/></g><g transform="translate(-62,-22) scale(1,1)"><path fill="none" stroke="#000000" d="M 608 401 L 655 410" stroke-miterlimit="10"/></g><g transform="translate(-62,-22) scale(1,1)"><path fill="none" stroke="#000000" d="M 644.2269825617769 412.22308238168125 L 655 410 L 645.8103696883684 403.9542829428147" stroke-miterlimit="10"/></g></g></svg>